<svg width="120" height="120" viewBox="0 0 120 120" fill="none" xmlns="http://www.w3.org/2000/svg">
<rect width="120" height="120" rx="60" fill="#ECF8F6"/>
<rect x="15" y="15" width="90" height="90" rx="45" fill="#DAF0EE"/>
<path d="M50.8924 44.5641C50.7324 44.7241 50.6109 44.917 50.5095 45.1285L50.4981 45.117L34.4729 81.2166L34.4886 81.2323C34.1914 81.8081 34.6886 82.9797 35.7073 83.9999C36.7261 85.0186 37.8977 85.5158 38.4735 85.2186L38.4877 85.2329L74.5873 69.2063L74.5759 69.1934C74.7859 69.0934 74.9788 68.9719 75.1403 68.8091C77.372 66.5773 73.7529 59.3405 67.0591 52.6453C60.3624 45.95 53.1256 42.3323 50.8924 44.5641Z" fill="#DD2E44"/>
<path d="M52.8556 51.0103L34.8758 80.3088L34.4729 81.2161L34.4886 81.2318C34.1914 81.8076 34.6886 82.9792 35.7073 83.9994C36.0388 84.3309 36.3831 84.5823 36.7203 84.7952L58.5707 58.1542L52.8556 51.0103Z" fill="#EA596E"/>
<path d="M67.1605 52.5341C73.8329 59.2093 77.5377 66.3247 75.4317 68.4278C73.3271 70.5338 66.2118 66.8304 59.5351 60.158C52.8612 53.4828 49.1578 46.3646 51.2624 44.26C53.3685 42.1554 60.4838 45.8588 67.1605 52.5341Z" fill="#A0041E"/>
<path d="M60.8425 53.3095C60.5581 53.5395 60.1867 53.6595 59.7937 53.6167C58.5536 53.4823 57.5106 53.0509 56.7804 52.3693C56.0075 51.6478 55.626 50.6791 55.7303 49.7089C55.9132 48.0058 57.622 46.4427 60.5353 46.7571C61.6683 46.8785 62.1741 46.5142 62.1912 46.3399C62.2112 46.167 61.7955 45.7026 60.6624 45.5798C59.4223 45.4455 58.3793 45.014 57.6477 44.3324C56.8747 43.6109 56.4918 42.6422 56.5976 41.672C56.7833 39.9689 58.4907 38.4059 61.4011 38.7216C62.227 38.8102 62.6627 38.6402 62.8471 38.5302C62.9942 38.4401 63.0528 38.3544 63.0585 38.3044C63.0757 38.1315 62.6656 37.6672 61.5297 37.5443C60.7453 37.4586 60.1767 36.7556 60.2638 35.9698C60.3481 35.1854 61.0496 34.6182 61.8369 34.7039C64.7473 35.0168 66.0847 36.9071 65.9004 38.6116C65.7146 40.3176 64.0072 41.8778 61.0939 41.5649C60.2681 41.4749 59.8366 41.6463 59.6509 41.7563C59.5037 41.8449 59.4437 41.9321 59.438 41.9807C59.4194 42.155 59.8323 42.6179 60.9682 42.7408C63.8786 43.0551 65.216 44.944 65.0317 46.6485C64.8473 48.3516 63.14 49.9147 60.2281 49.5989C59.4023 49.5103 58.9679 49.6818 58.7822 49.7904C58.6336 49.8818 58.5764 49.9675 58.5707 50.0161C58.5521 50.189 58.9651 50.6534 60.0995 50.7762C60.8825 50.862 61.4526 51.5664 61.3654 52.3508C61.3254 52.7422 61.1268 53.0809 60.8425 53.3095Z" fill="#AA8DD8"/>
<path d="M78.0892 66.523C80.9082 65.7271 82.8527 66.9845 83.3157 68.6347C83.7786 70.2835 82.7756 72.371 79.958 73.1639C78.8579 73.4726 78.5278 73.9983 78.5721 74.1655C78.6207 74.3341 79.1793 74.6113 80.2766 74.3013C83.0942 73.5083 85.0388 74.7656 85.5017 76.4144C85.9675 78.0647 84.9616 80.1493 82.1426 80.9437C81.0439 81.2523 80.7124 81.7795 80.761 81.9467C80.8081 82.1138 81.3654 82.391 82.4641 82.0824C83.2214 81.8695 84.0129 82.311 84.2258 83.0697C84.4373 83.8298 83.9958 84.6185 83.2356 84.8328C80.4195 85.6258 78.4735 84.3713 78.0077 82.7196C77.5448 81.0708 78.5492 78.9862 81.3697 78.1918C82.4698 77.8818 82.7999 77.3574 82.7513 77.1888C82.7056 77.0217 82.1483 76.743 81.051 77.0517C78.2306 77.8461 76.2875 76.5916 75.8231 74.9385C75.3588 73.2897 76.3632 71.2051 79.1822 70.4093C80.2795 70.1021 80.6095 69.5734 80.5638 69.4077C80.5152 69.2391 79.9594 68.9619 78.8607 69.2705C78.1006 69.4848 77.3133 69.0419 77.099 68.2832C76.8861 67.526 77.3291 66.7373 78.0892 66.523Z" fill="#77B255"/>
<path d="M67.1443 62.6698C66.7243 62.6698 66.3099 62.4855 66.027 62.134C65.5341 61.5167 65.6355 60.618 66.2499 60.1251C66.5614 59.8751 73.991 54.0399 84.4912 55.5416C85.2727 55.653 85.8156 56.376 85.7042 57.1575C85.5928 57.9377 84.8755 58.4863 84.0868 58.3691C74.8097 57.0518 68.103 62.304 68.0373 62.3569C67.7716 62.5683 67.4572 62.6698 67.1443 62.6698Z" fill="#AA8DD8"/>
<path d="M42.5025 56.7259C42.3668 56.7259 42.2282 56.7058 42.091 56.6658C41.3352 56.4387 40.9065 55.6428 41.1337 54.887C42.7525 49.4962 44.2199 40.8935 42.4168 38.6503C42.2153 38.396 41.911 38.146 41.2137 38.1988C39.8735 38.3017 40.0007 41.1293 40.0021 41.1579C40.0621 41.9451 39.4706 42.6309 38.6848 42.6895C37.8861 42.7381 37.2117 42.158 37.1531 41.3707C37.006 39.4005 37.6189 35.6056 40.9994 35.3499C42.5082 35.2356 43.7612 35.7599 44.6457 36.8601C48.0333 41.0764 44.5942 53.2996 43.8713 55.7086C43.6855 56.3272 43.1169 56.7259 42.5025 56.7259Z" fill="#77B255"/>
<path d="M70.7154 49.5818C71.8991 49.5818 72.8586 48.6222 72.8586 47.4386C72.8586 46.2549 71.8991 45.2954 70.7154 45.2954C69.5318 45.2954 68.5723 46.2549 68.5723 47.4386C68.5723 48.6222 69.5318 49.5818 70.7154 49.5818Z" fill="#5C913B"/>
<path d="M37.1388 62.4407C38.717 62.4407 39.9964 61.1613 39.9964 59.5831C39.9964 58.005 38.717 56.7256 37.1388 56.7256C35.5606 56.7256 34.2812 58.005 34.2812 59.5831C34.2812 61.1613 35.5606 62.4407 37.1388 62.4407Z" fill="#9266CC"/>
<path d="M80.7169 63.8698C81.9005 63.8698 82.8601 62.9103 82.8601 61.7267C82.8601 60.543 81.9005 59.5835 80.7169 59.5835C79.5333 59.5835 78.5737 60.543 78.5737 61.7267C78.5737 62.9103 79.5333 63.8698 80.7169 63.8698Z" fill="#5C913B"/>
<path d="M67.8575 81.0149C69.0412 81.0149 70.0007 80.0553 70.0007 78.8717C70.0007 77.688 69.0412 76.7285 67.8575 76.7285C66.6739 76.7285 65.7144 77.688 65.7144 78.8717C65.7144 80.0553 66.6739 81.0149 67.8575 81.0149Z" fill="#5C913B"/>
<path d="M74.2872 42.4378C75.8654 42.4378 77.1448 41.1584 77.1448 39.5802C77.1448 38.002 75.8654 36.7227 74.2872 36.7227C72.7091 36.7227 71.4297 38.002 71.4297 39.5802C71.4297 41.1584 72.7091 42.4378 74.2872 42.4378Z" fill="#FFCC4D"/>
<path d="M80.7169 48.1526C81.9005 48.1526 82.8601 47.193 82.8601 46.0094C82.8601 44.8257 81.9005 43.8662 80.7169 43.8662C79.5333 43.8662 78.5737 44.8257 78.5737 46.0094C78.5737 47.193 79.5333 48.1526 80.7169 48.1526Z" fill="#FFCC4D"/>
<path d="M76.4303 53.8679C77.6139 53.8679 78.5735 52.9084 78.5735 51.7247C78.5735 50.5411 77.6139 49.5815 76.4303 49.5815C75.2466 49.5815 74.2871 50.5411 74.2871 51.7247C74.2871 52.9084 75.2466 53.8679 76.4303 53.8679Z" fill="#FFCC4D"/>
<path d="M44.9972 69.5842C46.1808 69.5842 47.1403 68.6247 47.1403 67.441C47.1403 66.2574 46.1808 65.2979 44.9972 65.2979C43.8135 65.2979 42.854 66.2574 42.854 67.441C42.854 68.6247 43.8135 69.5842 44.9972 69.5842Z" fill="#FFCC4D"/>
</svg>
