<svg width="53" height="54" viewBox="0 0 53 54" fill="none" xmlns="http://www.w3.org/2000/svg">
<path fill-rule="evenodd" clip-rule="evenodd" d="M38.0538 12.1786C34.9786 9.16815 30.8399 7.49246 26.5365 7.51538C22.2331 7.5383 18.1125 9.25798 15.0695 12.301C12.0265 15.344 10.3068 19.4646 10.2839 23.768C10.2609 28.0714 11.9366 32.2101 14.947 35.2853C15.2536 35.5919 15.4258 36.0076 15.4258 36.4411C15.4258 36.8746 15.2536 37.2903 14.947 37.5969C14.6405 37.9034 14.2248 38.0756 13.7913 38.0756C13.3578 38.0756 12.942 37.9034 12.6355 37.5969C10.3554 35.3168 8.67288 32.5096 7.73686 29.4239C6.80085 26.3382 6.64027 23.0693 7.26935 19.9068C7.89843 16.7442 9.29775 13.7856 11.3434 11.293C13.389 8.80044 16.0177 6.85081 18.9968 5.61684C21.9759 4.38287 25.2133 3.90264 28.4223 4.21868C31.6313 4.53473 34.7128 5.6373 37.3939 7.42874C40.075 9.22017 42.2729 11.6452 43.7929 14.4889C45.313 17.3327 46.1082 20.5074 46.1083 23.7319C46.1083 24.1653 45.9361 24.5809 45.6297 24.8873C45.3232 25.1938 44.9076 25.3659 44.4743 25.3659C44.0409 25.3659 43.6253 25.1938 43.3189 24.8873C43.0124 24.5809 42.8403 24.1653 42.8403 23.7319C42.8403 19.5489 41.2455 15.3681 38.0538 12.1786ZM33.4329 16.7995C31.5943 14.9609 29.1006 13.928 26.5004 13.928C23.9002 13.928 21.4066 14.9609 19.568 16.7995C17.7294 18.6381 16.6964 21.1318 16.6964 23.7319C16.6964 26.3321 17.7294 28.8258 19.568 30.6644C19.7285 30.814 19.8573 30.9944 19.9466 31.1948C20.0359 31.3953 20.0839 31.6116 20.0878 31.831C20.0916 32.0504 20.0513 32.2683 19.9691 32.4718C19.8869 32.6753 19.7646 32.8601 19.6094 33.0153C19.4543 33.1704 19.2695 33.2927 19.066 33.3749C18.8625 33.4571 18.6446 33.4975 18.4252 33.4936C18.2058 33.4897 17.9894 33.4417 17.789 33.3524C17.5886 33.2631 17.4082 33.1343 17.2586 32.9738C15.7382 31.4538 14.6161 29.5823 13.9918 27.525C13.3675 25.4678 13.2603 23.2883 13.6795 21.1797C14.0988 19.0711 15.0317 17.0985 16.3956 15.4366C17.7594 13.7747 19.5121 12.4748 21.4984 11.6521C23.4847 10.8295 25.6432 10.5094 27.7827 10.7203C29.9222 10.9312 31.9767 11.6665 33.7641 12.8612C35.5515 14.0558 37.0167 15.6728 38.0298 17.569C39.043 19.4652 39.5728 21.5821 39.5723 23.7319C39.5723 24.1653 39.4002 24.5809 39.0937 24.8873C38.7873 25.1938 38.3717 25.3659 37.9383 25.3659C37.505 25.3659 37.0894 25.1938 36.7829 24.8873C36.4765 24.5809 36.3043 24.1653 36.3043 23.7319C36.3043 21.22 35.3457 18.7145 33.4329 16.7995ZM25.5157 19.6622C25.8469 19.5734 26.1976 19.5911 26.5183 19.7127C26.8389 19.8343 27.1131 20.0537 27.3022 20.3398L38.6921 37.5882C38.8704 37.858 38.9646 38.1746 38.9628 38.498C38.9609 38.8213 38.8632 39.1369 38.682 39.4047C38.5007 39.6725 38.2441 39.8805 37.9445 40.0023C37.645 40.1242 37.3161 40.1544 36.9993 40.0892L32.4307 39.1524L34.7074 47.6492C34.8195 48.0681 34.7606 48.5144 34.5436 48.8898C34.3267 49.2653 33.9694 49.5392 33.5505 49.6513C33.1316 49.7634 32.6853 49.7045 32.3098 49.4876C31.9344 49.2706 31.6604 48.9134 31.5484 48.4945L29.2738 39.9999L25.7858 43.0936C25.5441 43.3086 25.244 43.4469 24.9236 43.4912C24.6031 43.5354 24.2768 43.4836 23.9858 43.3422C23.6949 43.2008 23.4525 42.9762 23.2892 42.697C23.126 42.4177 23.0494 42.0962 23.069 41.7733L24.3087 21.1415C24.329 20.7992 24.4564 20.4719 24.673 20.206C24.8897 19.9401 25.1845 19.7491 25.5157 19.66V19.6622Z" fill="#F26969"/>
</svg>
