<svg width="65" height="65" viewBox="0 0 65 65" fill="none" xmlns="http://www.w3.org/2000/svg">
<path fill-rule="evenodd" clip-rule="evenodd" d="M23.0445 6.90005C21.3471 6.90005 19.7193 7.57434 18.519 8.77457C17.3188 9.9748 16.6445 11.6027 16.6445 13.3001V51.7001C16.6445 53.3974 17.3188 55.0253 18.519 56.2255C19.7193 57.4258 21.3471 58.1001 23.0445 58.1001H42.2445C43.9419 58.1001 45.5698 57.4258 46.77 56.2255C47.9702 55.0253 48.6445 53.3974 48.6445 51.7001V13.3001C48.6445 11.6027 47.9702 9.9748 46.77 8.77457C45.5698 7.57434 43.9419 6.90005 42.2445 6.90005H23.0445ZM32.6445 51.7001C33.4932 51.7001 34.3072 51.3629 34.9073 50.7628C35.5074 50.1627 35.8445 49.3488 35.8445 48.5001C35.8445 47.6514 35.5074 46.8374 34.9073 46.2373C34.3072 45.6372 33.4932 45.3001 32.6445 45.3001C31.7958 45.3001 30.9819 45.6372 30.3818 46.2373C29.7817 46.8374 29.4445 47.6514 29.4445 48.5001C29.4445 49.3488 29.7817 50.1627 30.3818 50.7628C30.9819 51.3629 31.7958 51.7001 32.6445 51.7001Z" fill="#00FF91"/>
</svg>
