<svg width="64" height="65" viewBox="0 0 64 65" fill="none" xmlns="http://www.w3.org/2000/svg">
<path d="M19.9823 50.5C18.849 50.5 17.7957 49.8707 17.3823 48.8147C16.467 46.4847 15.9984 44.0033 16.001 41.5C16.001 36.8333 17.5983 32.5453 20.273 29.1427C20.6757 28.6307 21.2677 28.3187 21.873 28.084C23.1343 27.596 24.2463 26.7133 25.105 25.62C27.1751 22.979 29.7736 20.7992 32.7343 19.22C34.6623 18.196 36.3343 16.6707 37.1423 14.6467C37.7098 13.2287 38.0013 11.7153 38.001 10.188V8.5C38.001 7.96957 38.2117 7.46086 38.5868 7.08579C38.9619 6.71071 39.4706 6.5 40.001 6.5C41.5923 6.5 43.1184 7.13214 44.2436 8.25736C45.3689 9.38258 46.001 10.9087 46.001 12.5C46.001 15.572 45.3077 18.4813 44.073 21.0813C43.3637 22.5693 44.3583 24.5 46.0063 24.5H54.3423C57.0783 24.5 59.529 26.3507 59.8197 29.0733C59.9397 30.1987 60.001 31.34 60.001 32.5C60.012 39.7969 57.5185 46.8766 52.937 52.556C51.9023 53.8413 50.305 54.5 48.657 54.5H37.9477C36.6597 54.5 35.377 54.292 34.153 53.8867L25.849 51.1133C24.6253 50.7064 23.344 50.4993 22.0543 50.5H19.9823ZM6.21701 29.772C4.74746 33.5072 3.99565 37.4861 4.001 41.5C3.99764 44.6688 4.46496 47.8205 5.38767 50.852C6.081 53.1187 8.27834 54.5 10.649 54.5H13.0677C14.2543 54.5 14.9877 53.172 14.4623 52.1053C12.836 48.8069 11.9928 45.1776 11.9983 41.5C11.9983 36.9453 13.2677 32.6867 15.4703 29.0573C16.1237 27.9827 15.3957 26.5 14.137 26.5H11.3343C9.11567 26.5 7.033 27.708 6.21701 29.772Z" fill="#F2AB6A"/>
</svg>
