<svg width="362" height="418" viewBox="0 0 362 418" fill="none" xmlns="http://www.w3.org/2000/svg">
<g opacity="0.5">
<circle cx="163.5" cy="254.631" r="22.8427" stroke="url(#paint0_linear_2587_436491)" stroke-width="1.36764"/>
<circle cx="163.5" cy="254.633" r="76.6571" stroke="url(#paint1_linear_2587_436491)" stroke-width="1.15349"/>
<circle cx="163.504" cy="254.632" r="124.951" stroke="url(#paint2_linear_2587_436491)" stroke-width="1.36764"/>
<circle cx="163.5" cy="254.632" r="161.83" stroke="url(#paint3_linear_2587_436491)" stroke-width="1.36764"/>
</g>
<rect x="198.549" y="282.552" width="99.838" height="31.5033" rx="15.7517" transform="rotate(-8.55315 198.549 282.552)" fill="#EF9645"/>
<g clip-path="url(#clip0_2587_436491)">
<path fill-rule="evenodd" clip-rule="evenodd" d="M219.3 286.966C219.425 287.013 219.531 287.101 219.6 287.215C219.67 287.329 219.7 287.463 219.684 287.596L218.979 293.594L224.713 292.731C224.828 292.714 224.946 292.731 225.052 292.779C225.158 292.828 225.247 292.907 225.309 293.006C225.371 293.105 225.403 293.219 225.4 293.336C225.398 293.452 225.361 293.566 225.295 293.662L218.346 303.783C218.271 303.893 218.16 303.975 218.032 304.016C217.905 304.056 217.767 304.052 217.642 304.005C217.517 303.958 217.411 303.87 217.341 303.756C217.272 303.641 217.243 303.507 217.258 303.374L217.964 297.377L212.23 298.239C212.114 298.256 211.997 298.24 211.891 298.191C211.785 298.142 211.695 298.064 211.633 297.965C211.572 297.866 211.54 297.751 211.543 297.635C211.545 297.518 211.582 297.405 211.648 297.309L218.596 287.187C218.672 287.077 218.783 286.996 218.91 286.956C219.037 286.916 219.175 286.919 219.3 286.966Z" fill="#F9D5B5"/>
</g>
<path d="M236.098 285.325L238.169 299.095L235.675 299.47L233.604 285.7L236.098 285.325ZM240.87 298.689L238.799 284.918L244.071 284.126C245.066 283.976 245.917 284.008 246.623 284.223C247.333 284.433 247.892 284.782 248.3 285.27C248.712 285.758 248.97 286.343 249.072 287.024C249.157 287.585 249.121 288.081 248.966 288.512C248.81 288.939 248.569 289.303 248.243 289.604C247.917 289.905 247.538 290.143 247.106 290.318L247.126 290.452C247.619 290.406 248.11 290.486 248.599 290.692C249.093 290.892 249.52 291.218 249.881 291.668C250.242 292.118 250.475 292.692 250.58 293.392C250.687 294.104 250.611 294.771 250.352 295.392C250.091 296.009 249.638 296.533 248.993 296.965C248.347 297.397 247.498 297.692 246.444 297.85L240.87 298.689ZM243.051 296.229L245.734 295.826C246.64 295.689 247.266 295.419 247.613 295.014C247.964 294.603 248.098 294.125 248.016 293.578C247.955 293.17 247.798 292.818 247.547 292.521C247.296 292.219 246.97 292.002 246.57 291.87C246.168 291.733 245.71 291.704 245.195 291.781L242.445 292.195L243.051 296.229ZM242.175 290.4L244.642 290.028C245.073 289.964 245.449 289.827 245.77 289.618C246.091 289.405 246.328 289.138 246.482 288.817C246.639 288.491 246.687 288.126 246.626 287.722C246.546 287.189 246.292 286.778 245.863 286.489C245.439 286.2 244.86 286.111 244.125 286.221L241.603 286.601L242.175 290.4ZM253.314 296.817L251.243 283.047L260.199 281.7L260.514 283.791L254.052 284.763L254.615 288.501L260.612 287.599L260.927 289.69L254.929 290.592L255.494 294.351L262.01 293.371L262.324 295.462L253.314 296.817ZM269.482 294.385L264.815 295.087L262.744 281.317L267.505 280.601C268.872 280.395 270.088 280.495 271.152 280.898C272.221 281.297 273.097 281.97 273.78 282.916C274.463 283.863 274.912 285.052 275.128 286.482C275.343 287.916 275.262 289.189 274.884 290.3C274.51 291.411 273.864 292.317 272.948 293.018C272.036 293.719 270.88 294.175 269.482 294.385ZM266.985 292.554L269.036 292.245C269.995 292.101 270.769 291.806 271.358 291.36C271.945 290.909 272.348 290.31 272.565 289.562C272.782 288.81 272.812 287.907 272.653 286.854C272.495 285.801 272.202 284.951 271.775 284.304C271.347 283.654 270.791 283.203 270.107 282.953C269.427 282.698 268.621 282.64 267.688 282.781L265.563 283.1L266.985 292.554ZM288.95 282.127L286.435 282.505C286.301 282.104 286.114 281.758 285.873 281.469C285.632 281.175 285.351 280.938 285.031 280.757C284.71 280.576 284.358 280.457 283.973 280.4C283.592 280.338 283.192 280.339 282.77 280.402C282.022 280.515 281.386 280.803 280.865 281.266C280.343 281.725 279.972 282.34 279.753 283.111C279.534 283.878 279.502 284.779 279.658 285.814C279.816 286.868 280.114 287.73 280.549 288.403C280.989 289.07 281.523 289.545 282.152 289.826C282.785 290.102 283.474 290.184 284.218 290.072C284.63 290.01 285.007 289.898 285.35 289.737C285.696 289.57 285.996 289.358 286.251 289.099C286.51 288.84 286.714 288.539 286.864 288.196C287.019 287.852 287.104 287.472 287.12 287.057L289.636 286.692C289.641 287.361 289.529 288.006 289.301 288.627C289.078 289.247 288.749 289.815 288.313 290.329C287.876 290.84 287.34 291.269 286.705 291.616C286.069 291.96 285.341 292.193 284.521 292.316C283.31 292.498 282.188 292.38 281.153 291.963C280.119 291.546 279.249 290.849 278.543 289.874C277.837 288.898 277.373 287.671 277.15 286.191C276.927 284.708 277.012 283.398 277.405 282.261C277.797 281.121 278.426 280.198 279.292 279.495C280.158 278.792 281.192 278.35 282.393 278.169C283.16 278.054 283.888 278.055 284.58 278.171C285.271 278.287 285.906 278.514 286.484 278.854C287.061 279.189 287.561 279.631 287.983 280.182C288.409 280.728 288.731 281.376 288.95 282.127Z" fill="#FDF5EC"/>
<rect x="10.8916" y="243.461" width="92.9997" height="31.5033" rx="15.7517" transform="rotate(8.8674 10.8916 243.461)" fill="#45B6A8"/>
<g clip-path="url(#clip1_2587_436491)">
<path fill-rule="evenodd" clip-rule="evenodd" d="M29.3685 253.886C29.4739 253.969 29.5487 254.084 29.581 254.214C29.6133 254.343 29.6012 254.48 29.5467 254.602L27.0784 260.114L32.8074 261.008C32.9227 261.026 33.0301 261.077 33.1166 261.155C33.2031 261.233 33.2648 261.335 33.2942 261.448C33.3236 261.561 33.3194 261.68 33.2821 261.79C33.2448 261.901 33.176 261.998 33.0842 262.07L23.424 269.646C23.3188 269.729 23.1888 269.774 23.0549 269.774C22.9211 269.775 22.791 269.73 22.6856 269.647C22.5801 269.565 22.5054 269.449 22.4733 269.319C22.4413 269.189 22.4537 269.052 22.5087 268.93L24.9769 263.419L19.2478 262.526C19.1326 262.508 19.0252 262.456 18.9387 262.378C18.8522 262.3 18.7905 262.198 18.7611 262.085C18.7317 261.973 18.7359 261.854 18.7732 261.743C18.8105 261.633 18.8793 261.535 18.971 261.464L28.6312 253.887C28.7364 253.805 28.8662 253.76 28.9998 253.76C29.1334 253.76 29.2632 253.804 29.3685 253.886Z" fill="#E3EFDC"/>
</g>
<path d="M41.2496 270.718L43.3962 256.96L52.3447 258.356L52.0187 260.445L45.5626 259.438L44.9799 263.173L50.9724 264.108L50.6464 266.197L44.6539 265.262L44.068 269.018L50.5778 270.033L50.2519 272.123L41.2496 270.718ZM52.7409 272.511L54.8875 258.752L63.836 260.148L63.51 262.238L57.0539 261.231L56.4712 264.966L62.4637 265.901L62.1377 267.99L56.1452 267.055L55.5593 270.811L62.0691 271.826L61.7432 273.916L52.7409 272.511ZM68.8946 275.031L64.2322 274.304L66.3788 260.545L71.1352 261.287C72.5012 261.5 73.6316 261.959 74.5265 262.663C75.4266 263.363 76.0609 264.267 76.4294 265.375C76.7978 266.483 76.8706 267.752 76.6477 269.18C76.4241 270.613 75.9655 271.804 75.2718 272.751C74.5826 273.698 73.6957 274.37 72.611 274.765C71.5307 275.16 70.2919 275.249 68.8946 275.031ZM67.0611 272.536L69.1101 272.856C70.0685 273.005 70.8953 272.955 71.5902 272.706C72.2859 272.452 72.8494 272.001 73.2809 271.353C73.7131 270.7 74.0113 269.847 74.1755 268.795C74.3397 267.742 74.3147 266.844 74.1005 266.099C73.8871 265.35 73.4915 264.754 72.9138 264.31C72.3413 263.863 71.5892 263.567 70.6576 263.422L68.5347 263.091L67.0611 272.536ZM91.1396 269.163L88.627 268.771C88.6197 268.348 88.5445 267.963 88.4015 267.615C88.2592 267.262 88.0622 266.951 87.8105 266.683C87.5588 266.414 87.2581 266.195 86.9083 266.026C86.5637 265.853 86.1809 265.733 85.7599 265.668C85.0119 265.551 84.3197 265.636 83.6833 265.922C83.0475 266.203 82.5099 266.679 82.0705 267.349C81.6318 268.015 81.3317 268.865 81.1703 269.9C81.0061 270.952 81.0312 271.864 81.2456 272.637C81.4653 273.405 81.8331 274.017 82.3491 274.474C82.8702 274.927 83.5025 275.211 84.246 275.327C84.658 275.392 85.0516 275.398 85.4267 275.346C85.8069 275.291 86.1571 275.178 86.4773 275.008C86.802 274.838 87.0873 274.612 87.3332 274.329C87.5837 274.047 87.7784 273.711 87.9175 273.32L90.4279 273.725C90.2319 274.364 89.9324 274.946 89.5294 275.47C89.1309 275.995 88.6467 276.438 88.0766 276.799C87.5072 277.155 86.8673 277.404 86.1571 277.545C85.4476 277.683 84.683 277.687 83.8634 277.559C82.6541 277.371 81.6184 276.922 80.7563 276.214C79.8941 275.506 79.2723 274.581 78.8908 273.439C78.5093 272.297 78.4338 270.987 78.6644 269.509C78.8957 268.026 79.3689 266.802 80.084 265.835C80.7998 264.864 81.6761 264.173 82.7129 263.761C83.7497 263.349 84.8683 263.237 86.0686 263.424C86.8345 263.544 87.5298 263.762 88.1547 264.08C88.7795 264.398 89.3169 264.805 89.767 265.302C90.2178 265.794 90.5621 266.367 90.7999 267.018C91.0428 267.666 91.1561 268.381 91.1396 269.163Z" fill="#ECF8F6"/>
<rect x="116.257" y="171.906" width="91.6321" height="31.5033" rx="15.7517" transform="rotate(-6.14875 116.257 171.906)" fill="#5DADEC"/>
<path fill-rule="evenodd" clip-rule="evenodd" d="M136.805 177.185C136.928 177.237 137.03 177.329 137.095 177.446C137.16 177.563 137.184 177.698 137.163 177.83L136.207 183.793L141.972 183.172C142.088 183.159 142.205 183.181 142.308 183.234C142.412 183.287 142.498 183.37 142.556 183.471C142.613 183.572 142.64 183.688 142.633 183.805C142.625 183.921 142.584 184.033 142.514 184.126L135.147 193.947C135.067 194.054 134.953 194.131 134.824 194.166C134.694 194.201 134.557 194.191 134.434 194.139C134.311 194.087 134.209 193.994 134.144 193.877C134.079 193.76 134.056 193.624 134.077 193.492L135.033 187.53L129.268 188.151C129.152 188.164 129.035 188.142 128.932 188.089C128.828 188.036 128.742 187.953 128.684 187.852C128.627 187.751 128.6 187.635 128.607 187.518C128.615 187.402 128.656 187.29 128.726 187.197L136.093 177.376C136.173 177.269 136.287 177.193 136.416 177.158C136.545 177.123 136.682 177.133 136.805 177.185Z" fill="#BEDEF7"/>
<path d="M156.611 175.934L159.099 175.666L160.148 185.4C160.239 186.293 160.133 187.082 159.828 187.767C159.523 188.447 159.053 188.997 158.419 189.416C157.789 189.831 157.03 190.086 156.142 190.181C155.331 190.269 154.586 190.203 153.905 189.985C153.229 189.761 152.671 189.383 152.231 188.852C151.791 188.32 151.525 187.629 151.433 186.777L153.928 186.508C153.972 186.882 154.088 187.195 154.275 187.449C154.466 187.702 154.712 187.885 155.011 187.998C155.311 188.112 155.645 188.149 156.015 188.109C156.416 188.066 156.747 187.946 157.009 187.749C157.27 187.548 157.454 187.273 157.563 186.923C157.675 186.574 157.708 186.156 157.66 185.668L156.611 175.934ZM163.312 189.217L161.82 175.372L170.825 174.402L171.051 176.505L164.555 177.205L164.959 180.963L170.99 180.314L171.216 182.416L165.186 183.066L165.593 186.845L172.144 186.139L172.37 188.242L163.312 189.217ZM179.567 187.466L174.875 187.972L173.383 174.127L178.17 173.611C179.544 173.463 180.755 173.613 181.802 174.061C182.852 174.504 183.699 175.213 184.342 176.188C184.985 177.162 185.384 178.369 185.539 179.806C185.694 181.249 185.56 182.517 185.135 183.611C184.715 184.705 184.032 185.583 183.087 186.246C182.146 186.908 180.973 187.315 179.567 187.466ZM177.149 185.531L179.211 185.309C180.176 185.205 180.961 184.943 181.568 184.522C182.174 184.097 182.601 183.515 182.85 182.777C183.098 182.034 183.165 181.133 183.051 180.074C182.937 179.015 182.68 178.154 182.28 177.49C181.88 176.822 181.344 176.349 180.671 176.07C180.002 175.787 179.199 175.695 178.261 175.796L176.125 176.027L177.149 185.531ZM199.532 176.035L197.003 176.308C196.887 175.901 196.714 175.548 196.486 175.249C196.257 174.945 195.986 174.696 195.674 174.502C195.361 174.308 195.014 174.174 194.632 174.101C194.254 174.023 193.854 174.007 193.43 174.053C192.677 174.134 192.031 174.395 191.49 174.836C190.949 175.273 190.553 175.872 190.302 176.633C190.051 177.389 189.981 178.288 190.093 179.329C190.208 180.388 190.468 181.263 190.875 181.953C191.287 182.638 191.801 183.135 192.417 183.442C193.038 183.745 193.722 183.855 194.47 183.775C194.885 183.73 195.267 183.634 195.616 183.487C195.969 183.335 196.278 183.136 196.543 182.888C196.812 182.64 197.029 182.348 197.194 182.011C197.363 181.674 197.463 181.298 197.496 180.884L200.026 180.626C200.002 181.294 199.864 181.933 199.611 182.544C199.362 183.154 199.009 183.708 198.552 184.204C198.094 184.695 197.54 185.101 196.891 185.422C196.241 185.738 195.504 185.941 194.679 186.03C193.462 186.161 192.346 185.996 191.33 185.536C190.314 185.075 189.473 184.343 188.809 183.338C188.144 182.334 187.732 181.088 187.572 179.601C187.411 178.109 187.551 176.804 187.991 175.685C188.431 174.562 189.098 173.667 189.993 173.001C190.888 172.334 191.939 171.936 193.147 171.806C193.918 171.723 194.646 171.754 195.332 171.899C196.017 172.044 196.642 172.298 197.205 172.661C197.768 173.02 198.249 173.484 198.648 174.052C199.05 174.615 199.345 175.276 199.532 176.035Z" fill="#EFF7FD"/>
<rect x="121.512" y="211.501" width="84.5838" height="84.5838" rx="42.2919" fill="#FDF5EC"/>
<g clip-path="url(#clip2_2587_436491)">
<rect x="137.684" y="227.673" width="52.243" height="52.243" rx="26.1215" fill="#FDF5EC"/>
<path fill-rule="evenodd" clip-rule="evenodd" d="M167.057 240.852C167.239 240.954 167.382 241.113 167.463 241.305C167.544 241.497 167.558 241.711 167.503 241.912L165.025 250.996H174.066C174.248 250.996 174.426 251.049 174.578 251.149C174.73 251.249 174.849 251.391 174.922 251.558C174.994 251.724 175.016 251.909 174.985 252.088C174.954 252.267 174.872 252.433 174.748 252.566L161.687 266.56C161.545 266.712 161.355 266.813 161.149 266.845C160.943 266.878 160.732 266.84 160.55 266.738C160.367 266.637 160.224 266.477 160.144 266.284C160.063 266.092 160.049 265.878 160.105 265.676L162.582 256.594H153.542C153.36 256.594 153.182 256.541 153.03 256.441C152.878 256.341 152.759 256.199 152.686 256.032C152.614 255.866 152.592 255.681 152.623 255.502C152.654 255.323 152.736 255.157 152.86 255.024L165.921 241.03C166.063 240.878 166.252 240.778 166.458 240.746C166.664 240.713 166.875 240.751 167.057 240.852Z" fill="#F2AB6A"/>
<rect x="137.684" y="227.673" width="52.243" height="52.243" rx="26.1215" fill="#FAE0C7"/>
<path fill-rule="evenodd" clip-rule="evenodd" d="M167.057 240.852C167.239 240.954 167.382 241.113 167.463 241.305C167.544 241.497 167.558 241.711 167.503 241.912L165.025 250.996H174.066C174.248 250.996 174.426 251.049 174.578 251.149C174.73 251.249 174.849 251.391 174.922 251.558C174.994 251.724 175.016 251.909 174.985 252.088C174.954 252.267 174.872 252.433 174.748 252.566L161.687 266.56C161.545 266.712 161.355 266.813 161.149 266.845C160.943 266.878 160.732 266.84 160.55 266.738C160.367 266.637 160.224 266.477 160.144 266.284C160.063 266.092 160.049 265.878 160.105 265.676L162.582 256.594H153.542C153.36 256.594 153.182 256.541 153.03 256.441C152.878 256.341 152.759 256.199 152.686 256.032C152.614 255.866 152.592 255.681 152.623 255.502C152.654 255.323 152.736 255.157 152.86 255.024L165.921 241.03C166.063 240.878 166.252 240.778 166.458 240.746C166.664 240.713 166.875 240.751 167.057 240.852Z" fill="#F2AB6A"/>
</g>
<g clip-path="url(#clip3_2587_436491)">
<rect x="11.6699" y="87.8081" width="337.504" height="90.3743" rx="15.9955" transform="rotate(-14.9603 11.6699 87.8081)" fill="white"/>
<g clip-path="url(#clip4_2587_436491)">
<path d="M73.7017 144.912C87.5704 141.206 95.8091 126.959 92.1033 113.09C88.3975 99.2213 74.1505 90.9827 60.2818 94.6885C46.413 98.3943 38.1743 112.641 41.8801 126.51C45.5859 140.379 59.8329 148.617 73.7017 144.912Z" fill="#EFF7FD"/>
<mask id="mask0_2587_436491" style="mask-type:alpha" maskUnits="userSpaceOnUse" x="50" y="103" width="34" height="34">
<rect x="50.3694" y="110.188" width="27.1558" height="27.1558" transform="rotate(-14.9603 50.3694 110.188)" fill="#D9D9D9"/>
</mask>
<g mask="url(#mask0_2587_436491)">
<path d="M61.9687 131.682C61.3675 131.842 60.7955 131.766 60.2527 131.453C59.7104 131.138 59.3589 130.681 59.1983 130.079L58.0299 125.707C57.8692 125.106 57.9455 124.534 58.2588 123.991C58.573 123.449 59.0307 123.097 59.632 122.936L70.5634 120.016L69.6871 116.736C69.6043 116.426 69.6399 116.139 69.7937 115.873C69.9469 115.608 70.1784 115.434 70.4881 115.351C70.7979 115.268 71.0852 115.303 71.3503 115.457C71.6162 115.61 71.7906 115.842 71.8734 116.152L72.7496 119.431L74.9359 118.847C75.5372 118.686 76.1092 118.763 76.652 119.076C77.1943 119.39 77.5457 119.848 77.7064 120.449L78.8748 124.822C79.0354 125.423 78.9591 125.995 78.6458 126.538C78.3316 127.08 77.8739 127.432 77.2727 127.592L61.9687 131.682ZM64.0798 126.433C63.997 126.123 63.8231 125.892 63.5581 125.738C63.2921 125.584 63.0043 125.549 62.6945 125.632C62.3848 125.714 62.153 125.889 61.9992 126.155C61.846 126.42 61.8107 126.707 61.8935 127.017C61.9762 127.327 62.1501 127.558 62.4152 127.711C62.6812 127.865 62.969 127.901 63.2787 127.818C63.5884 127.735 63.8202 127.561 63.974 127.295C64.1273 127.03 64.1625 126.742 64.0798 126.433ZM67.9058 125.41C67.823 125.101 67.6491 124.869 67.3841 124.716C67.1181 124.562 66.8302 124.527 66.5205 124.609C66.2108 124.692 65.9794 124.866 65.8263 125.132C65.6723 125.397 65.6367 125.685 65.7195 125.995C65.8022 126.304 65.9765 126.536 66.2423 126.689C66.5075 126.843 66.795 126.878 67.1047 126.796C67.4144 126.713 67.6462 126.539 67.8 126.273C67.9533 126.007 67.9885 125.72 67.9058 125.41ZM70.9307 125.773C71.2404 125.691 71.4722 125.516 71.626 125.25C71.7792 124.985 71.8145 124.698 71.7317 124.388C71.649 124.078 71.4751 123.847 71.21 123.694C70.9441 123.54 70.6562 123.504 70.3465 123.587C70.0368 123.67 69.8054 123.844 69.6523 124.11C69.4983 124.375 69.4627 124.663 69.5455 124.972C69.6282 125.282 69.8025 125.513 70.0683 125.666C70.3335 125.82 70.621 125.856 70.9307 125.773ZM67.3518 114.461C67.0747 114.301 66.8996 114.065 66.8263 113.753C66.7523 113.441 66.8233 113.178 67.0394 112.964C67.3587 112.625 67.7247 112.332 68.1374 112.085C68.5493 111.838 68.9921 111.651 69.4658 111.525C69.9395 111.398 70.4168 111.339 70.8976 111.347C71.3776 111.356 71.8406 111.427 72.2865 111.562C72.5805 111.639 72.7767 111.826 72.8752 112.121C72.9738 112.417 72.9364 112.715 72.7628 113.016C72.616 113.27 72.3914 113.452 72.089 113.562C71.7865 113.672 71.4518 113.698 71.0849 113.64C70.9197 113.606 70.7514 113.597 70.58 113.613C70.4089 113.63 70.2322 113.662 70.05 113.711C69.8678 113.76 69.6983 113.82 69.5416 113.89C69.385 113.962 69.2436 114.054 69.1173 114.165C68.8283 114.399 68.5253 114.543 68.2084 114.599C67.8913 114.654 67.6057 114.608 67.3518 114.461ZM63.9233 112.479C63.6463 112.319 63.4688 112.093 63.3909 111.801C63.313 111.51 63.3682 111.241 63.5563 110.996C64.1475 110.213 64.8548 109.536 65.6781 108.965C66.5014 108.393 67.4232 107.971 68.4435 107.699C69.4637 107.426 70.4732 107.332 71.4717 107.417C72.4703 107.501 73.421 107.735 74.3238 108.119C74.6093 108.238 74.791 108.443 74.8689 108.734C74.9468 109.026 74.9056 109.31 74.7454 109.587C74.5985 109.841 74.3774 110.017 74.082 110.116C73.7859 110.214 73.486 110.207 73.1823 110.093C72.5335 109.856 71.8566 109.715 71.1518 109.669C70.4463 109.623 69.7382 109.695 69.0277 109.885C68.3171 110.075 67.6675 110.366 67.0788 110.757C66.4908 111.149 65.9746 111.609 65.5303 112.137C65.3239 112.388 65.0682 112.544 64.763 112.606C64.4572 112.668 64.1773 112.626 63.9233 112.479Z" fill="#5DADEC"/>
</g>
</g>
<path d="M111.149 89.9368L113.852 100.052L112.32 100.461L110.027 91.877L109.968 91.8928L107.97 94.1199L107.579 92.658L109.662 90.334L111.149 89.9368ZM117.722 88.1803L120.425 98.2952L118.894 98.7043L116.601 90.1204L116.541 90.1363L114.543 92.3634L114.153 90.9015L116.236 88.5775L117.722 88.1803ZM123.502 97.473L125.584 87.5612L125.564 87.4871L120.458 88.8517L120.108 87.5429L126.795 85.756L127.157 87.1092L125.097 97.0467L123.502 97.473ZM134.566 94.6647C134.114 94.7786 133.647 94.8151 133.167 94.7741C132.69 94.7322 132.225 94.5743 131.77 94.3006C131.316 94.0268 130.899 93.6074 130.519 93.0423C130.142 92.4763 129.829 91.7274 129.58 90.7956C129.344 89.9132 129.222 89.1062 129.213 88.3747C129.208 87.6423 129.309 86.9963 129.516 86.4366C129.722 85.8736 130.027 85.4057 130.432 85.033C130.837 84.6602 131.332 84.3955 131.918 84.2389C132.521 84.0779 133.087 84.0535 133.618 84.1656C134.149 84.2778 134.615 84.5042 135.017 84.8449C135.422 85.1848 135.735 85.6109 135.956 86.1231L134.45 86.5257C134.235 86.1315 133.941 85.8415 133.567 85.6558C133.193 85.47 132.762 85.4422 132.275 85.5724C131.534 85.7704 131.042 86.2475 130.8 87.0037C130.56 87.759 130.593 88.7117 130.897 89.8617L130.971 89.8419C131.069 89.5088 131.218 89.2079 131.417 88.9393C131.62 88.6666 131.864 88.4336 132.151 88.2405C132.441 88.0432 132.762 87.8975 133.114 87.8034C133.7 87.6468 134.269 87.6484 134.819 87.8081C135.372 87.9637 135.857 88.2539 136.274 88.6787C136.691 89.1035 136.986 89.6386 137.158 90.284C137.331 90.9293 137.34 91.5529 137.187 92.1547C137.037 92.7557 136.74 93.2796 136.295 93.7266C135.849 94.1703 135.273 94.483 134.566 94.6647ZM134.218 93.3819C134.607 93.2781 134.929 93.0898 135.184 92.817C135.439 92.5442 135.613 92.2227 135.704 91.8525C135.796 91.4823 135.788 91.098 135.682 90.6996C135.578 90.3111 135.396 89.9805 135.136 89.7077C134.88 89.4341 134.575 89.2439 134.222 89.1372C133.872 89.0295 133.505 89.0272 133.119 89.1301C132.826 89.2084 132.57 89.337 132.349 89.5158C132.132 89.6937 131.956 89.9066 131.821 90.1543C131.687 90.402 131.599 90.6688 131.559 90.9546C131.521 91.2363 131.54 91.5187 131.616 91.8019C131.717 92.1805 131.898 92.5079 132.159 92.7839C132.423 93.0591 132.734 93.2545 133.093 93.3703C133.455 93.4818 133.83 93.4857 134.218 93.3819ZM143.216 92.3536C142.597 92.519 142.009 92.5491 141.451 92.444C140.897 92.3348 140.417 92.1102 140.012 91.7703C139.607 91.4305 139.323 90.9948 139.16 90.4634L140.642 90.0675C140.794 90.4925 141.082 90.7982 141.506 90.9848C141.93 91.1715 142.385 91.1997 142.873 91.0694C143.261 90.9656 143.581 90.7848 143.834 90.5269C144.088 90.2649 144.259 89.953 144.345 89.5911C144.436 89.2284 144.426 88.8445 144.318 88.4396C144.208 88.028 144.021 87.6846 143.757 87.4094C143.493 87.1343 143.18 86.9463 142.818 86.8455C142.459 86.7438 142.079 86.745 141.676 86.849C141.37 86.9308 141.076 87.0658 140.795 87.2539C140.513 87.4419 140.3 87.6471 140.155 87.8693L138.702 88.0354L137.908 82.7866L143.469 81.3007L143.819 82.6095L139.527 83.7563L139.962 86.6721L140.021 86.6562C140.168 86.4125 140.387 86.1828 140.678 85.9673C140.973 85.7509 141.309 85.5926 141.684 85.4923C142.3 85.3278 142.887 85.3278 143.446 85.4924C144.008 85.6561 144.496 85.9545 144.908 86.3877C145.322 86.8167 145.615 87.3592 145.787 88.0153C145.965 88.6697 145.973 89.2937 145.811 89.8874C145.652 90.4802 145.349 90.9952 144.901 91.4323C144.456 91.8652 143.894 92.1723 143.216 92.3536ZM147.724 88.884L147.394 87.6493L149.92 79.5768L150.893 79.3168L151.379 81.1343L150.762 81.2993L148.958 87.0834L148.979 87.1625L154.97 85.5617L155.315 86.8557L147.724 88.884ZM153.048 89.5782L152.42 87.2273L152.279 86.6616L150.355 79.4607L151.802 79.074L154.505 89.1889L153.048 89.5782ZM161.123 87.5686C160.445 87.7499 159.808 87.7949 159.212 87.7036C158.619 87.6115 158.113 87.3994 157.692 87.0672C157.274 86.7309 156.98 86.2908 156.81 85.7471L158.361 85.3327C158.461 85.6271 158.631 85.8604 158.871 86.0326C159.113 86.2006 159.399 86.3043 159.727 86.3437C160.055 86.383 160.4 86.3543 160.762 86.2575C161.16 86.1511 161.494 85.9878 161.764 85.7677C162.036 85.5467 162.227 85.2894 162.335 84.9958C162.443 84.699 162.453 84.3875 162.366 84.0616C162.275 83.7224 162.108 83.4478 161.865 83.2376C161.625 83.0232 161.318 82.8864 160.946 82.8271C160.577 82.7669 160.159 82.7993 159.691 82.9242L158.837 83.1525L158.504 81.9079L159.359 81.6796C159.734 81.5793 160.045 81.4238 160.293 81.2131C160.543 81.0016 160.717 80.7541 160.814 80.4706C160.91 80.1839 160.915 79.8775 160.827 79.5515C160.744 79.2387 160.601 78.986 160.397 78.7934C160.197 78.5965 159.95 78.4666 159.658 78.4035C159.369 78.3396 159.052 78.3538 158.707 78.4461C158.377 78.5341 158.086 78.6773 157.832 78.8757C157.58 79.0699 157.396 79.3027 157.278 79.5741C157.159 79.8422 157.134 80.1328 157.204 80.4458L155.727 80.8404C155.597 80.2894 155.63 79.7656 155.826 79.2689C156.024 78.7713 156.346 78.3379 156.79 77.9686C157.235 77.5994 157.767 77.332 158.386 77.1666C159.034 76.9933 159.628 76.9705 160.167 77.0982C160.708 77.2218 161.162 77.4583 161.531 77.8078C161.903 78.1565 162.154 78.5799 162.283 79.0779C162.438 79.6434 162.408 80.1663 162.194 80.6468C161.984 81.1263 161.633 81.504 161.142 81.7798L161.164 81.8588C161.863 81.7814 162.454 81.9091 162.938 82.2419C163.425 82.5738 163.753 83.0596 163.92 83.6992C164.072 84.2548 164.051 84.795 163.856 85.3198C163.664 85.8437 163.334 86.3041 162.865 86.701C162.395 87.0947 161.814 87.3839 161.123 87.5686ZM166.529 85.976L166.233 84.8697L168.708 80.409C168.971 79.9261 169.182 79.5081 169.341 79.155C169.504 78.7978 169.609 78.4716 169.657 78.1765C169.705 77.8814 169.689 77.5857 169.61 77.2894C169.52 76.9536 169.364 76.6849 169.141 76.4835C168.917 76.2788 168.651 76.1471 168.342 76.0884C168.033 76.0264 167.707 76.0412 167.364 76.1327C167.002 76.2295 166.706 76.388 166.476 76.6083C166.245 76.8286 166.094 77.0932 166.021 77.4019C165.948 77.7106 165.96 78.046 166.057 78.4082L164.6 78.7975C164.435 78.1818 164.433 77.6056 164.593 77.069C164.753 76.5324 165.046 76.0713 165.472 75.6858C165.898 75.297 166.425 75.0186 167.054 74.8505C167.689 74.6807 168.283 74.6579 168.834 74.7821C169.389 74.9022 169.86 75.143 170.25 75.5046C170.638 75.8629 170.905 76.3137 171.05 76.857C171.151 77.2323 171.178 77.6184 171.132 78.0151C171.09 78.4109 170.955 78.8756 170.727 79.4092C170.498 79.9395 170.16 80.5997 169.711 81.3899L168.263 84.0309L168.283 84.105L172.837 82.8883L173.186 84.1971L166.529 85.976ZM178.513 82.922C177.805 83.1111 177.147 83.1565 176.538 83.058C175.933 82.9586 175.42 82.7358 175 82.3896C174.579 82.0434 174.298 81.5965 174.155 81.0491C174.037 80.6219 174.019 80.2052 174.101 79.7987C174.186 79.3882 174.35 79.0214 174.596 78.6983C174.84 78.3719 175.144 78.1248 175.509 77.9569L175.493 77.8976C174.957 77.9104 174.481 77.7482 174.066 77.411C173.652 77.0738 173.374 76.6331 173.232 76.0889C173.09 75.5728 173.104 75.0754 173.272 74.5965C173.443 74.1134 173.741 73.6899 174.165 73.3259C174.59 72.9619 175.114 72.6968 175.736 72.5305C176.352 72.366 176.933 72.3376 177.481 72.4453C178.031 72.5489 178.5 72.7674 178.889 73.1009C179.277 73.4311 179.541 73.8526 179.682 74.3654C179.824 74.9095 179.797 75.4316 179.603 75.9316C179.408 76.4316 179.082 76.808 178.624 77.0609L178.64 77.1202C179.036 77.0849 179.418 77.1486 179.786 77.3113C180.157 77.4698 180.481 77.706 180.759 78.0198C181.039 78.3294 181.238 78.6978 181.356 79.125C181.499 79.6724 181.474 80.2011 181.282 80.7109C181.09 81.2208 180.755 81.6701 180.277 82.0589C179.802 82.4469 179.214 82.7346 178.513 82.922ZM178.179 81.6724C178.597 81.5607 178.941 81.3948 179.21 81.1746C179.478 80.9512 179.663 80.692 179.764 80.3969C179.864 80.0985 179.871 79.7793 179.784 79.4392C179.686 79.0878 179.511 78.8013 179.258 78.5797C179.008 78.3572 178.709 78.2095 178.361 78.1366C178.014 78.0636 177.642 78.08 177.247 78.1855C176.849 78.292 176.516 78.464 176.247 78.7014C175.979 78.9389 175.792 79.2163 175.687 79.5338C175.581 79.8513 175.577 80.1858 175.674 80.5372C175.762 80.8773 175.922 81.152 176.154 81.3616C176.389 81.567 176.68 81.6991 177.027 81.758C177.374 81.8135 177.757 81.785 178.179 81.6724ZM176.921 76.9656C177.257 76.8759 177.537 76.7288 177.761 76.5243C177.985 76.3198 178.139 76.0775 178.223 75.7976C178.31 75.5168 178.312 75.2146 178.23 74.891C178.142 74.5758 177.992 74.3195 177.781 74.122C177.572 73.9236 177.321 73.795 177.027 73.7361C176.731 73.6739 176.412 73.6885 176.07 73.78C175.721 73.8733 175.432 74.021 175.204 74.2231C174.978 74.421 174.825 74.6578 174.743 74.9336C174.662 75.2094 174.665 75.5049 174.753 75.8201C174.835 76.1436 174.983 76.4058 175.196 76.6066C175.408 76.8073 175.662 76.9405 175.958 77.006C176.258 77.0706 176.579 77.0571 176.921 76.9656Z" fill="black"/>
<path d="M284.371 47.1114C284.218 46.8666 284.04 46.6583 283.839 46.4863C283.64 46.3101 283.42 46.1731 283.179 46.0753C282.941 45.9766 282.683 45.9237 282.406 45.9166C282.128 45.9062 281.838 45.9415 281.535 46.0225C280.992 46.1676 280.544 46.4336 280.193 46.8204C279.841 47.2072 279.614 47.6982 279.512 48.2934C279.412 48.8844 279.464 49.5586 279.666 50.3159C279.87 51.0798 280.163 51.6946 280.545 52.1605C280.927 52.6264 281.369 52.9405 281.871 53.1027C282.372 53.2616 282.906 53.2654 283.472 53.114C283.986 52.9768 284.404 52.7592 284.727 52.4614C285.052 52.1627 285.269 51.8049 285.376 51.3882C285.483 50.9682 285.471 50.5128 285.339 50.0222L285.772 49.9756L283.025 50.7094L282.643 49.2771L286.747 48.1804L287.072 49.3954C287.303 50.2613 287.319 51.0597 287.119 51.7904C286.919 52.5211 286.542 53.1439 285.988 53.6588C285.434 54.1703 284.738 54.5379 283.902 54.7613C282.97 55.0103 282.096 55.0199 281.28 54.79C280.466 54.5559 279.758 54.1048 279.156 53.4366C278.556 52.7643 278.114 51.8947 277.829 50.8279C277.611 50.0113 277.531 49.2512 277.59 48.5476C277.652 47.843 277.833 47.211 278.131 46.6515C278.429 46.0887 278.828 45.6151 279.329 45.2309C279.828 44.8434 280.409 44.5612 281.071 44.3844C281.631 44.2348 282.174 44.1777 282.702 44.213C283.23 44.245 283.721 44.3607 284.176 44.56C284.635 44.7584 285.041 45.0309 285.395 45.3774C285.748 45.7238 286.03 46.1356 286.238 46.6125L284.371 47.1114ZM293.203 52.2865C292.462 52.4845 291.777 52.4931 291.146 52.3123C290.516 52.1315 289.973 51.7881 289.516 51.282C289.064 50.7751 288.732 50.1299 288.523 49.3462C288.314 48.5626 288.278 47.8365 288.417 47.1679C288.559 46.4985 288.858 45.9282 289.315 45.4571C289.771 44.9859 290.369 44.6514 291.11 44.4534C291.851 44.2555 292.537 44.2469 293.167 44.4277C293.797 44.6085 294.339 44.954 294.793 45.4642C295.25 45.9735 295.584 46.62 295.793 47.4036C296.002 48.1873 296.036 48.9122 295.893 49.5783C295.753 50.2436 295.455 50.8118 294.999 51.2829C294.543 51.754 293.944 52.0886 293.203 52.2865ZM292.83 50.8516C293.232 50.7443 293.538 50.5442 293.749 50.2515C293.96 49.9555 294.08 49.6022 294.112 49.1916C294.147 48.7802 294.102 48.344 293.979 47.883C293.855 47.4188 293.675 47.017 293.44 46.6777C293.207 46.3342 292.926 46.0866 292.596 45.9349C292.266 45.7831 291.9 45.7609 291.499 45.8683C291.087 45.9782 290.775 46.1817 290.561 46.4786C290.351 46.7746 290.229 47.13 290.195 47.5447C290.164 47.9553 290.21 48.3927 290.334 48.857C290.457 49.3179 290.635 49.7185 290.867 50.0587C291.102 50.3979 291.385 50.6435 291.715 50.7952C292.047 50.9428 292.419 50.9616 292.83 50.8516ZM295.101 42.4292L294.691 40.8932L302.761 38.7368L303.172 40.2728L300.045 41.1081L302.338 49.687L300.52 50.1727L298.228 41.5938L295.101 42.4292ZM305.67 37.9595L310.43 45.2176L310.534 45.1899L311.034 36.5263L313.049 35.9878L312.186 47.0555L309.924 47.66L303.66 38.4966L305.67 37.9595Z" fill="#8D8D8D"/>
<path d="M124.637 115.196L124.921 116.261L114.061 119.163L113.776 118.098L124.637 115.196ZM125.251 117.496L125.536 118.56L114.675 121.462L114.391 120.398L125.251 117.496ZM122.705 111.446L125.618 122.349L123.627 122.881L117.056 117.284L116.97 117.307L118.804 124.169L116.504 124.784L113.591 113.881L115.608 113.342L122.152 118.94L122.243 118.916L120.41 112.059L122.705 111.446ZM131.638 120.9C130.886 121.101 130.178 121.142 129.515 121.022C128.855 120.902 128.288 120.645 127.814 120.25C127.34 119.856 127.012 119.347 126.83 118.722L129.066 118.125C129.203 118.541 129.472 118.836 129.873 119.01C130.273 119.185 130.7 119.211 131.154 119.09C131.516 118.993 131.815 118.828 132.049 118.594C132.285 118.356 132.443 118.072 132.523 117.743C132.605 117.409 132.595 117.054 132.495 116.678C132.393 116.295 132.221 115.979 131.98 115.732C131.742 115.484 131.46 115.316 131.132 115.228C130.805 115.141 130.458 115.144 130.091 115.238C129.772 115.324 129.479 115.472 129.212 115.684C128.949 115.895 128.765 116.137 128.658 116.408L126.511 116.589L125.491 110.701L132.156 108.92L132.66 110.805L127.895 112.078L128.342 114.884L128.406 114.867C128.526 114.546 128.755 114.246 129.095 113.965C129.434 113.684 129.844 113.479 130.323 113.351C130.979 113.176 131.606 113.174 132.203 113.345C132.8 113.516 133.32 113.832 133.762 114.292C134.204 114.748 134.516 115.326 134.699 116.026C134.899 116.76 134.903 117.459 134.712 118.122C134.523 118.781 134.165 119.356 133.638 119.846C133.114 120.332 132.447 120.684 131.638 120.9ZM141.618 118.33C140.701 118.571 139.853 118.556 139.073 118.286C138.297 118.014 137.618 117.501 137.037 116.748C136.459 115.993 136.012 115.02 135.697 113.826C135.379 112.637 135.284 111.577 135.412 110.645C135.543 109.713 135.878 108.941 136.418 108.329C136.961 107.712 137.688 107.282 138.6 107.038C139.513 106.795 140.356 106.805 141.13 107.07C141.908 107.334 142.586 107.837 143.165 108.58C143.742 109.319 144.188 110.283 144.503 111.473C144.822 112.669 144.918 113.739 144.79 114.682C144.665 115.624 144.334 116.406 143.797 117.029C143.26 117.652 142.533 118.085 141.618 118.33ZM141.107 116.419C141.732 116.252 142.146 115.805 142.351 115.077C142.556 114.349 142.489 113.357 142.149 112.102C141.928 111.275 141.659 110.609 141.342 110.105C141.028 109.599 140.68 109.249 140.297 109.055C139.918 108.86 139.521 108.817 139.105 108.928C138.484 109.094 138.07 109.538 137.864 110.258C137.657 110.979 137.717 111.959 138.045 113.199C138.269 114.036 138.539 114.713 138.856 115.229C139.175 115.741 139.526 116.096 139.91 116.294C140.293 116.488 140.692 116.53 141.107 116.419ZM151.939 115.572C151.022 115.813 150.174 115.798 149.395 115.528C148.619 115.256 147.94 114.743 147.358 113.99C146.78 113.236 146.334 112.262 146.018 111.068C145.701 109.879 145.606 108.819 145.733 107.887C145.864 106.955 146.2 106.183 146.74 105.571C147.282 104.954 148.01 104.524 148.922 104.281C149.834 104.037 150.677 104.047 151.451 104.312C152.229 104.576 152.907 105.079 153.486 105.822C154.064 106.561 154.51 107.525 154.824 108.715C155.144 109.911 155.239 110.981 155.111 111.924C154.986 112.866 154.655 113.649 154.118 114.271C153.581 114.894 152.855 115.327 151.939 115.572ZM151.428 113.661C152.053 113.494 152.468 113.047 152.673 112.319C152.877 111.591 152.81 110.6 152.471 109.344C152.25 108.517 151.981 107.851 151.663 107.347C151.35 106.841 151.001 106.491 150.619 106.297C150.239 106.102 149.842 106.059 149.427 106.17C148.806 106.336 148.392 106.78 148.185 107.5C147.978 108.221 148.039 109.201 148.366 110.441C148.59 111.278 148.86 111.955 149.177 112.472C149.496 112.983 149.848 113.338 150.231 113.536C150.614 113.73 151.013 113.772 151.428 113.661ZM162.26 112.814C161.344 113.055 160.496 113.041 159.716 112.77C158.94 112.498 158.261 111.985 157.68 111.232C157.102 110.478 156.655 109.504 156.34 108.31C156.022 107.121 155.927 106.061 156.055 105.13C156.186 104.197 156.521 103.425 157.061 102.813C157.604 102.196 158.331 101.766 159.243 101.523C160.155 101.279 160.999 101.289 161.773 101.554C162.55 101.818 163.229 102.321 163.807 103.064C164.385 103.803 164.831 104.767 165.145 105.957C165.465 107.153 165.561 108.223 165.432 109.166C165.308 110.108 164.977 110.891 164.44 111.513C163.902 112.136 163.176 112.57 162.26 112.814ZM161.75 110.903C162.374 110.736 162.789 110.289 162.994 109.561C163.199 108.833 163.131 107.842 162.792 106.586C162.571 105.759 162.302 105.093 161.985 104.589C161.671 104.083 161.323 103.733 160.94 103.539C160.561 103.344 160.163 103.302 159.748 103.413C159.127 103.578 158.713 104.022 158.507 104.742C158.3 105.463 158.36 106.443 158.688 107.683C158.911 108.521 159.182 109.197 159.498 109.714C159.818 110.225 160.169 110.58 160.553 110.778C160.935 110.972 161.334 111.014 161.75 110.903Z" fill="#73B051"/>
<rect x="274.14" y="65.7083" width="45.6382" height="21.7588" rx="10.8794" transform="rotate(-14.9603 274.14 65.7083)" fill="#45B6A8"/>
<path d="M285.451 69.3264L286.92 68.9338L288.457 74.6834C288.595 75.2112 288.604 75.6949 288.485 76.1346C288.365 76.5716 288.134 76.9456 287.792 77.2566C287.453 77.5641 287.02 77.788 286.496 77.9281C286.017 78.0561 285.563 78.0862 285.134 78.0182C284.707 77.9469 284.337 77.7721 284.023 77.4938C283.709 77.2155 283.485 76.8248 283.35 76.3217L284.824 75.928C284.885 76.1482 284.984 76.3257 285.12 76.4606C285.258 76.5947 285.423 76.6819 285.613 76.7223C285.804 76.7626 286.008 76.7537 286.227 76.6953C286.463 76.632 286.651 76.5291 286.79 76.3865C286.928 76.2413 287.013 76.0588 287.046 75.839C287.081 75.6186 287.062 75.3643 286.987 75.0761L285.451 69.3264ZM290.009 68.1086L292.194 76.2858L290.712 76.6816L288.527 68.5044L290.009 68.1086ZM298.333 65.8844L300.518 74.0616L299.2 74.4137L293.859 69.8733L293.791 69.8914L295.279 75.4614L293.798 75.8572L291.613 67.6799L292.939 67.3257L298.277 71.8712L298.349 71.852L296.859 66.278L298.333 65.8844ZM303.173 64.591L304.642 64.1984L306.179 69.948C306.317 70.4758 306.326 70.9595 306.207 71.3992C306.087 71.8362 305.856 72.2102 305.514 72.5211C305.175 72.8287 304.742 73.0525 304.218 73.1927C303.739 73.3207 303.285 73.3507 302.856 73.2828C302.429 73.2115 302.059 73.0367 301.745 72.7584C301.431 72.48 301.207 72.0893 301.072 71.5863L302.546 71.1926C302.607 71.4128 302.706 71.5903 302.842 71.7251C302.981 71.8592 303.145 71.9465 303.335 71.9868C303.526 72.0272 303.73 72.0182 303.949 71.9599C304.185 71.8966 304.373 71.7937 304.512 71.6511C304.65 71.5058 304.735 71.3233 304.768 71.1036C304.803 70.8831 304.784 70.6288 304.709 70.3406L303.173 64.591ZM309.485 71.6656L307.903 72.0881L308.597 63.1416L310.426 62.653L315.494 70.0599L313.913 70.4824L309.992 64.5657L309.928 64.5828L309.485 71.6656ZM308.68 68.4455L312.992 67.2933L313.31 68.4831L308.998 69.6354L308.68 68.4455Z" fill="#ECF8F6"/>
</g>
<rect x="12.1595" y="88.0912" width="336.704" height="89.5745" rx="15.5956" transform="rotate(-14.9603 12.1595 88.0912)" stroke="#E5ECF5" stroke-width="0.799773"/>
<defs>
<linearGradient id="paint0_linear_2587_436491" x1="163.5" y1="231.104" x2="163.5" y2="278.157" gradientUnits="userSpaceOnUse">
<stop stop-color="#EF9645"/>
<stop offset="1" stop-color="#F9D5B5"/>
</linearGradient>
<linearGradient id="paint1_linear_2587_436491" x1="163.5" y1="177.399" x2="163.5" y2="331.867" gradientUnits="userSpaceOnUse">
<stop stop-color="#209DFF"/>
<stop offset="0.671878" stop-color="white"/>
</linearGradient>
<linearGradient id="paint2_linear_2587_436491" x1="163.504" y1="128.998" x2="163.504" y2="380.267" gradientUnits="userSpaceOnUse">
<stop stop-color="#209DFF"/>
<stop offset="0.671878" stop-color="white"/>
</linearGradient>
<linearGradient id="paint3_linear_2587_436491" x1="163.5" y1="92.1177" x2="163.5" y2="417.146" gradientUnits="userSpaceOnUse">
<stop stop-color="#209DFF"/>
<stop offset="0.671878" stop-color="white"/>
</linearGradient>
<clipPath id="clip0_2587_436491">
<rect width="19.147" height="19.147" fill="white" transform="translate(207.582 287.441) rotate(-8.55315)"/>
</clipPath>
<clipPath id="clip1_2587_436491">
<rect width="19.147" height="19.147" fill="white" transform="translate(18.0469 250.831) rotate(8.8674)"/>
</clipPath>
<clipPath id="clip2_2587_436491">
<rect x="137.684" y="227.673" width="52.243" height="52.243" rx="26.1215" fill="white"/>
</clipPath>
<clipPath id="clip3_2587_436491">
<rect x="11.6699" y="87.8081" width="337.504" height="90.3743" rx="15.9955" transform="rotate(-14.9603 11.6699 87.8081)" fill="white"/>
</clipPath>
<clipPath id="clip4_2587_436491">
<rect width="51.9852" height="51.9852" fill="white" transform="translate(35.1699 101.395) rotate(-14.9603)"/>
</clipPath>
</defs>
</svg>
