<svg width="386" height="185" viewBox="0 0 386 185" fill="none" xmlns="http://www.w3.org/2000/svg">
<g clip-path="url(#clip0_2587_436490)">
<rect x="68.3862" y="101.645" width="310.496" height="83.1422" rx="14.7154" transform="rotate(-6 68.3862 101.645)" fill="white"/>
<g clip-path="url(#clip1_2587_436490)">
<path d="M116.573 162.427C129.707 161.047 139.236 149.28 137.855 136.146C136.475 123.012 124.708 113.484 111.574 114.864C98.4399 116.245 88.9116 128.011 90.292 141.145C91.6725 154.28 103.439 163.808 116.573 162.427Z" fill="#FEBB01"/>
<g clip-path="url(#clip2_2587_436490)">
<path d="M113.991 132.934C105.703 133.805 99.3134 137.647 99.72 141.515C100.126 145.383 107.175 147.812 115.463 146.941C123.751 146.07 130.141 142.228 129.734 138.36C129.328 134.492 122.279 132.063 113.991 132.934ZM115.347 145.835C107.713 146.637 101.247 144.647 100.905 141.39C100.562 138.133 106.473 134.842 114.107 134.04C121.741 133.237 128.207 135.227 128.55 138.485C128.892 141.742 122.981 145.033 115.347 145.835ZM112.705 138.908L112.589 137.802L116.823 137.357L116.939 138.463L115.415 138.623L115.789 142.186L114.604 142.311L114.23 138.748L112.705 138.908ZM121.933 136.82L122.424 141.489L121.239 141.613L118.799 139.06L119.091 141.839L117.906 141.964L117.415 137.295L118.6 137.17L121.041 139.724L120.749 136.944L121.933 136.82ZM107.486 143.059L106.995 138.39L108.18 138.265L109.694 140.017L110.812 137.989L111.996 137.864L112.487 142.533L111.303 142.658L111.025 140.017L110.262 141.4L109.427 141.488L108.393 140.293L108.67 142.934L107.486 143.059Z" fill="black"/>
</g>
</g>
<path d="M159.139 126.987C158.4 127.062 157.748 126.933 157.184 126.602C156.619 126.27 156.159 125.749 155.804 125.04C155.449 124.33 155.216 123.454 155.107 122.413C154.998 121.374 155.043 120.472 155.244 119.707C155.447 118.942 155.79 118.338 156.273 117.897C156.76 117.455 157.369 117.195 158.102 117.118C158.835 117.041 159.484 117.17 160.048 117.505C160.613 117.836 161.073 118.355 161.427 119.062C161.785 119.765 162.019 120.636 162.128 121.675C162.237 122.719 162.192 123.626 161.993 124.394C161.792 125.159 161.451 125.764 160.968 126.209C160.485 126.65 159.875 126.91 159.139 126.987ZM159.008 125.738C159.657 125.67 160.13 125.3 160.428 124.629C160.73 123.957 160.818 123.023 160.692 121.826C160.608 121.03 160.453 120.367 160.227 119.836C160.004 119.302 159.722 118.909 159.38 118.658C159.041 118.403 158.658 118.299 158.231 118.344C157.585 118.411 157.112 118.783 156.811 119.458C156.51 120.132 156.421 121.067 156.543 122.262C156.627 123.06 156.78 123.726 157.004 124.261C157.23 124.792 157.512 125.183 157.851 125.434C158.189 125.683 158.575 125.784 159.008 125.738ZM167.54 126.076C166.87 126.146 166.265 126.093 165.727 125.917C165.191 125.74 164.757 125.464 164.424 125.089C164.092 124.714 163.9 124.267 163.848 123.75C163.803 123.344 163.846 122.963 163.979 122.606C164.114 122.245 164.317 121.935 164.586 121.676C164.855 121.415 165.167 121.234 165.522 121.133L165.516 121.077C165.027 121.012 164.618 120.797 164.289 120.431C163.961 120.065 163.771 119.624 163.72 119.11C163.666 118.62 163.749 118.17 163.971 117.759C164.195 117.345 164.526 117.002 164.965 116.733C165.403 116.463 165.917 116.297 166.506 116.235C167.089 116.174 167.622 116.231 168.104 116.407C168.588 116.58 168.984 116.846 169.289 117.205C169.595 117.561 169.774 117.982 169.829 118.468C169.88 118.982 169.781 119.453 169.533 119.88C169.284 120.306 168.934 120.601 168.481 120.766L168.487 120.822C168.852 120.846 169.19 120.959 169.502 121.16C169.816 121.357 170.076 121.618 170.284 121.943C170.494 122.264 170.622 122.628 170.668 123.033C170.719 123.551 170.621 124.028 170.374 124.463C170.126 124.899 169.758 125.26 169.267 125.544C168.78 125.829 168.205 126.006 167.54 126.076ZM167.416 124.893C167.812 124.851 168.148 124.749 168.424 124.588C168.7 124.423 168.905 124.214 169.039 123.961C169.173 123.704 169.225 123.415 169.194 123.093C169.156 122.76 169.038 122.474 168.839 122.237C168.644 121.999 168.394 121.822 168.088 121.705C167.783 121.589 167.443 121.551 167.069 121.59C166.692 121.63 166.364 121.739 166.086 121.916C165.809 122.093 165.599 122.319 165.458 122.592C165.316 122.865 165.264 123.169 165.303 123.502C165.333 123.824 165.439 124.096 165.62 124.32C165.804 124.54 166.05 124.702 166.357 124.805C166.664 124.905 167.017 124.934 167.416 124.893ZM166.947 120.435C167.266 120.402 167.541 120.308 167.774 120.154C168.007 120.001 168.181 119.803 168.298 119.56C168.417 119.317 168.463 119.043 168.434 118.737C168.399 118.438 168.3 118.184 168.136 117.974C167.975 117.764 167.765 117.611 167.506 117.515C167.247 117.416 166.955 117.384 166.63 117.418C166.3 117.453 166.016 117.546 165.78 117.697C165.547 117.844 165.373 118.037 165.259 118.276C165.146 118.515 165.106 118.784 165.141 119.083C165.17 119.389 165.266 119.649 165.431 119.861C165.595 120.074 165.807 120.232 166.067 120.334C166.33 120.435 166.623 120.469 166.947 120.435ZM175.239 115.449L176.246 125.028L174.796 125.181L173.942 117.052L173.886 117.058L171.751 118.795L171.606 117.411L173.832 115.597L175.239 115.449ZM185.672 124.17C185.03 124.238 184.444 124.187 183.916 124.019C183.391 123.85 182.961 123.585 182.626 123.223C182.295 122.857 182.091 122.415 182.014 121.897L183.483 121.743C183.531 122.024 183.652 122.261 183.846 122.452C184.042 122.639 184.286 122.774 184.579 122.857C184.871 122.94 185.189 122.963 185.532 122.927C185.909 122.887 186.236 122.787 186.512 122.625C186.792 122.464 187.002 122.257 187.142 122.006C187.283 121.751 187.337 121.47 187.304 121.161C187.27 120.84 187.158 120.567 186.967 120.341C186.779 120.111 186.52 119.943 186.191 119.836C185.864 119.728 185.479 119.698 185.037 119.744L184.227 119.829L184.104 118.651L184.913 118.566C185.268 118.528 185.573 118.432 185.828 118.276C186.086 118.119 186.279 117.919 186.408 117.676C186.537 117.429 186.585 117.151 186.552 116.842C186.521 116.546 186.427 116.296 186.27 116.092C186.116 115.884 185.91 115.731 185.654 115.632C185.401 115.532 185.111 115.499 184.783 115.534C184.471 115.567 184.186 115.655 183.927 115.799C183.67 115.939 183.469 116.124 183.323 116.354C183.177 116.581 183.113 116.841 183.131 117.136L181.732 117.283C181.694 116.763 181.798 116.292 182.047 115.869C182.299 115.445 182.653 115.097 183.11 114.825C183.567 114.554 184.089 114.387 184.675 114.325C185.289 114.261 185.832 114.325 186.303 114.518C186.777 114.708 187.157 114.988 187.441 115.359C187.729 115.729 187.896 116.149 187.943 116.62C188.002 117.157 187.901 117.627 187.637 118.033C187.377 118.439 187.005 118.732 186.519 118.912L186.527 118.987C187.173 119.017 187.693 119.218 188.085 119.59C188.48 119.961 188.708 120.449 188.768 121.055C188.827 121.581 188.73 122.069 188.478 122.518C188.228 122.967 187.862 123.338 187.379 123.631C186.896 123.922 186.327 124.101 185.672 124.17ZM194.171 123.277C193.743 123.316 193.314 123.282 192.883 123.176C192.456 123.069 192.055 122.859 191.682 122.545C191.309 122.232 190.989 121.791 190.725 121.223C190.463 120.654 190.286 119.929 190.193 119.046C190.106 118.211 190.11 117.46 190.207 116.794C190.308 116.128 190.492 115.555 190.76 115.076C191.028 114.594 191.372 114.212 191.793 113.932C192.215 113.651 192.703 113.481 193.258 113.423C193.829 113.363 194.347 113.422 194.813 113.6C195.28 113.778 195.671 114.051 195.987 114.418C196.306 114.785 196.53 115.217 196.658 115.714L195.231 115.864C195.093 115.475 194.866 115.169 194.553 114.947C194.24 114.724 193.852 114.637 193.391 114.686C192.689 114.76 192.174 115.123 191.845 115.775C191.52 116.427 191.413 117.298 191.524 118.386L191.594 118.379C191.731 118.09 191.909 117.838 192.129 117.623C192.352 117.404 192.608 117.227 192.896 117.093C193.188 116.955 193.5 116.869 193.834 116.834C194.389 116.775 194.905 116.858 195.383 117.082C195.863 117.303 196.262 117.636 196.58 118.082C196.898 118.528 197.089 119.056 197.154 119.667C197.218 120.278 197.137 120.847 196.912 121.372C196.69 121.896 196.344 122.33 195.876 122.672C195.407 123.011 194.839 123.213 194.171 123.277ZM194.038 122.061C194.406 122.023 194.726 121.898 194.997 121.686C195.268 121.475 195.471 121.208 195.607 120.884C195.744 120.561 195.792 120.211 195.752 119.834C195.714 119.466 195.596 119.139 195.399 118.854C195.205 118.569 194.955 118.352 194.65 118.204C194.347 118.057 194.013 118.002 193.649 118.04C193.371 118.069 193.119 118.149 192.894 118.28C192.671 118.411 192.48 118.579 192.322 118.785C192.164 118.991 192.047 119.22 191.969 119.474C191.895 119.725 191.872 119.984 191.9 120.253C191.937 120.611 192.055 120.935 192.252 121.223C192.453 121.511 192.708 121.733 193.018 121.89C193.33 122.043 193.67 122.1 194.038 122.061ZM201.814 112.656L202.82 122.235L201.371 122.388L200.516 114.259L200.46 114.265L198.325 116.002L198.18 114.618L200.406 112.804L201.814 112.656ZM208.587 121.762C208.001 121.823 207.462 121.766 206.971 121.591C206.482 121.412 206.079 121.139 205.76 120.773C205.44 120.406 205.245 119.969 205.173 119.463L206.576 119.315C206.653 119.723 206.871 120.043 207.23 120.273C207.588 120.503 207.998 120.594 208.46 120.546C208.827 120.507 209.145 120.388 209.411 120.19C209.679 119.989 209.879 119.73 210.01 119.413C210.144 119.096 210.19 118.746 210.15 118.363C210.109 117.973 209.988 117.634 209.788 117.346C209.587 117.058 209.33 116.843 209.015 116.699C208.704 116.555 208.358 116.502 207.977 116.539C207.687 116.569 207.401 116.65 207.118 116.78C206.835 116.911 206.612 117.067 206.448 117.248L205.104 117.191L205.135 112.307L210.401 111.754L210.532 112.993L206.467 113.42L206.445 116.132L206.501 116.127C206.669 115.926 206.901 115.749 207.197 115.595C207.496 115.44 207.823 115.344 208.179 115.307C208.762 115.246 209.295 115.33 209.78 115.56C210.267 115.789 210.667 116.13 210.98 116.583C211.295 117.032 211.484 117.567 211.546 118.188C211.614 118.808 211.532 119.376 211.299 119.892C211.07 120.408 210.72 120.833 210.251 121.166C209.784 121.496 209.23 121.694 208.587 121.762ZM220.414 120.519C219.772 120.586 219.186 120.536 218.658 120.367C218.133 120.199 217.703 119.934 217.368 119.571C217.037 119.206 216.833 118.764 216.756 118.245L218.225 118.091C218.273 118.373 218.394 118.609 218.588 118.8C218.784 118.988 219.028 119.123 219.321 119.205C219.613 119.288 219.931 119.312 220.274 119.275C220.651 119.236 220.978 119.135 221.254 118.974C221.534 118.812 221.744 118.606 221.884 118.354C222.025 118.1 222.079 117.818 222.046 117.51C222.012 117.189 221.9 116.915 221.709 116.689C221.521 116.46 221.262 116.292 220.933 116.184C220.606 116.077 220.221 116.046 219.779 116.093L218.969 116.178L218.846 114.999L219.655 114.914C220.01 114.877 220.315 114.78 220.57 114.624C220.828 114.468 221.021 114.268 221.15 114.024C221.279 113.777 221.327 113.499 221.294 113.191C221.263 112.895 221.169 112.644 221.012 112.44C220.858 112.233 220.652 112.079 220.396 111.98C220.143 111.88 219.853 111.848 219.525 111.882C219.213 111.915 218.928 112.003 218.669 112.147C218.412 112.288 218.211 112.473 218.065 112.703C217.919 112.929 217.855 113.19 217.873 113.484L216.474 113.631C216.436 113.112 216.54 112.641 216.789 112.217C217.041 111.794 217.395 111.446 217.852 111.174C218.309 110.902 218.831 110.735 219.417 110.674C220.031 110.609 220.574 110.673 221.045 110.867C221.519 111.056 221.899 111.337 222.183 111.707C222.471 112.077 222.638 112.498 222.685 112.969C222.744 113.505 222.643 113.976 222.379 114.382C222.119 114.788 221.747 115.081 221.261 115.261L221.269 115.336C221.915 115.365 222.435 115.566 222.827 115.938C223.222 116.31 223.45 116.798 223.51 117.403C223.569 117.93 223.472 118.418 223.22 118.867C222.97 119.315 222.604 119.686 222.121 119.98C221.638 120.27 221.069 120.45 220.414 120.519ZM228.182 109.885L229.189 119.464L227.739 119.616L226.885 111.487L226.828 111.493L224.694 113.231L224.548 111.846L226.774 110.033L228.182 109.885ZM235.132 119C234.392 119.075 233.741 118.946 233.176 118.615C232.612 118.283 232.152 117.762 231.796 117.052C231.441 116.343 231.209 115.467 231.099 114.425C230.99 113.387 231.036 112.485 231.236 111.72C231.439 110.955 231.783 110.351 232.266 109.91C232.752 109.468 233.362 109.208 234.094 109.131C234.827 109.054 235.476 109.183 236.041 109.518C236.605 109.849 237.065 110.368 237.42 111.075C237.778 111.778 238.011 112.649 238.12 113.688C238.23 114.732 238.185 115.638 237.985 116.407C237.785 117.172 237.443 117.777 236.96 118.222C236.477 118.663 235.868 118.923 235.132 119ZM235.001 117.751C235.649 117.683 236.123 117.313 236.421 116.642C236.722 115.97 236.81 115.036 236.684 113.838C236.601 113.043 236.446 112.38 236.22 111.849C235.996 111.314 235.714 110.922 235.372 110.671C235.034 110.416 234.65 110.312 234.223 110.356C233.578 110.424 233.105 110.796 232.803 111.47C232.502 112.145 232.413 113.08 232.535 114.274C232.619 115.073 232.773 115.739 232.996 116.274C233.222 116.805 233.505 117.196 233.843 117.447C234.181 117.696 234.567 117.797 235.001 117.751ZM243.634 118.107C242.895 118.181 242.243 118.053 241.678 117.721C241.114 117.389 240.654 116.869 240.299 116.159C239.943 115.449 239.711 114.573 239.602 113.532C239.493 112.493 239.538 111.592 239.738 110.827C239.942 110.061 240.285 109.458 240.768 109.016C241.254 108.574 241.864 108.314 242.597 108.237C243.329 108.16 243.978 108.289 244.543 108.624C245.108 108.956 245.567 109.475 245.922 110.181C246.28 110.885 246.513 111.756 246.622 112.794C246.732 113.838 246.687 114.745 246.487 115.513C246.287 116.278 245.946 116.883 245.463 117.328C244.979 117.77 244.37 118.029 243.634 118.107ZM243.503 116.858C244.151 116.79 244.625 116.42 244.923 115.748C245.224 115.077 245.312 114.142 245.186 112.945C245.103 112.15 244.948 111.487 244.722 110.955C244.499 110.421 244.216 110.028 243.875 109.777C243.536 109.523 243.153 109.418 242.726 109.463C242.08 109.531 241.607 109.902 241.306 110.577C241.005 111.252 240.915 112.186 241.038 113.381C241.122 114.179 241.275 114.846 241.498 115.38C241.724 115.911 242.007 116.302 242.345 116.554C242.683 116.802 243.069 116.903 243.503 116.858Z" fill="black"/>
<path d="M320.081 100.226L322.204 100.003L325.778 106.645L325.89 106.633L328.004 99.393L330.128 99.1698L331.135 108.749L329.469 108.924L328.778 102.343L328.689 102.352L326.73 109.184L325.486 109.314L322.148 103.026L322.06 103.035L322.753 109.63L321.088 109.805L320.081 100.226ZM331.749 100.47L331.596 99.0155L339.239 98.2122L339.392 99.6668L336.431 99.978L337.285 108.103L335.564 108.283L334.71 100.159L331.749 100.47ZM348.584 97.2299L349.591 106.809L348.048 106.971L342.848 100.921L342.769 100.929L343.455 107.454L341.719 107.636L340.713 98.0573L342.265 97.8941L347.461 103.95L347.545 103.941L346.859 97.4114L348.584 97.2299Z" fill="#8D8D8D"/>
<path d="M167.147 143L167.253 144.008L156.968 145.089L156.862 144.081L167.147 143ZM167.376 145.178L167.482 146.186L157.197 147.267L157.091 146.259L167.376 145.178ZM165.929 139.315L167.014 149.64L165.128 149.839L159.958 143.811L159.878 143.82L160.561 150.319L158.383 150.548L157.297 140.222L159.208 140.021L164.353 146.046L164.438 146.037L163.756 139.543L165.929 139.315ZM172.737 149.182C171.985 149.261 171.3 149.202 170.685 149.005C170.073 148.804 169.573 148.493 169.185 148.072C168.801 147.646 168.572 147.134 168.498 146.533L170.697 146.302C170.736 146.553 170.842 146.766 171.014 146.941C171.188 147.113 171.408 147.238 171.675 147.315C171.941 147.393 172.234 147.415 172.553 147.381C172.886 147.346 173.174 147.256 173.417 147.112C173.66 146.967 173.843 146.783 173.966 146.56C174.088 146.336 174.135 146.088 174.107 145.816C174.078 145.54 173.975 145.305 173.798 145.109C173.624 144.91 173.388 144.765 173.089 144.674C172.794 144.583 172.452 144.558 172.062 144.599L171.099 144.7L170.931 143.097L171.893 142.995C172.223 142.961 172.508 142.873 172.748 142.732C172.991 142.591 173.173 142.412 173.293 142.196C173.412 141.976 173.458 141.73 173.429 141.458C173.402 141.199 173.316 140.978 173.171 140.797C173.029 140.611 172.842 140.474 172.608 140.387C172.378 140.299 172.117 140.27 171.824 140.301C171.529 140.332 171.264 140.414 171.03 140.548C170.795 140.678 170.614 140.848 170.487 141.058C170.36 141.269 170.305 141.506 170.322 141.769L168.23 141.989C168.177 141.393 168.292 140.851 168.574 140.362C168.855 139.874 169.262 139.473 169.793 139.159C170.327 138.841 170.947 138.645 171.653 138.571C172.365 138.496 173.002 138.56 173.564 138.762C174.126 138.965 174.577 139.271 174.92 139.68C175.265 140.085 175.464 140.561 175.518 141.106C175.582 141.683 175.453 142.185 175.131 142.609C174.812 143.034 174.368 143.328 173.801 143.493L173.81 143.574C174.58 143.591 175.186 143.795 175.627 144.183C176.072 144.568 176.327 145.081 176.391 145.724C176.456 146.312 176.341 146.852 176.046 147.345C175.755 147.838 175.324 148.247 174.753 148.572C174.182 148.897 173.51 149.1 172.737 149.182ZM182.337 148.259C181.47 148.347 180.701 148.212 180.031 147.854C179.365 147.496 178.822 146.933 178.401 146.165C177.984 145.397 177.718 144.448 177.602 143.318C177.484 142.192 177.549 141.215 177.799 140.387C178.051 139.558 178.467 138.904 179.045 138.426C179.627 137.943 180.349 137.656 181.213 137.566C182.077 137.475 182.842 137.605 183.507 137.957C184.176 138.308 184.721 138.862 185.14 139.62C185.559 140.375 185.826 141.315 185.941 142.441C186.06 143.574 185.994 144.56 185.742 145.399C185.494 146.237 185.081 146.9 184.504 147.389C183.927 147.878 183.204 148.168 182.337 148.259ZM182.147 146.449C182.738 146.387 183.179 146.04 183.47 145.408C183.76 144.776 183.841 143.865 183.713 142.676C183.63 141.893 183.481 141.249 183.265 140.745C183.052 140.241 182.786 139.873 182.466 139.641C182.149 139.409 181.795 139.314 181.401 139.356C180.813 139.417 180.373 139.761 180.082 140.386C179.791 141.011 179.706 141.911 179.826 143.084C179.909 143.877 180.058 144.531 180.271 145.046C180.488 145.557 180.757 145.929 181.077 146.164C181.397 146.396 181.754 146.491 182.147 146.449ZM192.112 147.232C191.244 147.32 190.476 147.185 189.806 146.827C189.14 146.469 188.596 145.906 188.176 145.138C187.758 144.369 187.492 143.42 187.377 142.291C187.259 141.165 187.324 140.187 187.573 139.359C187.826 138.531 188.242 137.877 188.82 137.398C189.401 136.916 190.124 136.629 190.988 136.538C191.852 136.448 192.616 136.578 193.282 136.929C193.951 137.28 194.495 137.835 194.915 138.593C195.334 139.347 195.601 140.288 195.716 141.414C195.835 142.547 195.769 143.533 195.517 144.371C195.269 145.209 194.856 145.873 194.279 146.362C193.701 146.851 192.979 147.141 192.112 147.232ZM191.922 145.422C192.513 145.36 192.954 145.013 193.245 144.381C193.535 143.749 193.616 142.838 193.488 141.648C193.405 140.865 193.256 140.222 193.04 139.718C192.827 139.213 192.561 138.845 192.241 138.614C191.924 138.382 191.569 138.287 191.176 138.328C190.588 138.39 190.148 138.734 189.857 139.359C189.566 139.984 189.48 140.883 189.6 142.057C189.684 142.85 189.832 143.504 190.046 144.018C190.263 144.529 190.531 144.902 190.852 145.137C191.172 145.368 191.528 145.463 191.922 145.422ZM201.887 146.205C201.019 146.292 200.25 146.157 199.581 145.8C198.914 145.441 198.371 144.878 197.95 144.11C197.533 143.342 197.267 142.393 197.152 141.263C197.033 140.137 197.099 139.16 197.348 138.332C197.601 137.503 198.016 136.85 198.595 136.371C199.176 135.888 199.899 135.602 200.763 135.511C201.626 135.42 202.391 135.55 203.057 135.902C203.726 136.253 204.27 136.807 204.69 137.565C205.109 138.32 205.376 139.26 205.491 140.387C205.61 141.519 205.543 142.505 205.292 143.344C205.043 144.182 204.631 144.846 204.053 145.335C203.476 145.823 202.754 146.113 201.887 146.205ZM201.696 144.395C202.288 144.332 202.729 143.985 203.019 143.353C203.31 142.721 203.391 141.81 203.262 140.621C203.18 139.838 203.031 139.194 202.815 138.69C202.602 138.186 202.336 137.818 202.016 137.586C201.699 137.355 201.344 137.259 200.951 137.301C200.363 137.363 199.923 137.706 199.632 138.331C199.341 138.957 199.255 139.856 199.375 141.03C199.458 141.823 199.607 142.477 199.821 142.991C200.038 143.502 200.306 143.875 200.626 144.109C200.946 144.341 201.303 144.436 201.696 144.395Z" fill="#73B051"/>
<rect x="305.352" y="119.446" width="46.7069" height="20.1379" rx="10.0599" transform="rotate(-6 305.352 119.446)" fill="#45B6A8"/>
<path d="M312.044 124.556L313.761 124.376L316.65 129.746L316.741 129.736L318.45 123.883L320.167 123.703L320.981 131.447L319.635 131.588L319.075 126.268L319.004 126.276L317.42 131.798L316.414 131.904L313.716 126.82L313.644 126.827L314.205 132.159L312.858 132.3L312.044 124.556ZM329.021 126.687C329.109 127.521 329.028 128.252 328.778 128.88C328.53 129.505 328.154 130.003 327.65 130.375C327.149 130.746 326.559 130.968 325.881 131.039C325.203 131.11 324.579 131.016 324.009 130.758C323.441 130.496 322.97 130.086 322.595 129.526C322.222 128.964 321.992 128.267 321.905 127.435C321.817 126.6 321.897 125.871 322.145 125.246C322.395 124.618 322.771 124.118 323.272 123.747C323.776 123.376 324.367 123.154 325.045 123.083C325.723 123.012 326.346 123.105 326.913 123.364C327.483 123.623 327.955 124.034 328.327 124.596C328.702 125.155 328.934 125.852 329.021 126.687ZM327.611 126.835C327.549 126.248 327.405 125.762 327.179 125.378C326.954 124.991 326.67 124.711 326.326 124.539C325.981 124.363 325.598 124.298 325.177 124.342C324.756 124.386 324.395 124.53 324.095 124.773C323.794 125.014 323.573 125.347 323.431 125.772C323.292 126.194 323.253 126.699 323.315 127.287C323.377 127.874 323.52 128.361 323.744 128.748C323.97 129.132 324.256 129.411 324.601 129.587C324.945 129.76 325.328 129.824 325.749 129.78C326.17 129.735 326.531 129.593 326.832 129.352C327.132 129.109 327.352 128.776 327.491 128.354C327.633 127.929 327.673 127.422 327.611 126.835ZM329.941 122.675L331.657 122.495L334.546 127.865L334.637 127.855L336.346 122.002L338.063 121.822L338.877 129.566L337.531 129.707L336.971 124.387L336.9 124.395L335.316 129.917L334.31 130.023L331.612 124.939L331.54 124.946L332.101 130.278L330.755 130.42L329.941 122.675ZM346.917 124.806C347.005 125.64 346.924 126.371 346.674 126.999C346.426 127.624 346.05 128.122 345.546 128.494C345.045 128.865 344.455 129.087 343.777 129.158C343.099 129.229 342.475 129.135 341.905 128.877C341.337 128.615 340.866 128.205 340.491 127.645C340.118 127.083 339.888 126.386 339.801 125.554C339.713 124.719 339.793 123.99 340.041 123.365C340.291 122.737 340.667 122.237 341.168 121.866C341.672 121.495 342.263 121.273 342.941 121.202C343.619 121.131 344.242 121.224 344.809 121.483C345.38 121.742 345.851 122.153 346.223 122.715C346.598 123.275 346.83 123.971 346.917 124.806ZM345.507 124.954C345.445 124.367 345.301 123.881 345.075 123.497C344.85 123.11 344.566 122.831 344.222 122.658C343.877 122.482 343.494 122.417 343.073 122.461C342.652 122.505 342.291 122.649 341.991 122.892C341.69 123.133 341.469 123.466 341.327 123.891C341.188 124.313 341.15 124.818 341.211 125.406C341.273 125.993 341.416 126.48 341.64 126.867C341.867 127.251 342.152 127.531 342.497 127.706C342.841 127.879 343.224 127.943 343.645 127.899C344.066 127.854 344.427 127.712 344.728 127.471C345.028 127.228 345.248 126.895 345.387 126.473C345.529 126.048 345.569 125.542 345.507 124.954Z" fill="#ECF8F6"/>
</g>
<rect x="68.7906" y="101.972" width="309.76" height="82.4065" rx="14.3476" transform="rotate(-6 68.7906 101.972)" stroke="#E5ECF5" stroke-width="0.735772"/>
<rect x="6.18995" y="1.39642" width="309.496" height="82.1422" rx="14.2154" transform="rotate(3.6351 6.18995 1.39642)" fill="white"/>
<g clip-path="url(#clip3_2587_436490)">
<path d="M43.0579 68.8581C56.2378 69.6954 67.6011 59.6897 68.4384 46.5097C69.2758 33.3297 59.2701 21.9665 46.0901 21.1291C32.9101 20.2918 21.5468 30.2975 20.7095 43.4775C19.8722 56.6575 29.8779 68.0208 43.0579 68.8581Z" fill="#FDF5EC"/>
<path d="M47.7048 34.2545C48.544 34.2992 49.3391 34.4807 50.0728 34.8673C50.7195 35.2101 51.2395 35.674 51.582 36.2983C51.8043 36.7103 51.9431 37.1571 51.9911 37.6158C52.0923 38.4968 51.9202 39.3381 51.5787 40.1539C51.378 40.6323 51.109 41.0777 50.8196 41.5143C50.2299 42.4028 49.4876 43.1636 48.633 43.8302C47.5365 44.6862 46.3422 45.426 45.0715 46.0362C44.5793 46.2718 44.0709 46.4658 43.5282 46.5751C43.1955 46.6451 42.8539 46.6717 42.513 46.6541C42.0644 46.6275 41.7208 46.4218 41.4606 46.0881C41.2199 45.7883 41.1047 45.4168 41.1367 45.044C41.1439 44.9402 41.1641 44.8377 41.1968 44.7384C41.3812 44.2039 41.623 43.6945 41.9723 43.2351C42.2392 42.8843 42.553 42.5759 42.9557 42.3624C43.4035 42.1248 43.8835 42.0349 44.3937 42.1609C44.5531 42.2027 44.7018 42.2747 44.8306 42.3725C45.1601 42.6128 45.128 42.9678 44.9562 43.1885C44.809 43.3803 44.6457 43.5608 44.468 43.7284C44.1671 44.0085 43.8488 44.2721 43.5376 44.5423C43.2622 44.7814 43.0023 45.0334 42.7881 45.324C42.6771 45.4747 42.5741 45.6288 42.5377 45.8137C42.4918 46.0456 42.6147 46.2098 42.8652 46.2418C42.9949 46.257 43.1263 46.2499 43.253 46.221C43.6434 46.1365 44.0086 45.9896 44.3679 45.8299C44.9221 45.5825 45.4368 45.2736 45.9396 44.9461C46.5491 44.5491 47.1429 44.1334 47.6934 43.6667C48.3205 43.1357 48.8839 42.5538 49.3244 41.8739C49.6462 41.3775 49.8898 40.8494 50.0116 40.2774C50.1193 39.7735 50.0905 39.2773 49.8584 38.8014C49.7469 38.5663 49.5657 38.3659 49.3364 38.2242C49.2306 38.1587 49.1128 38.1122 48.9891 38.0869C48.5388 37.9933 48.0977 38.0374 47.6613 38.1548C47.2064 38.2774 46.7814 38.4659 46.3673 38.6739C45.4684 39.1271 44.5685 39.58 43.7085 40.0963C43.2774 40.3551 42.8584 40.6319 42.4352 40.9019C42.0529 41.146 41.673 41.3932 41.2581 41.5886C40.9213 41.7512 40.5592 41.8637 40.1849 41.9221C39.7213 41.9911 39.3004 41.8927 38.9202 41.6427C38.5257 41.3833 38.256 41.0383 38.1495 40.5918C38.0816 40.3098 38.1239 40.0347 38.2033 39.7623C38.3192 39.3623 38.5232 39.004 38.7731 38.6666C39.391 37.8331 40.1539 37.1358 41.0319 36.5487C42.3333 35.6788 43.7529 35.0257 45.2783 34.5733C46.0615 34.3397 46.8819 34.2319 47.7048 34.2545Z" fill="#E20010"/>
<path d="M36.5176 53.4283C36.5241 53.1591 36.5011 52.9159 36.3437 52.6993C36.267 52.5947 36.1582 52.5143 36.0318 52.4688C35.7065 52.3447 35.3701 52.3443 35.0389 52.4259C34.7732 52.4914 34.5159 52.5848 34.2552 52.6669C34.2038 52.6824 34.1567 52.7031 34.0943 52.7263C33.9846 52.4403 33.8766 52.1628 33.7636 51.8726C33.9472 51.7998 34.1204 51.7249 34.2985 51.6618C34.7089 51.5163 35.1321 51.4221 35.5735 51.4149C36.0148 51.4077 36.4485 51.4471 36.8412 51.6633C37.2855 51.9064 37.5996 52.2441 37.7176 52.7221C37.7348 52.7847 37.7441 52.849 37.7452 52.9136C37.738 53.5276 37.7369 54.1419 37.7149 54.7553C37.6998 55.1746 37.6535 55.5928 37.6234 56.0117C37.6188 56.0691 37.591 56.1226 37.5458 56.1614C37.2195 56.472 36.8272 56.6799 36.3869 56.8124C35.9148 56.9528 35.4162 56.9996 34.9227 56.9498C34.4671 56.9076 34.08 56.7166 33.7583 56.4126C33.4367 56.1085 33.218 55.7482 33.1704 55.3154C33.1053 54.7228 33.3073 54.2189 33.7763 53.8165C34.0778 53.5578 34.4416 53.4325 34.8472 53.3993C35.2958 53.3629 35.7432 53.3954 36.1911 53.4146L36.5176 53.4283ZM36.4204 54.3836C36.3943 54.3776 36.3678 54.3732 36.3412 54.3701C36.1891 54.3612 36.0353 54.35 35.8823 54.3459C35.6988 54.3412 35.5146 54.3345 35.3316 54.3433C35.1424 54.3526 34.9574 54.3968 34.8066 54.5087C34.5562 54.6948 34.4739 54.9476 34.5214 55.2382C34.5806 55.5976 34.7831 55.8552 35.1578 55.9765C35.351 56.0391 35.5576 56.0556 35.7588 56.0245C35.9456 56.0001 36.1218 55.9293 36.2691 55.8194C36.2939 55.8028 36.3147 55.7814 36.3299 55.7567C36.3452 55.7319 36.3546 55.7043 36.3575 55.6758C36.3683 55.5508 36.3906 55.4265 36.3967 55.3014C36.4103 55.0146 36.4172 54.7276 36.4263 54.4407C36.4255 54.4216 36.4236 54.4025 36.4204 54.3836Z" fill="#E20010"/>
<path d="M51.7349 54.9748C50.6467 54.931 49.5797 54.8661 48.4957 54.8491C48.4984 54.9206 48.499 54.9883 48.5032 55.0544C48.5203 55.3247 48.5716 55.5888 48.6832 55.8406C48.7695 56.0458 48.9091 56.2278 49.0892 56.3702C49.375 56.5914 49.7095 56.6391 50.0635 56.6108C50.3562 56.5873 50.6313 56.4984 50.9058 56.4088C51.0317 56.3679 51.1567 56.3237 51.2922 56.278C51.409 56.5317 51.5234 56.7809 51.6427 57.0376C51.6182 57.0528 51.5951 57.0699 51.5697 57.0822C51.0303 57.3542 50.456 57.5203 49.8419 57.5456C49.2821 57.5685 48.7528 57.4612 48.2825 57.1526C47.9622 56.9424 47.7436 56.6549 47.5639 56.3359C47.3426 55.939 47.2166 55.5021 47.1947 55.0557C47.1468 54.2415 47.3611 53.4939 47.8373 52.8128C48.1694 52.3394 48.6465 52.0942 49.2341 52.0267C49.7744 51.9599 50.3239 52.0684 50.7912 52.3341C51.0531 52.4805 51.2306 52.7017 51.3745 52.9474C51.5647 53.2714 51.6574 53.6238 51.6942 53.9866C51.724 54.2791 51.7254 54.5741 51.7384 54.869C51.7402 54.8993 51.7367 54.9306 51.7349 54.9748ZM50.453 53.9985C50.4008 53.7248 50.3688 53.446 50.1886 53.2086C50.0982 53.0905 49.968 53.0044 49.8191 52.9642C49.4236 52.8491 49.0151 53.0054 48.8291 53.3528C48.7626 53.4765 48.7211 53.6122 48.6711 53.7432C48.6486 53.8025 48.6332 53.8645 48.6148 53.9245C48.721 53.9554 50.3421 54.0219 50.4535 53.9992L50.453 53.9985Z" fill="#E20010"/>
<path d="M44.7635 50.5487L46.0696 50.4127L46.0094 51.9067C46.2969 51.9345 46.5721 51.928 46.847 51.9669L46.8099 52.8872C46.5307 52.8803 46.2578 52.8614 45.9723 52.8661C45.9702 52.9179 45.9687 52.9567 45.9671 52.9954C45.9291 53.8812 45.8914 54.7671 45.854 55.6531C45.8484 55.7926 45.8547 55.9328 45.8625 56.0723C45.8752 56.2871 45.9963 56.4278 46.2154 56.4888C46.3363 56.5227 46.4609 56.5441 46.5838 56.5712L46.7071 56.6L46.6757 57.3811C46.6615 57.387 46.6464 57.391 46.631 57.3931C46.2618 57.3937 45.8951 57.3699 45.5428 57.2541C45.1987 57.1417 44.9157 56.9518 44.7307 56.6501C44.6256 56.4793 44.5763 56.29 44.5594 56.0958C44.5494 55.9742 44.5471 55.8522 44.5523 55.7304C44.6201 54.0479 44.6888 52.3657 44.7586 50.6837L44.7635 50.5487Z" fill="#E20010"/>
<path d="M52.6169 50.8645L53.8807 50.7111L53.8742 50.8734C53.8126 52.4014 53.7518 53.9294 53.6916 55.4574C53.6803 55.7371 53.6716 56.0169 53.6626 56.297C53.6535 56.5732 53.7554 56.7182 54.0337 56.8117C54.1284 56.8404 54.2247 56.8638 54.3223 56.8819C54.3817 56.8948 54.4421 56.9022 54.5146 56.9135L54.4825 57.7114C54.4755 57.7164 54.4673 57.7198 54.4587 57.7212C54.1015 57.7204 53.7466 57.7006 53.4037 57.5916C53.1958 57.5265 53.0041 57.4225 52.84 57.2861C52.5344 57.0317 52.4191 56.7027 52.4008 56.3361C52.3955 56.2288 52.4011 56.1207 52.4057 56.0133C52.473 54.3418 52.5416 52.6705 52.6114 50.9994L52.6169 50.8645Z" fill="#E20010"/>
<path d="M41.9708 57.1357L40.7025 57.0846C40.7029 57.0349 40.7022 56.9894 40.7038 56.9445C40.7312 56.2306 40.7588 55.5167 40.7867 54.8028C40.8082 54.2324 40.8273 53.6619 40.8506 53.0916C40.8551 52.9882 40.8678 52.8853 40.8884 52.7837C40.9118 52.6678 40.9809 52.5732 41.0748 52.4949C41.5913 52.0606 42.1991 51.8123 42.8844 51.7223C43.3139 51.6662 43.751 51.6833 44.1749 51.7726C44.1973 51.7773 44.2197 51.783 44.2415 51.7891C44.2523 51.7922 44.2625 51.7976 44.2833 51.806C44.1254 52.1434 43.9366 52.4642 43.7582 52.7817C43.5606 52.7738 43.3736 52.7608 43.1867 52.7599C42.8638 52.7569 42.5444 52.818 42.2493 52.9392C42.1656 52.9737 42.133 53.0195 42.1297 53.1081C42.0809 54.4073 42.0294 55.7064 41.9753 57.0054L41.9708 57.1357Z" fill="#E20010"/>
<path d="M39.9786 51.714C39.9204 53.4949 39.8344 55.2642 39.7749 57.0455L38.5337 56.9955C38.5324 56.9523 38.5281 56.9072 38.5299 56.8623C38.575 55.743 38.6201 54.6236 38.6652 53.5041C38.6858 52.991 38.711 52.4781 38.734 51.9652C38.7356 51.9262 38.7371 51.8872 38.7391 51.8383L39.9786 51.714Z" fill="#E20010"/>
</g>
<path d="M90.9711 40.9984C90.2297 40.9478 89.6086 40.7116 89.1078 40.29C88.6069 39.8684 88.241 39.2778 88.01 38.5185C87.779 37.7591 87.6969 36.8568 87.7638 35.8117C87.8305 34.7698 88.0267 33.8885 88.3525 33.1679C88.6813 32.4475 89.121 31.9101 89.6715 31.5557C90.2252 31.2016 90.8696 31.048 91.605 31.0951C92.3403 31.1422 92.9582 31.3781 93.4589 31.8029C93.9597 32.2245 94.3257 32.8135 94.557 33.5697C94.7915 34.3231 94.8754 35.2207 94.8087 36.2627C94.7416 37.3109 94.5451 38.1968 94.2192 38.9206C93.8934 39.6412 93.4552 40.1803 92.9045 40.5377C92.354 40.8921 91.7095 41.0456 90.9711 40.9984ZM91.0513 39.7452C91.7021 39.7869 92.2309 39.5018 92.6377 38.8901C93.0475 38.2785 93.2909 37.372 93.3678 36.1704C93.4189 35.3725 93.3776 34.6928 93.2439 34.1313C93.1135 33.5669 92.9009 33.1323 92.6063 32.8275C92.3149 32.5198 91.9549 32.3522 91.5262 32.3248C90.8785 32.2833 90.3497 32.57 89.9396 33.1846C89.5295 33.7993 89.2845 34.7058 89.2047 35.904C89.1534 36.705 89.193 37.3877 89.3234 37.9522C89.4571 38.5137 89.6697 38.9467 89.9613 39.2513C90.253 39.5527 90.6164 39.7174 91.0513 39.7452ZM99.4059 41.51C98.7332 41.4669 98.1461 41.3131 97.6446 41.0485C97.1463 40.7841 96.7646 40.4392 96.4997 40.0138C96.2347 39.5884 96.1204 39.1161 96.1568 38.5969C96.1797 38.1899 96.2865 37.8213 96.4773 37.4911C96.6715 37.1579 96.9229 36.8865 97.2316 36.6769C97.5406 36.4642 97.8785 36.3382 98.2455 36.2988L98.2491 36.2425C97.7778 36.0961 97.4109 35.815 97.1485 35.3992C96.8861 34.9834 96.7729 34.5174 96.8091 34.0014C96.8374 33.5099 96.9953 33.0802 97.2828 32.7121C97.5736 32.3411 97.9576 32.0594 98.4349 31.8669C98.9122 31.6744 99.4466 31.597 100.038 31.6349C100.623 31.6723 101.138 31.8184 101.584 32.0732C102.033 32.3249 102.378 32.6534 102.619 33.0584C102.86 33.4603 102.967 33.9054 102.939 34.3937C102.903 34.9098 102.726 35.3572 102.41 35.736C102.093 36.1147 101.698 36.3471 101.225 36.433L101.221 36.4893C101.577 36.5749 101.891 36.7427 102.164 36.9927C102.441 37.2397 102.654 37.5408 102.804 37.896C102.958 38.2483 103.023 38.6279 103 39.0349C102.964 39.5541 102.787 40.0078 102.47 40.3959C102.153 40.7841 101.729 41.0774 101.198 41.2759C100.67 41.4746 100.072 41.5526 99.4059 41.51ZM99.4819 40.3225C99.8793 40.348 100.228 40.3043 100.527 40.1915C100.827 40.0756 101.064 39.9038 101.239 39.6762C101.414 39.4455 101.513 39.1691 101.537 38.847C101.555 38.512 101.486 38.2107 101.331 37.9431C101.178 37.6757 100.961 37.4592 100.68 37.2935C100.398 37.1278 100.069 37.033 99.694 37.0089C99.3154 36.9847 98.9743 37.0367 98.6708 37.1649C98.3672 37.2932 98.1228 37.4802 97.9374 37.7259C97.752 37.9717 97.6502 38.2621 97.6319 38.5971C97.6081 38.9192 97.6667 39.2057 97.8078 39.4566C97.9521 39.7046 98.1671 39.9053 98.4526 40.0587C98.7383 40.2089 99.0814 40.2969 99.4819 40.3225ZM99.7682 35.8496C100.087 35.8701 100.375 35.824 100.63 35.7116C100.885 35.5991 101.091 35.4332 101.246 35.2138C101.405 34.9946 101.495 34.7317 101.518 34.4253C101.534 34.1247 101.479 33.8573 101.353 33.623C101.23 33.3889 101.048 33.2029 100.809 33.065C100.57 32.9241 100.287 32.8432 99.962 32.8223C99.6303 32.8011 99.3353 32.8451 99.077 32.9542C98.822 33.0604 98.6184 33.2217 98.4663 33.4382C98.3142 33.6547 98.2301 33.9132 98.214 34.2138C98.1913 34.5202 98.243 34.7922 98.3692 35.0296C98.4954 35.267 98.6779 35.4578 98.9169 35.6019C99.159 35.7462 99.4428 35.8288 99.7682 35.8496ZM107.854 42.079C107.112 42.0284 106.491 41.7922 105.99 41.3706C105.489 40.949 105.123 40.3584 104.892 39.599C104.661 38.8397 104.579 37.9374 104.646 36.8923C104.713 35.8504 104.909 34.9691 105.235 34.2485C105.564 33.5281 106.003 32.9907 106.554 32.6363C107.108 32.2822 107.752 32.1286 108.487 32.1757C109.223 32.2228 109.841 32.4587 110.341 32.8835C110.842 33.3051 111.208 33.8941 111.439 34.6503C111.674 35.4037 111.758 36.3013 111.691 37.3433C111.624 38.3915 111.428 39.2774 111.102 40.0012C110.776 40.7218 110.338 41.2609 109.787 41.6183C109.236 41.9727 108.592 42.1262 107.854 42.079ZM107.934 40.8258C108.585 40.8675 109.113 40.5824 109.52 39.9707C109.93 39.3591 110.173 38.4526 110.25 37.251C110.301 36.4531 110.26 35.7734 110.126 35.2119C109.996 34.6475 109.783 34.2129 109.489 33.9081C109.197 33.6004 108.837 33.4328 108.409 33.4054C107.761 33.3639 107.232 33.6506 106.822 34.2652C106.412 34.8799 106.167 35.7864 106.087 36.9846C106.036 37.7856 106.075 38.4683 106.206 39.0328C106.34 39.5943 106.552 40.0273 106.844 40.3319C107.135 40.6333 107.499 40.798 107.934 40.8258ZM116.465 40.5848L116.54 39.4115L121.114 33.1158L122.038 33.175L121.928 34.9022L121.341 34.8647L118.069 39.3774L118.064 39.4525L123.758 39.8169L123.679 41.0466L116.465 40.5848ZM120.902 42.7539L121.045 40.5198L121.089 39.9854L121.527 33.1423L122.902 33.2303L122.287 42.8426L120.902 42.7539ZM128.542 43.3749C128.114 43.3412 127.696 43.2359 127.29 43.0591C126.886 42.8825 126.527 42.6081 126.211 42.236C125.896 41.864 125.655 41.3757 125.49 40.7713C125.327 40.1671 125.274 39.4223 125.331 38.5368C125.385 37.6982 125.515 36.9588 125.723 36.3186C125.934 35.6786 126.211 35.145 126.556 34.7177C126.901 34.2874 127.304 33.9692 127.767 33.7632C128.229 33.5571 128.739 33.4719 129.296 33.5076C129.869 33.5442 130.37 33.6894 130.8 33.9432C131.23 34.1969 131.57 34.5313 131.819 34.9463C132.072 35.3615 132.22 35.8249 132.263 36.3366L130.831 36.245C130.76 35.8383 130.589 35.499 130.317 35.2271C130.045 34.9552 129.678 34.8045 129.215 34.7748C128.511 34.7298 127.942 35.0013 127.509 35.5893C127.078 36.1776 126.826 37.0176 126.753 38.1094L126.824 38.1139C127.007 37.8523 127.225 37.6338 127.478 37.4583C127.735 37.28 128.017 37.1488 128.324 37.0647C128.634 36.9778 128.957 36.945 129.291 36.9664C129.848 37.0021 130.343 37.1704 130.777 37.4715C131.213 37.7696 131.551 38.1651 131.789 38.6579C132.028 39.1508 132.128 39.7038 132.088 40.3171C132.049 40.9304 131.874 41.4769 131.564 41.9566C131.257 42.4364 130.844 42.8059 130.324 43.0648C129.805 43.3206 129.211 43.424 128.542 43.3749ZM128.615 42.1543C128.985 42.1779 129.32 42.1083 129.623 41.9454C129.926 41.7826 130.171 41.5532 130.36 41.2574C130.548 40.9616 130.655 40.6244 130.679 40.2458C130.703 39.8765 130.641 39.5349 130.495 39.2207C130.352 38.9068 130.142 38.6515 129.865 38.4547C129.592 38.2581 129.272 38.1481 128.906 38.1247C128.628 38.1068 128.366 38.1435 128.122 38.2347C127.88 38.326 127.664 38.4599 127.474 38.6362C127.283 38.8125 127.129 39.0194 127.01 39.2569C126.894 39.4914 126.828 39.7432 126.811 40.0123C126.788 40.3721 126.849 40.7107 126.996 41.0279C127.145 41.3454 127.359 41.6073 127.638 41.8137C127.92 42.0171 128.246 42.1306 128.615 42.1543ZM137.859 34.1876L137.244 43.7999L135.789 43.7068L136.311 35.5495L136.255 35.5459L133.859 36.9006L133.948 35.5113L136.446 34.0972L137.859 34.1876ZM143.008 44.3008C142.42 44.2632 141.899 44.1167 141.444 43.8614C140.992 43.6031 140.64 43.2664 140.387 42.8512C140.134 42.436 140.014 41.9727 140.028 41.4615L141.436 41.5516C141.444 41.9669 141.605 42.3181 141.92 42.6053C142.235 42.8925 142.623 43.0509 143.086 43.0805C143.456 43.1042 143.788 43.0406 144.084 42.8899C144.383 42.7362 144.623 42.5144 144.805 42.2244C144.99 41.9346 145.095 41.5973 145.119 41.2125C145.144 40.8213 145.082 40.467 144.933 40.1496C144.784 39.8321 144.566 39.5763 144.28 39.382C143.997 39.188 143.665 39.0772 143.283 39.0496C142.992 39.031 142.696 39.0623 142.396 39.1436C142.095 39.2249 141.849 39.3411 141.657 39.4922L140.342 39.2101L141.191 34.4009L146.476 34.7392L146.397 35.983L142.318 35.7219L141.841 38.3918L141.897 38.3954C142.096 38.2259 142.355 38.0901 142.673 37.9879C142.993 37.8859 143.332 37.8463 143.689 37.8691C144.274 37.9066 144.786 38.0791 145.225 38.3869C145.667 38.6948 146.004 39.0981 146.236 39.5968C146.471 40.0925 146.568 40.6516 146.525 41.2741C146.488 41.897 146.311 42.4434 145.995 42.9133C145.683 43.3834 145.267 43.7432 144.748 43.9928C144.233 44.2394 143.653 44.3421 143.008 44.3008ZM151.862 44.7355L156.589 36.706L156.593 36.6356L151.74 36.325L151.82 35.0812L158.175 35.488L158.092 36.774L153.378 44.8326L151.862 44.7355ZM163.454 35.8259L162.839 45.4381L161.384 45.345L161.906 37.1877L161.849 37.1841L159.453 38.5388L159.542 37.1496L162.041 35.7355L163.454 35.8259ZM168.678 45.9439C168.005 45.9008 167.418 45.747 166.917 45.4824C166.419 45.218 166.037 44.8731 165.772 44.4477C165.507 44.0223 165.393 43.55 165.429 43.0308C165.452 42.6238 165.559 42.2552 165.75 41.925C165.944 41.5918 166.195 41.3204 166.504 41.1108C166.813 40.8981 167.151 40.7721 167.518 40.7327L167.521 40.6764C167.05 40.53 166.683 40.2489 166.421 39.8331C166.158 39.4173 166.045 38.9513 166.081 38.4353C166.11 37.9438 166.268 37.5141 166.555 37.146C166.846 36.775 167.23 36.4933 167.707 36.3008C168.185 36.1083 168.719 36.0309 169.31 36.0688C169.895 36.1062 170.411 36.2523 170.856 36.5071C171.305 36.7589 171.65 37.0873 171.891 37.4923C172.133 37.8942 172.239 38.3393 172.211 38.8276C172.175 39.3437 171.999 39.7911 171.682 40.1699C171.366 40.5486 170.971 40.781 170.497 40.8669L170.493 40.9232C170.849 41.0088 171.164 41.1766 171.437 41.4266C171.713 41.6736 171.926 41.9747 172.076 42.3299C172.23 42.6822 172.295 43.0618 172.272 43.4688C172.236 43.988 172.059 44.4417 171.742 44.8298C171.425 45.218 171.001 45.5113 170.47 45.7098C169.942 45.9085 169.345 45.9865 168.678 45.9439ZM168.754 44.7564C169.152 44.7819 169.5 44.7382 169.799 44.6254C170.099 44.5095 170.336 44.3377 170.511 44.1101C170.686 43.8794 170.785 43.603 170.809 43.2809C170.827 42.9459 170.759 42.6446 170.603 42.377C170.451 42.1096 170.233 41.8931 169.952 41.7274C169.67 41.5617 169.342 41.4669 168.966 41.4428C168.588 41.4186 168.247 41.4706 167.943 41.5988C167.64 41.7271 167.395 41.9141 167.21 42.1598C167.024 42.4056 166.922 42.696 166.904 43.031C166.88 43.3531 166.939 43.6396 167.08 43.8905C167.224 44.1385 167.439 44.3392 167.725 44.4926C168.011 44.6428 168.354 44.7308 168.754 44.7564ZM169.04 40.2835C169.36 40.304 169.647 40.2579 169.902 40.1455C170.158 40.033 170.363 39.8671 170.519 39.6477C170.677 39.4285 170.768 39.1656 170.791 38.8592C170.807 38.5586 170.751 38.2912 170.625 38.0569C170.502 37.8228 170.321 37.6368 170.081 37.4989C169.842 37.358 169.56 37.2771 169.234 37.2562C168.903 37.235 168.608 37.279 168.349 37.3881C168.094 37.4943 167.891 37.6556 167.739 37.8721C167.587 38.0886 167.502 38.3471 167.486 38.6477C167.464 38.9542 167.515 39.2261 167.641 39.4635C167.768 39.7009 167.95 39.8917 168.189 40.0358C168.431 40.1801 168.715 40.2627 169.04 40.2835ZM177.126 46.5129C176.384 46.4623 175.763 46.2261 175.263 45.8045C174.762 45.3829 174.396 44.7923 174.165 44.0329C173.934 43.2736 173.852 42.3713 173.919 41.3262C173.985 40.2843 174.181 39.403 174.507 38.6824C174.836 37.962 175.276 37.4246 175.826 37.0702C176.38 36.7161 177.024 36.5625 177.76 36.6096C178.495 36.6567 179.113 36.8926 179.614 37.3174C180.114 37.739 180.48 38.328 180.712 39.0842C180.946 39.8376 181.03 40.7352 180.963 41.7772C180.896 42.8254 180.7 43.7113 180.374 44.4351C180.048 45.1557 179.61 45.6948 179.059 46.0522C178.509 46.4066 177.864 46.5601 177.126 46.5129ZM177.206 45.2597C177.857 45.3014 178.386 45.0163 178.792 44.4046C179.202 43.793 179.446 42.8865 179.523 41.6849C179.574 40.887 179.532 40.2073 179.399 39.6458C179.268 39.0814 179.056 38.6468 178.761 38.342C178.47 38.0343 178.11 37.8667 177.681 37.8393C177.033 37.7978 176.504 38.0845 176.094 38.6991C175.684 39.3138 175.439 40.2203 175.359 41.4185C175.308 42.2195 175.348 42.9022 175.478 43.4667C175.612 44.0282 175.824 44.4612 176.116 44.7658C176.408 45.0672 176.771 45.2319 177.206 45.2597Z" fill="black"/>
<path d="M250.748 51.065L248.89 50.946L252.889 41.5503L255.038 41.6879L257.812 51.5171L255.953 51.3981L253.875 43.5928L253.8 43.588L250.748 51.065ZM251.05 47.3L256.119 47.6244L256.03 49.0231L250.961 48.6987L251.05 47.3ZM259.054 51.5966L259.516 44.3874L261.215 44.4962L260.753 51.7054L259.054 51.5966ZM260.436 43.4189C260.167 43.4017 259.941 43.2977 259.758 43.1069C259.576 42.913 259.493 42.6894 259.509 42.4359C259.525 42.1793 259.636 41.9681 259.842 41.8021C260.047 41.6331 260.285 41.5572 260.554 41.5744C260.826 41.5918 261.052 41.6974 261.231 41.8911C261.413 42.0818 261.497 42.3055 261.48 42.5621C261.464 42.8155 261.353 43.0268 261.147 43.1959C260.945 43.362 260.708 43.4364 260.436 43.4189ZM262.501 51.8172L262.962 44.608L264.609 44.7135L264.533 45.915L264.608 45.9198C264.766 45.512 265.012 45.2057 265.345 45.0009C265.682 44.7931 266.057 44.7024 266.47 44.7289C266.564 44.7349 266.668 44.7463 266.784 44.7631C266.902 44.7769 267 44.7942 267.077 44.8149L266.977 46.3778C266.907 46.3481 266.794 46.3189 266.639 46.2901C266.487 46.2584 266.339 46.238 266.195 46.2287C265.885 46.2089 265.602 46.2584 265.347 46.3771C265.094 46.4929 264.89 46.6636 264.734 46.8893C264.578 47.1149 264.491 47.3811 264.471 47.6877L264.2 51.9259L262.501 51.8172ZM272.189 45.1986L272.105 46.5128L267.961 46.2475L268.045 44.9334L272.189 45.1986ZM269.179 43.2716L270.878 43.3804L270.445 50.1484C270.43 50.3768 270.453 50.5542 270.514 50.6807C270.579 50.8042 270.667 50.8915 270.78 50.9428C270.893 50.994 271.02 51.0241 271.161 51.0331C271.267 51.0399 271.365 51.0383 271.453 51.0283C271.545 51.0184 271.615 51.0088 271.663 50.9992L271.864 52.3458C271.771 52.3713 271.639 52.3974 271.468 52.4241C271.3 52.4511 271.095 52.46 270.853 52.4508C270.427 52.4361 270.048 52.3474 269.716 52.1848C269.384 52.019 269.128 51.7795 268.947 51.4663C268.769 51.1533 268.696 50.7716 268.728 50.3213L269.179 43.2716ZM276.254 52.8389C275.531 52.7926 274.917 52.6025 274.41 52.2685C273.907 51.9315 273.532 51.4771 273.286 50.9052C273.04 50.3303 272.942 49.6657 272.99 48.9116C273.037 48.1701 273.22 47.5282 273.537 46.9862C273.858 46.4412 274.283 46.0286 274.813 45.7483C275.344 45.4649 275.953 45.3453 276.641 45.3893C277.086 45.4178 277.5 45.5166 277.885 45.6857C278.274 45.852 278.61 46.0934 278.895 46.4101C279.182 46.727 279.399 47.121 279.545 47.5922C279.691 48.0603 279.744 48.6103 279.703 49.2424L279.67 49.7633L273.761 49.3851L273.834 48.2399L278.114 48.5139C278.132 48.1883 278.08 47.8943 277.959 47.6321C277.838 47.3667 277.658 47.1525 277.42 46.9897C277.186 46.827 276.906 46.7352 276.58 46.7144C276.233 46.6922 275.922 46.7571 275.649 46.9093C275.375 47.0583 275.156 47.2642 274.992 47.527C274.831 47.7869 274.738 48.0779 274.714 48.3999L274.65 49.3996C274.624 49.8189 274.677 50.1837 274.811 50.4939C274.946 50.8009 275.145 51.0431 275.41 51.2203C275.676 51.3944 275.993 51.4932 276.362 51.5168C276.609 51.5327 276.835 51.5126 277.04 51.4565C277.245 51.3974 277.425 51.3037 277.581 51.1754C277.737 51.0472 277.859 50.8837 277.947 50.6852L279.522 50.9651C279.395 51.3779 279.181 51.7318 278.879 52.0267C278.581 52.3186 278.209 52.5367 277.763 52.681C277.317 52.8221 276.814 52.8747 276.254 52.8389ZM283.22 43.4918L282.605 53.104L280.906 52.9953L281.521 43.383L283.22 43.4918Z" fill="#8D8D8D"/>
<path d="M91.219 54.0103L90.5558 64.3716L88.3652 64.2313L88.8953 55.9494L88.8346 55.9456L86.3666 57.2811L86.491 55.3384L89.1599 53.8785L91.219 54.0103ZM97.0663 65.0169C96.1964 64.9578 95.4613 64.6957 94.8612 64.2306C94.2644 63.7657 93.8232 63.1194 93.5375 62.2917C93.2552 61.4642 93.152 60.484 93.2279 59.3509C93.3002 58.221 93.5288 57.2688 93.9137 56.4942C94.3019 55.7198 94.8213 55.1451 95.4718 54.7702C96.1259 54.3921 96.8864 54.2308 97.7532 54.2863C98.62 54.3418 99.352 54.5986 99.9492 55.0568C100.55 55.5152 100.993 56.1532 101.28 56.9707C101.566 57.7849 101.672 58.7568 101.596 59.8865C101.523 61.0231 101.292 61.9837 100.903 62.7682C100.518 63.5529 99.9995 64.1378 99.3484 64.5229C98.6972 64.9079 97.9365 65.0726 97.0663 65.0169ZM97.1826 63.2006C97.7762 63.2386 98.2692 62.9705 98.6615 62.3961C99.0539 61.8218 99.2866 60.9376 99.3597 59.7434C99.41 58.9575 99.3709 58.298 99.2425 57.7649C99.1174 57.2319 98.9166 56.8246 98.64 56.5427C98.3668 56.2611 98.0328 56.1076 97.6382 56.0823C97.048 56.0446 96.5569 56.3095 96.165 56.877C95.7731 57.4446 95.5377 58.3168 95.459 59.4937C95.4081 60.2897 95.4448 60.9592 95.5692 61.5023C95.6972 62.0421 95.8994 62.4547 96.1758 62.7399C96.4524 63.0218 96.788 63.1754 97.1826 63.2006ZM106.151 68.4583C105.453 68.4137 104.861 68.2792 104.374 68.055C103.89 67.8344 103.512 67.5511 103.239 67.2052C102.967 66.8592 102.8 66.4794 102.738 66.0657L104.749 65.9251C104.8 66.0842 104.886 66.2354 105.009 66.3787C105.132 66.522 105.299 66.6411 105.51 66.7358C105.723 66.8342 105.987 66.8934 106.301 66.9135C106.77 66.9435 107.163 66.8535 107.481 66.6436C107.803 66.4373 107.981 66.0677 108.015 65.5348L108.106 64.1131L108.015 64.1073C107.906 64.3171 107.752 64.5121 107.55 64.6923C107.349 64.8724 107.096 65.0137 106.792 65.1161C106.487 65.2186 106.129 65.2566 105.718 65.2303C105.134 65.1929 104.612 65.024 104.15 64.7235C103.692 64.4199 103.339 63.9791 103.092 63.401C102.848 62.8199 102.753 62.0992 102.808 61.2392C102.865 60.3589 103.055 59.6328 103.38 59.0609C103.704 58.489 104.114 58.0716 104.608 57.8086C105.106 57.5458 105.639 57.4327 106.209 57.4691C106.645 57.497 107.004 57.5945 107.288 57.7617C107.572 57.9255 107.797 58.1227 107.961 58.3534C108.13 58.5809 108.256 58.8024 108.34 59.0178L108.421 59.0229L108.505 57.7177L110.645 57.8546L110.143 65.7014C110.1 66.3625 109.903 66.9053 109.551 67.3298C109.198 67.7543 108.729 68.0594 108.141 68.2454C107.556 68.4348 106.893 68.5058 106.151 68.4583ZM106.504 63.655C106.852 63.6773 107.151 63.61 107.401 63.4534C107.655 63.2935 107.857 63.0558 108.006 62.7402C108.158 62.4215 108.249 62.0344 108.278 61.5791C108.307 61.1238 108.268 60.7251 108.162 60.383C108.055 60.0375 107.886 59.7642 107.655 59.5632C107.424 59.3621 107.135 59.2505 106.788 59.2282C106.434 59.2056 106.129 59.2826 105.874 59.4593C105.619 59.6326 105.418 59.884 105.272 60.2132C105.125 60.5425 105.038 60.9281 105.01 61.3699C104.981 61.8185 105.019 62.2104 105.123 62.5455C105.23 62.8775 105.398 63.1406 105.626 63.3346C105.857 63.5256 106.15 63.6324 106.504 63.655ZM111.903 65.7379L112.566 55.3767L114.721 55.5147L114.472 59.4102L114.538 59.4144C114.646 59.2114 114.796 59.0076 114.988 58.8032C115.185 58.5956 115.432 58.4286 115.732 58.3022C116.035 58.1725 116.404 58.1216 116.839 58.1495C117.405 58.1858 117.919 58.3676 118.379 58.6951C118.839 59.0192 119.193 59.4872 119.442 60.0992C119.691 60.7078 119.787 61.4573 119.73 62.3477C119.674 63.2145 119.487 63.9374 119.169 64.5165C118.855 65.0924 118.448 65.5185 117.95 65.7947C117.455 66.0679 116.912 66.1855 116.322 66.1477C115.904 66.121 115.552 66.0291 115.268 65.872C114.986 65.7151 114.76 65.5262 114.588 65.3052C114.416 65.0809 114.288 64.8576 114.204 64.6355L114.108 64.6294L114.028 65.8739L111.903 65.7379ZM114.261 61.9875C114.232 62.4496 114.27 62.8567 114.376 63.209C114.482 63.5612 114.651 63.8412 114.881 64.049C115.112 64.2534 115.401 64.3667 115.749 64.389C116.099 64.4114 116.402 64.3343 116.657 64.1576C116.913 63.9775 117.114 63.7194 117.261 63.3834C117.411 63.0442 117.501 62.6486 117.53 62.1967C117.558 61.7481 117.521 61.3495 117.418 61.0009C117.315 60.6522 117.149 60.374 116.918 60.1662C116.687 59.9584 116.395 59.8432 116.041 59.8205C115.69 59.7981 115.387 59.8718 115.133 60.0418C114.881 60.212 114.681 60.4633 114.531 60.7957C114.381 61.1282 114.291 61.5254 114.261 61.9875Z" fill="#73B051"/>
<rect x="213.422" y="56.635" width="69.7069" height="20.1379" rx="10.0599" transform="rotate(3.66233 213.422 56.635)" fill="#45B6A8"/>
<path d="M225.646 65.844L224.227 65.7531C224.201 65.5178 224.14 65.3069 224.043 65.1203C223.945 64.9312 223.82 64.7683 223.666 64.6314C223.512 64.4946 223.334 64.3879 223.13 64.3114C222.93 64.2325 222.711 64.1854 222.473 64.1702C222.05 64.1432 221.669 64.2255 221.329 64.4171C220.989 64.6061 220.714 64.8984 220.503 65.2938C220.293 65.6868 220.169 66.1754 220.132 66.7597C220.093 67.3542 220.154 67.8609 220.312 68.28C220.474 68.6967 220.71 69.0192 221.02 69.2473C221.333 69.4731 221.7 69.5994 222.12 69.6263C222.352 69.6412 222.572 69.6248 222.778 69.577C222.987 69.5269 223.176 69.4463 223.346 69.3353C223.518 69.2244 223.666 69.0839 223.788 68.914C223.913 68.7442 224.005 68.5469 224.062 68.3219L225.481 68.4204C225.404 68.7863 225.267 69.1255 225.069 69.4379C224.874 69.7505 224.627 70.0217 224.328 70.2515C224.029 70.4787 223.685 70.6498 223.296 70.7646C222.908 70.8769 222.483 70.9183 222.02 70.8886C221.337 70.8449 220.737 70.6478 220.221 70.2973C219.705 69.9467 219.312 69.4631 219.042 68.8464C218.771 68.2296 218.663 67.5039 218.716 66.6691C218.77 65.8318 218.971 65.1259 219.32 64.5514C219.67 63.9743 220.123 63.5448 220.679 63.263C221.236 62.9811 221.853 62.8618 222.531 62.9052C222.963 62.9329 223.362 63.0194 223.726 63.1646C224.09 63.3098 224.41 63.5094 224.686 63.7632C224.962 64.0146 225.182 64.3157 225.348 64.6667C225.516 65.0153 225.615 65.4077 225.646 65.844ZM233.798 67.6345C233.744 68.4718 233.542 69.1789 233.19 69.7558C232.841 70.3303 232.386 70.7584 231.827 71.0401C231.271 71.322 230.652 71.4412 229.972 71.3976C229.291 71.3541 228.692 71.1569 228.173 70.8063C227.658 70.4532 227.262 69.9694 226.986 69.3549C226.713 68.738 226.603 68.0122 226.657 67.1774C226.711 66.3401 226.912 65.6342 227.261 65.0596C227.613 64.4827 228.067 64.0533 228.624 63.7715C229.183 63.4898 229.802 63.3707 230.483 63.4142C231.163 63.4578 231.762 63.6548 232.278 64.0053C232.796 64.356 233.192 64.8398 233.465 65.4567C233.741 66.0713 233.852 66.7972 233.798 67.6345ZM232.383 67.5439C232.42 66.9545 232.36 66.4515 232.201 66.0349C232.045 65.616 231.812 65.2925 231.501 65.0643C231.191 64.8337 230.824 64.7048 230.402 64.6778C229.98 64.6507 229.6 64.7318 229.263 64.921C228.925 65.1077 228.652 65.3988 228.441 65.7943C228.233 66.1873 228.11 66.6786 228.072 67.268C228.034 67.8574 228.094 68.3615 228.25 68.7805C228.408 69.197 228.643 69.5206 228.953 69.7513C229.264 69.9795 229.63 70.1071 230.053 70.1341C230.475 70.1611 230.855 70.0813 231.192 69.8946C231.529 69.7054 231.802 69.4142 232.01 69.0211C232.221 68.6257 232.345 68.1333 232.383 67.5439ZM234.88 71.6051L235.378 63.8342L238.292 64.0207C238.889 64.0589 239.382 64.2023 239.773 64.4508C240.166 64.6995 240.454 65.0252 240.636 65.4281C240.821 65.8285 240.898 66.2754 240.867 66.7687C240.835 67.267 240.701 67.703 240.467 68.0765C240.232 68.4501 239.902 68.7351 239.478 68.9315C239.055 69.1253 238.543 69.2031 237.943 69.1647L236.012 69.0411L236.086 67.8838L237.828 67.9953C238.177 68.0176 238.466 67.9752 238.697 67.868C238.927 67.7608 239.102 67.6044 239.222 67.3987C239.345 67.1932 239.415 66.9526 239.432 66.6769C239.45 66.4011 239.411 66.1548 239.316 65.9379C239.223 65.7211 239.068 65.5474 238.85 65.4166C238.635 65.2835 238.352 65.2056 238 65.1831L236.71 65.1006L236.288 71.6952L234.88 71.6051ZM248.949 68.6042C248.895 69.4415 248.693 70.1486 248.341 70.7255C247.992 71.3001 247.537 71.7282 246.978 72.0099C246.422 72.2918 245.803 72.4109 245.123 72.3674C244.442 72.3238 243.843 72.1267 243.324 71.776C242.809 71.423 242.413 70.9392 242.137 70.3247C241.864 69.7078 241.754 68.9819 241.808 68.1472C241.862 67.3099 242.063 66.6039 242.412 66.0294C242.764 65.4525 243.218 65.0231 243.775 64.7412C244.334 64.4595 244.953 64.3404 245.634 64.384C246.314 64.4275 246.913 64.6246 247.429 64.9751C247.947 65.3258 248.343 65.8096 248.616 66.4265C248.892 67.041 249.003 67.7669 248.949 68.6042ZM247.534 68.5136C247.571 67.9242 247.511 67.4213 247.352 67.0047C247.196 66.5858 246.963 66.2623 246.652 66.0341C246.342 65.8034 245.975 65.6746 245.553 65.6475C245.131 65.6205 244.751 65.7016 244.414 65.8908C244.076 66.0775 243.803 66.3686 243.592 66.764C243.384 67.1571 243.261 67.6483 243.223 68.2377C243.185 68.8271 243.245 69.3313 243.401 69.7502C243.559 70.1668 243.794 70.4904 244.104 70.7211C244.415 70.9492 244.781 71.0768 245.204 71.1039C245.626 71.1309 246.006 71.0511 246.343 70.8644C246.68 70.6751 246.953 70.384 247.161 69.9909C247.372 69.5955 247.496 69.103 247.534 68.5136ZM250.031 72.5749L250.529 64.804L253.443 64.9905C254.04 65.0287 254.534 65.1645 254.925 65.3978C255.319 65.6313 255.608 65.9419 255.791 66.3295C255.978 66.7148 256.055 67.1554 256.023 67.6512C255.991 68.1495 255.857 68.5752 255.621 68.9284C255.388 69.2793 255.06 69.5415 254.638 69.7151C254.215 69.8862 253.705 69.9526 253.108 69.9144L251.033 69.7815L251.108 68.6129L252.993 68.7336C253.343 68.7559 253.631 68.7261 253.86 68.6443C254.089 68.5599 254.263 68.4275 254.381 68.2471C254.502 68.0643 254.571 67.8351 254.589 67.5594C254.606 67.2836 254.567 67.0449 254.471 66.8432C254.375 66.6389 254.219 66.479 254.002 66.3636C253.786 66.2456 253.503 66.1754 253.151 66.1529L251.861 66.0703L251.439 72.665L250.031 72.5749ZM254.271 69.3106L255.969 72.955L254.398 72.8544L252.734 69.2123L254.271 69.3106ZM257.978 73.0836L256.476 72.9874L259.709 65.3916L261.447 65.5028L263.689 73.4491L262.186 73.3529L260.506 67.0428L260.446 67.0389L257.978 73.0836ZM258.223 70.0398L262.321 70.3021L262.248 71.4328L258.15 71.1705L258.223 70.0398ZM263.854 66.8418L263.929 65.6617L270.129 66.0586L270.054 67.2386L267.652 67.0849L267.23 73.6757L265.834 73.5864L266.256 66.9955L263.854 66.8418ZM270.827 73.906L271.325 66.1351L276.379 66.4586L276.303 67.6386L272.657 67.4052L272.522 69.5149L275.906 69.7315L275.831 70.9116L272.446 70.6949L272.31 72.816L275.987 73.0514L275.912 74.2314L270.827 73.906Z" fill="#ECF8F6"/>
<rect x="6.18995" y="1.39642" width="309.496" height="82.1422" rx="14.2154" transform="rotate(3.6351 6.18995 1.39642)" stroke="#E5ECF5"/>
<defs>
<clipPath id="clip0_2587_436490">
<rect x="68.3862" y="101.645" width="310.496" height="83.1422" rx="14.7154" transform="rotate(-6 68.3862 101.645)" fill="white"/>
</clipPath>
<clipPath id="clip1_2587_436490">
<rect width="47.8252" height="47.8252" fill="white" transform="translate(87.7925 117.36) rotate(-6)"/>
</clipPath>
<clipPath id="clip2_2587_436490">
<rect width="30.1796" height="14.0838" fill="white" transform="translate(98.9839 134.511) rotate(-6)"/>
</clipPath>
<clipPath id="clip3_2587_436490">
<rect width="47.8252" height="47.8252" fill="white" transform="translate(22.2256 19.6096) rotate(3.6351)"/>
</clipPath>
</defs>
</svg>
