<svg width="224" height="92" viewBox="0 0 224 92" fill="none" xmlns="http://www.w3.org/2000/svg">
<g clip-path="url(#clip0_2572_50824)">
<rect x="0.947266" y="28.9666" width="237.136" height="63.4985" rx="11.2387" transform="rotate(-7 0.947266 28.9666)" fill="white"/>
<g clip-path="url(#clip1_2572_50824)">
<path d="M38.5537 74.7411C48.5648 73.5119 55.6839 64.3998 54.4547 54.3887C53.2255 44.3776 44.1134 37.2585 34.1023 38.4877C24.0912 39.7169 16.9721 48.829 18.2013 58.8401C19.4305 68.8512 28.5426 75.9703 38.5537 74.7411Z" fill="#F9EFFF"/>
<mask id="mask0_2572_50824" style="mask-type:alpha" maskUnits="userSpaceOnUse" x="24" y="44" width="25" height="25">
<rect x="24.1768" y="47.1218" width="21.8058" height="21.8058" transform="rotate(-7 24.1768 47.1218)" fill="#EFF7FD"/>
</mask>
<g mask="url(#mask0_2572_50824)">
<path d="M31.0975 62.634C30.8198 62.6681 30.5763 62.6101 30.3669 62.4601C30.1582 62.3105 30.0382 62.108 30.0068 61.8525L29.4504 57.3209C29.419 57.0654 29.4869 56.8435 29.6541 56.6551C29.822 56.4667 30.0447 56.3554 30.3224 56.3213C30.6001 56.2873 30.8436 56.3449 31.0529 56.4944C31.2617 56.6445 31.3817 56.8473 31.4131 57.1028L31.9695 61.6344C32.0009 61.8899 31.933 62.1118 31.7658 62.3002C31.5979 62.4886 31.3752 62.5999 31.0975 62.634ZM36.9774 61.912C36.6997 61.9461 36.4565 61.8881 36.2478 61.738C36.0384 61.5885 35.9181 61.3861 35.8867 61.1305L35.3303 56.599C35.2989 56.3435 35.3671 56.1215 35.535 55.9331C35.7022 55.7447 35.9246 55.6335 36.2023 55.5994C36.48 55.5653 36.7235 55.623 36.9328 55.7724C37.1416 55.9225 37.2616 56.1254 37.293 56.3809L37.8494 60.9124C37.8808 61.1679 37.8129 61.3899 37.6457 61.5782C37.4778 61.7667 37.2551 61.8779 36.9774 61.912ZM28.5759 66.6052C28.2983 66.6393 28.059 66.5808 27.8581 66.4297C27.6572 66.2792 27.5411 66.0762 27.5097 65.8207C27.4784 65.5652 27.5462 65.3396 27.7131 65.144C27.8794 64.9478 28.1013 64.8327 28.379 64.7986L46.0432 62.6297C46.3209 62.5956 46.5602 62.6541 46.7611 62.8052C46.9619 62.9557 47.078 63.1587 47.1094 63.4142C47.1408 63.6697 47.073 63.8953 46.906 64.0909C46.7398 64.2871 46.5178 64.4022 46.2402 64.4363L28.5759 66.6052ZM42.8573 61.1901C42.5796 61.2241 42.3364 61.1661 42.1277 61.016C41.9183 60.8666 41.798 60.6641 41.7666 60.4086L41.2102 55.877C41.1788 55.6215 41.247 55.3995 41.4149 55.2111C41.5821 55.0227 41.8045 54.9115 42.0822 54.8774C42.3599 54.8433 42.603 54.901 42.8117 55.0506C43.0211 55.2006 43.1415 55.4034 43.1729 55.6589L43.7293 60.1905C43.7607 60.446 43.6924 60.668 43.5246 60.8564C43.3574 61.0447 43.135 61.156 42.8573 61.1901ZM36.1376 47.7807L44.859 50.5545C45.0842 50.6336 45.2655 50.76 45.4029 50.9335C45.5403 51.1076 45.6229 51.3074 45.6506 51.5329C45.6875 51.8335 45.6001 52.0996 45.3885 52.3313C45.1763 52.5636 44.9069 52.6998 44.5802 52.7399L27.406 54.8486C27.0793 54.8887 26.781 54.8222 26.5111 54.6491C26.2412 54.4766 26.0878 54.24 26.0509 53.9394C26.0251 53.729 26.0534 53.5196 26.1359 53.3111C26.2177 53.1027 26.3675 52.9394 26.5851 52.8211L34.3736 47.9973C34.6365 47.8429 34.9231 47.7467 35.2334 47.7086C35.5438 47.6705 35.8451 47.6945 36.1376 47.7807Z" fill="#CA66FF"/>
</g>
</g>
<path d="M68.0382 47.2927L67.9406 46.4941L70.0983 43.632C70.3281 43.3216 70.5158 43.0514 70.6613 42.8213C70.809 42.5885 70.9139 42.3718 70.9763 42.1712C71.0386 41.9706 71.0566 41.7633 71.0305 41.5494C71.0008 41.307 70.9182 41.1048 70.7826 40.9428C70.6467 40.7785 70.4743 40.6609 70.2654 40.5899C70.0562 40.5166 69.828 40.4951 69.5808 40.5253C69.3193 40.5573 69.0977 40.6387 68.9159 40.7695C68.734 40.9003 68.6028 41.0695 68.522 41.2772C68.4413 41.4849 68.4169 41.7195 68.4489 41.9809L67.3971 42.1096C67.3427 41.6651 67.3974 41.264 67.5611 40.9062C67.7248 40.5484 67.9738 40.2562 68.3079 40.0296C68.6418 39.8006 69.0357 39.6584 69.4897 39.6028C69.9484 39.5467 70.3637 39.5888 70.7355 39.7291C71.1094 39.8667 71.4141 40.0803 71.6498 40.37C71.8851 40.6572 72.0268 40.9969 72.0748 41.3891C72.1079 41.6601 72.0892 41.9314 72.0187 42.2029C71.9505 42.4742 71.8112 42.7844 71.6005 43.1334C71.3896 43.4801 71.0896 43.9064 70.7003 44.4123L69.435 46.1087L69.4415 46.1621L72.7288 45.7601L72.8443 46.7049L68.0382 47.2927ZM76.0728 38.899L76.9658 46.2008L75.8606 46.336L75.1027 40.1395L75.06 40.1447L73.4525 41.4993L73.3234 40.4439L74.9996 39.0303L76.0728 38.899ZM78.941 45.9593L78.8434 45.1606L81.0011 42.2985C81.2309 41.9882 81.4186 41.7179 81.5641 41.4878C81.7118 41.2551 81.8167 41.0384 81.8791 40.8378C81.9414 40.6372 81.9594 40.4299 81.9333 40.216C81.9036 39.9735 81.821 39.7713 81.6854 39.6094C81.5495 39.4451 81.3771 39.3275 81.1682 39.2565C80.959 39.1832 80.7308 39.1616 80.4836 39.1919C80.2221 39.2238 80.0005 39.3052 79.8187 39.436C79.6369 39.5668 79.5056 39.7361 79.4248 39.9438C79.3441 40.1515 79.3197 40.386 79.3517 40.6475L78.2999 40.7761C78.2455 40.3317 78.3002 39.9305 78.4639 39.5728C78.6276 39.215 78.8766 38.9228 79.2107 38.6962C79.5446 38.4672 79.9385 38.3249 80.3925 38.2694C80.8512 38.2133 81.2665 38.2554 81.6383 38.3957C82.0122 38.5333 82.3169 38.7469 82.5526 39.0365C82.7879 39.3238 82.9296 39.6635 82.9776 40.0557C83.0107 40.3266 82.992 40.5979 82.9215 40.8695C82.8534 41.1408 82.714 41.451 82.5034 41.8C82.2924 42.1466 81.9924 42.5729 81.6031 43.0789L80.3378 44.7752L80.3443 44.8287L83.6316 44.4267L83.7471 45.3715L78.941 45.9593ZM87.6553 45.0165C87.0917 45.083 86.5922 44.9934 86.1568 44.7475C85.7215 44.5016 85.3636 44.1099 85.0831 43.5724C84.8027 43.035 84.6139 42.3693 84.5168 41.5754C84.42 40.7839 84.4431 40.0948 84.586 39.508C84.7313 38.9208 84.9856 38.4555 85.3489 38.1119C85.7146 37.7681 86.1767 37.562 86.7352 37.4937C87.2938 37.4253 87.7909 37.5153 88.2266 37.7636C88.6619 38.0095 89.0197 38.4 89.2998 38.9351C89.5821 39.4675 89.7716 40.1294 89.8684 40.9209C89.9658 41.7172 89.9431 42.4099 89.8005 42.9991C89.6576 43.5859 89.4046 44.0523 89.0416 44.3983C88.6783 44.7418 88.2162 44.9479 87.6553 45.0165ZM87.5389 44.0646C88.0333 44.0041 88.39 43.7156 88.6091 43.1991C88.8305 42.6823 88.8855 41.9675 88.7738 41.0548C88.6997 40.4487 88.5729 39.9443 88.3934 39.5417C88.2159 39.1364 87.9952 38.8401 87.731 38.6529C87.469 38.463 87.1751 38.388 86.8495 38.4278C86.3575 38.488 86.0009 38.7776 85.7797 39.2968C85.5585 39.816 85.5024 40.5309 85.6114 41.4416C85.6858 42.0501 85.8117 42.5569 85.9892 42.9623C86.1687 43.3649 86.3893 43.66 86.6511 43.8475C86.9125 44.0326 87.2085 44.105 87.5389 44.0646ZM94.1362 44.2239C93.5726 44.2904 93.0731 44.2007 92.6377 43.9548C92.2024 43.7089 91.8445 43.3173 91.564 42.7798C91.2836 42.2424 91.0948 41.5767 90.9977 40.7828C90.9009 39.9913 90.924 39.3021 91.0669 38.7153C91.2122 38.1282 91.4665 37.6629 91.8298 37.3193C92.1954 36.9754 92.6576 36.7694 93.2161 36.701C93.7747 36.6327 94.2718 36.7227 94.7075 36.971C95.1428 37.2169 95.5006 37.6074 95.7807 38.1424C96.063 38.6748 96.2525 39.3368 96.3493 40.1283C96.4467 40.9246 96.424 41.6173 96.2814 42.2065C96.1385 42.7933 95.8855 43.2597 95.5225 43.6056C95.1592 43.9492 94.6971 44.1553 94.1362 44.2239ZM94.0198 43.272C94.5142 43.2115 94.8709 42.923 95.09 42.4065C95.3114 41.8897 95.3664 41.1749 95.2547 40.2622C95.1806 39.6561 95.0538 39.1517 94.8743 38.7491C94.6968 38.3438 94.476 38.0475 94.2119 37.8603C93.9499 37.6704 93.656 37.5953 93.3304 37.6352C92.8384 37.6953 92.4818 37.985 92.2606 38.5042C92.0394 39.0234 91.9833 39.7383 92.0923 40.6489C92.1667 41.2574 92.2926 41.7643 92.47 42.1696C92.6496 42.5723 92.8702 42.8673 93.132 43.0549C93.3934 43.24 93.6894 43.3124 94.0198 43.272ZM100.614 43.4099C100.125 43.4698 99.6772 43.4389 99.2715 43.3172C98.8681 43.1953 98.5365 42.9982 98.2764 42.726C98.0184 42.4512 97.8569 42.1163 97.7917 41.7214L98.9112 41.5845C98.9519 41.7991 99.0474 41.978 99.1976 42.1212C99.3499 42.2618 99.5382 42.3618 99.7626 42.4212C99.987 42.4806 100.23 42.4944 100.491 42.4624C100.779 42.4272 101.027 42.3462 101.236 42.2193C101.447 42.0922 101.605 41.9317 101.709 41.7381C101.813 41.542 101.851 41.3263 101.822 41.091C101.792 40.8462 101.703 40.6388 101.554 40.4688C101.407 40.2962 101.207 40.171 100.954 40.0934C100.704 40.0155 100.409 39.9972 100.072 40.0385L99.4551 40.1139L99.3452 39.2155L99.962 39.14C100.233 39.1069 100.465 39.0291 100.657 38.9067C100.852 38.7839 100.997 38.6287 101.092 38.4409C101.187 38.2508 101.22 38.038 101.192 37.8027C101.164 37.5769 101.089 37.3871 100.966 37.2332C100.846 37.0767 100.687 36.9622 100.49 36.8898C100.295 36.8171 100.073 36.796 99.8238 36.8265C99.5861 36.8556 99.3692 36.9267 99.1732 37.04C98.9793 37.1505 98.828 37.2945 98.7194 37.4718C98.6105 37.6468 98.565 37.8465 98.5828 38.0711L97.5168 38.2015C97.4804 37.8055 97.5544 37.4442 97.7389 37.1177C97.9257 36.7909 98.1918 36.5207 98.5372 36.3072C98.8826 36.0937 99.2787 35.9596 99.7255 35.9049C100.194 35.8477 100.609 35.8897 100.971 36.0312C101.336 36.17 101.629 36.379 101.851 36.6582C102.076 36.9371 102.209 37.2561 102.251 37.6153C102.303 38.0238 102.231 38.3848 102.036 38.6982C101.842 39.0114 101.562 39.2399 101.193 39.3839L101.2 39.4409C101.694 39.4553 102.093 39.6019 102.397 39.8807C102.704 40.1593 102.884 40.5292 102.939 40.9906C102.99 41.392 102.922 41.7658 102.735 42.1119C102.551 42.4577 102.276 42.7459 101.911 42.9763C101.546 43.2043 101.114 43.3488 100.614 43.4099ZM106.054 35.1309C106.38 35.0935 106.708 35.1137 107.038 35.1915C107.369 35.2693 107.677 35.4245 107.964 35.6573C108.253 35.8897 108.501 36.2212 108.708 36.6519C108.917 37.0798 109.064 37.6264 109.147 38.2917C109.226 38.9311 109.231 39.5082 109.164 40.023C109.096 40.5355 108.963 40.9775 108.765 41.3492C108.569 41.7205 108.312 42.0161 107.994 42.2359C107.676 42.4558 107.304 42.5917 106.879 42.6437C106.444 42.6969 106.047 42.6586 105.689 42.5288C105.33 42.3989 105.027 42.196 104.778 41.92C104.53 41.6416 104.355 41.3083 104.254 40.9202L105.342 40.7872C105.451 41.0922 105.628 41.3288 105.87 41.497C106.115 41.6625 106.412 41.7238 106.761 41.6811C107.296 41.6157 107.684 41.3317 107.927 40.8292C108.169 40.3244 108.24 39.6523 108.14 38.8129L108.083 38.8199C107.984 39.0394 107.851 39.2342 107.684 39.4043C107.519 39.574 107.327 39.7132 107.109 39.822C106.891 39.9307 106.652 40.0009 106.393 40.0326C105.972 40.084 105.577 40.0274 105.207 39.8628C104.837 39.6982 104.528 39.4477 104.279 39.1114C104.031 38.7751 103.878 38.3752 103.821 37.9117C103.765 37.4506 103.818 37.0195 103.982 36.6184C104.147 36.217 104.406 35.8838 104.757 35.6189C105.11 35.3513 105.542 35.1887 106.054 35.1309ZM106.171 36.0575C105.893 36.0915 105.651 36.1911 105.444 36.3563C105.239 36.5188 105.087 36.7244 104.987 36.973C104.887 37.2193 104.855 37.4838 104.889 37.7667C104.924 38.0495 105.017 38.2987 105.169 38.5141C105.323 38.7269 105.516 38.8878 105.749 38.9968C105.984 39.1032 106.241 39.1392 106.522 39.1049C106.731 39.0793 106.921 39.0151 107.092 38.9122C107.263 38.8093 107.407 38.6782 107.525 38.519C107.643 38.3575 107.729 38.1805 107.782 37.9882C107.836 37.7959 107.85 37.5987 107.826 37.3967C107.793 37.1281 107.698 36.8864 107.542 36.6715C107.387 36.4563 107.191 36.2922 106.953 36.179C106.714 36.0634 106.454 36.0229 106.171 36.0575ZM113.471 41.8592C112.907 41.9257 112.408 41.836 111.973 41.5901C111.537 41.3442 111.179 40.9526 110.899 40.4151C110.618 39.8777 110.43 39.212 110.333 38.4181C110.236 37.6266 110.259 36.9375 110.402 36.3506C110.547 35.7635 110.801 35.2982 111.165 34.9546C111.53 34.6107 111.992 34.4047 112.551 34.3363C113.11 34.268 113.607 34.358 114.042 34.6063C114.478 34.8522 114.835 35.2427 115.116 35.7777C115.398 36.3101 115.587 36.9721 115.684 37.7636C115.782 38.5599 115.759 39.2526 115.616 39.8418C115.473 40.4286 115.22 40.895 114.857 41.2409C114.494 41.5845 114.032 41.7906 113.471 41.8592ZM113.355 40.9073C113.849 40.8468 114.206 40.5583 114.425 40.0418C114.646 39.525 114.701 38.8102 114.59 37.8975C114.515 37.2914 114.389 36.787 114.209 36.3844C114.032 35.9791 113.811 35.6828 113.547 35.4956C113.285 35.3057 112.991 35.2306 112.665 35.2705C112.173 35.3306 111.817 35.6203 111.595 36.1395C111.374 36.6587 111.318 37.3736 111.427 38.2843C111.502 38.8927 111.627 39.3996 111.805 39.8049C111.984 40.2076 112.205 40.5026 112.467 40.6902C112.728 40.8753 113.024 40.9477 113.355 40.9073ZM119.272 33.6156L120.165 40.9175L119.06 41.0526L118.302 34.8561L118.259 34.8613L116.652 36.2159L116.523 35.1605L118.199 33.7469L119.272 33.6156ZM122.14 40.6759L122.043 39.8772L124.2 37.0152C124.43 36.7048 124.618 36.4346 124.764 36.2045C124.911 35.9717 125.016 35.755 125.078 35.5544C125.141 35.3538 125.159 35.1465 125.133 34.9326C125.103 34.6901 125.02 34.4879 124.885 34.326C124.749 34.1617 124.577 34.0441 124.368 33.9731C124.158 33.8998 123.93 33.8783 123.683 33.9085C123.422 33.9405 123.2 34.0218 123.018 34.1526C122.836 34.2834 122.705 34.4527 122.624 34.6604C122.544 34.8681 122.519 35.1027 122.551 35.3641L121.499 35.4928C121.445 35.0483 121.5 34.6472 121.663 34.2894C121.827 33.9316 122.076 33.6394 122.41 33.4128C122.744 33.1838 123.138 33.0415 123.592 32.986C124.051 32.9299 124.466 32.972 124.838 33.1123C125.212 33.2499 125.516 33.4635 125.752 33.7531C125.987 34.0404 126.129 34.3801 126.177 34.7723C126.21 35.0433 126.191 35.3145 126.121 35.5861C126.053 35.8574 125.913 36.1676 125.703 36.5166C125.492 36.8632 125.192 37.2896 124.803 37.7955L123.537 39.4918L123.544 39.5453L126.831 39.1433L126.947 40.0881L122.14 40.6759Z" fill="black"/>
<path d="M173.086 29.7408L173.173 30.4539L165.9 31.3434L165.813 30.6304L173.086 29.7408ZM173.274 31.281L173.362 31.9941L166.088 32.8837L166.001 32.1706L173.274 31.281ZM172.129 27.1511L173.022 34.4529L171.845 34.5968L167.793 30.0444L167.736 30.0514L168.344 35.025L167.018 35.1872L166.125 27.8854L167.312 27.7402L171.354 32.2975L171.422 32.2892L170.813 27.312L172.129 27.1511ZM177.117 34.0534C176.604 34.1162 176.137 34.084 175.716 33.957C175.297 33.8297 174.954 33.6232 174.685 33.3377C174.416 33.0521 174.249 32.7046 174.184 32.2951L175.525 32.1312C175.561 32.327 175.648 32.4913 175.784 32.6242C175.921 32.7546 176.093 32.8482 176.3 32.9049C176.507 32.9616 176.733 32.9749 176.978 32.945C177.239 32.913 177.466 32.8395 177.657 32.7245C177.847 32.6071 177.99 32.4594 178.084 32.2814C178.178 32.1035 178.211 31.9077 178.182 31.6941C178.157 31.4727 178.076 31.2848 177.939 31.1303C177.802 30.9758 177.617 30.8645 177.385 30.7964C177.154 30.7281 176.885 30.7128 176.576 30.7506L175.93 30.8296L175.806 29.8099L176.451 29.7309C176.705 29.6998 176.922 29.6287 177.102 29.5175C177.283 29.406 177.419 29.2639 177.509 29.0913C177.599 28.9163 177.629 28.7232 177.601 28.5119C177.578 28.3048 177.51 28.1311 177.396 27.9906C177.285 27.8474 177.138 27.7435 176.956 27.6789C176.777 27.6139 176.573 27.5954 176.345 27.6233C176.122 27.6507 175.92 27.7164 175.74 27.8204C175.559 27.9245 175.42 28.0585 175.322 28.2225C175.224 28.3841 175.183 28.5676 175.201 28.7729L173.928 28.9285C173.888 28.5185 173.962 28.1452 174.15 27.8086C174.34 27.4694 174.614 27.1897 174.973 26.9697C175.332 26.7473 175.748 26.6071 176.221 26.5493C176.708 26.4897 177.143 26.5295 177.524 26.6686C177.907 26.8051 178.216 27.0145 178.451 27.297C178.686 27.5795 178.826 27.9062 178.871 28.2769C178.924 28.6879 178.845 29.0473 178.634 29.3554C178.426 29.6631 178.129 29.8839 177.745 30.0177L177.752 30.0748C178.274 30.0833 178.691 30.2253 179.002 30.5009C179.315 30.7738 179.499 31.1386 179.552 31.5952C179.602 32.0041 179.531 32.3843 179.337 32.7361C179.146 33.0852 178.858 33.3761 178.474 33.6088C178.092 33.8412 177.64 33.9894 177.117 34.0534ZM183.575 33.2636C183.099 33.3217 182.663 33.2846 182.266 33.1523C181.868 33.0176 181.54 32.8069 181.28 32.5202C181.023 32.2332 180.863 31.8885 180.799 31.4862L182.083 31.3292C182.143 31.6258 182.302 31.8547 182.561 32.0161C182.819 32.1751 183.114 32.2344 183.444 32.194C183.703 32.1623 183.926 32.0747 184.114 31.9311C184.301 31.7876 184.44 31.6029 184.531 31.3771C184.622 31.1513 184.649 30.9031 184.614 30.6324C184.582 30.3564 184.494 30.1187 184.349 29.9193C184.204 29.7199 184.021 29.5723 183.799 29.4764C183.577 29.3781 183.332 29.3453 183.063 29.3782C182.845 29.4025 182.634 29.4693 182.433 29.5783C182.232 29.6874 182.077 29.8172 181.97 29.9678L180.752 29.9178L180.673 26.1061L184.909 25.5881L185.044 26.6934L181.903 27.0775L181.929 29.0392L181.972 29.034C182.088 28.8582 182.263 28.7029 182.498 28.568C182.732 28.4308 182.996 28.3442 183.291 28.3082C183.733 28.2541 184.14 28.3104 184.513 28.4772C184.885 28.6415 185.193 28.8933 185.438 29.2326C185.682 29.5718 185.832 29.9755 185.89 30.4438C185.949 30.9263 185.89 31.3702 185.712 31.7754C185.537 32.178 185.266 32.5116 184.898 32.7761C184.532 33.038 184.091 33.2005 183.575 33.2636ZM190.094 32.5062C189.506 32.578 188.984 32.491 188.527 32.2454C188.072 31.997 187.698 31.605 187.403 31.0693C187.11 30.5309 186.915 29.8636 186.818 29.0674C186.723 28.2708 186.753 27.5796 186.908 26.9937C187.065 26.4051 187.335 25.9379 187.717 25.592C188.102 25.2458 188.587 25.037 189.171 24.9655C189.756 24.8939 190.277 24.9798 190.734 25.2231C191.19 25.4664 191.565 25.8548 191.857 26.3885C192.151 26.9218 192.347 27.5854 192.444 28.3793C192.542 29.1779 192.512 29.8739 192.356 30.4672C192.201 31.0579 191.932 31.5275 191.547 31.876C191.165 32.2243 190.681 32.4343 190.094 32.5062ZM189.957 31.3902C190.413 31.3344 190.746 31.0657 190.955 30.5842C191.166 30.1001 191.218 29.4194 191.111 28.5424C191.04 27.9624 190.919 27.4826 190.75 27.1028C190.58 26.7231 190.373 26.4469 190.127 26.2743C189.882 26.0993 189.608 26.0302 189.306 26.0671C188.852 26.1227 188.521 26.3924 188.312 26.8763C188.103 27.3578 188.051 28.0336 188.155 28.9039C188.224 29.4865 188.342 29.969 188.509 30.3514C188.679 30.7335 188.887 31.0121 189.132 31.1871C189.378 31.3597 189.653 31.4274 189.957 31.3902ZM195.197 30.7276L195.199 31.1255C195.202 31.429 195.18 31.7405 195.132 32.06C195.087 32.3815 195.034 32.6787 194.974 32.9515C194.913 33.2243 194.863 33.4391 194.824 33.5958L193.954 33.7022C193.97 33.5531 193.991 33.3503 194.017 33.0938C194.046 32.8369 194.069 32.5495 194.086 32.2314C194.102 31.9133 194.1 31.5927 194.08 31.2695L194.056 30.8671L195.197 30.7276ZM199.182 31.3946C198.595 31.4664 198.073 31.3794 197.616 31.1338C197.161 30.8854 196.786 30.4934 196.492 29.9577C196.199 29.4193 196.004 28.752 195.907 27.9558C195.812 27.1592 195.842 26.468 195.997 25.8821C196.154 25.2935 196.424 24.8263 196.806 24.4804C197.191 24.1342 197.676 23.9254 198.26 23.8539C198.845 23.7824 199.366 23.8682 199.822 24.1115C200.279 24.3548 200.654 24.7432 200.946 25.2769C201.24 25.8102 201.436 26.4738 201.533 27.2677C201.631 28.0663 201.601 28.7623 201.444 29.3556C201.29 29.9463 201.02 30.4159 200.636 30.7644C200.254 31.1127 199.77 31.3228 199.182 31.3946ZM199.046 30.2786C199.502 30.2228 199.835 29.9541 200.044 29.4726C200.255 28.9885 200.307 28.3078 200.199 27.4308C200.129 26.8508 200.008 26.371 199.839 25.9912C199.669 25.6115 199.462 25.3353 199.216 25.1627C198.971 24.9877 198.697 24.9186 198.395 24.9556C197.941 25.0111 197.61 25.2808 197.401 25.7647C197.192 26.2462 197.14 26.922 197.244 27.7923C197.313 28.3749 197.431 28.8574 197.598 29.2398C197.768 29.6219 197.976 29.9005 198.221 30.0755C198.467 30.2481 198.742 30.3158 199.046 30.2786ZM205.879 30.5755C205.292 30.6473 204.77 30.5604 204.313 30.3148C203.858 30.0664 203.483 29.6744 203.188 29.1387C202.896 28.6003 202.701 27.933 202.603 27.1368C202.508 26.3402 202.538 25.649 202.694 25.0631C202.851 24.4745 203.12 24.0073 203.503 23.6614C203.887 23.3152 204.372 23.1064 204.957 23.0349C205.542 22.9633 206.062 23.0492 206.519 23.2925C206.976 23.5358 207.35 23.9242 207.642 24.4579C207.937 24.9912 208.132 25.6548 208.229 26.4487C208.327 27.2473 208.298 27.9433 208.141 28.5366C207.987 29.1273 207.717 29.5969 207.333 29.9454C206.951 30.2937 206.466 30.5037 205.879 30.5755ZM205.743 29.4596C206.199 29.4038 206.532 29.1351 206.74 28.6536C206.951 28.1695 207.003 27.4888 206.896 26.6118C206.825 26.0318 206.705 25.5519 206.535 25.1722C206.366 24.7925 206.158 24.5163 205.913 24.3437C205.667 24.1687 205.393 24.0996 205.092 24.1365C204.638 24.1921 204.306 24.4618 204.098 24.9456C203.889 25.4271 203.836 26.103 203.94 26.9732C204.009 27.5559 204.127 28.0384 204.295 28.4208C204.465 28.8029 204.672 29.0815 204.918 29.2565C205.163 29.4291 205.438 29.4968 205.743 29.4596ZM212.576 29.7565C211.989 29.8283 211.467 29.7414 211.009 29.4958C210.555 29.2474 210.18 28.8554 209.885 28.3197C209.592 27.7813 209.397 27.114 209.3 26.3178C209.205 25.5212 209.235 24.83 209.39 24.2441C209.547 23.6555 209.817 23.1883 210.199 22.8424C210.584 22.4962 211.069 22.2874 211.653 22.2158C212.238 22.1443 212.759 22.2302 213.216 22.4735C213.672 22.7168 214.047 23.1052 214.339 23.6389C214.633 24.1722 214.829 24.8358 214.926 25.6297C215.024 26.4283 214.994 27.1243 214.838 27.7176C214.683 28.3083 214.414 28.7779 214.029 29.1264C213.647 29.4747 213.163 29.6847 212.576 29.7565ZM212.439 28.6406C212.896 28.5848 213.228 28.3161 213.437 27.8346C213.648 27.3504 213.7 26.6698 213.593 25.7928C213.522 25.2128 213.402 24.7329 213.232 24.3532C213.063 23.9735 212.855 23.6973 212.61 23.5247C212.364 23.3497 212.09 23.2806 211.788 23.3175C211.334 23.3731 211.003 23.6428 210.794 24.1266C210.585 24.6081 210.533 25.284 210.637 26.1542C210.706 26.7369 210.824 27.2194 210.991 27.6018C211.161 27.9839 211.369 28.2625 211.615 28.4375C211.86 28.6101 212.135 28.6778 212.439 28.6406Z" fill="#8D8D8D"/>
<path d="M74.0402 56.1737L75.7043 55.9702L76.3294 61.0815C76.3996 61.6554 76.3239 62.1744 76.1024 62.6383C75.8835 63.102 75.5441 63.4841 75.0842 63.7848C74.6239 64.083 74.0684 64.2718 73.4177 64.3514C72.7643 64.4313 72.1784 64.3821 71.6599 64.2036C71.1411 64.0226 70.7196 63.7335 70.3954 63.3363C70.0711 62.9391 69.8739 62.4535 69.8037 61.8796L69.1786 56.7683L70.8427 56.5647L71.4504 61.5339C71.4871 61.8337 71.585 62.0921 71.7442 62.3093C71.9059 62.5262 72.1154 62.6865 72.3725 62.7903C72.6296 62.894 72.9183 62.9263 73.2386 62.8872C73.5614 62.8477 73.8338 62.7468 74.0558 62.5844C74.2803 62.4217 74.4437 62.2158 74.5458 61.9667C74.6506 61.7172 74.6846 61.4426 74.6479 61.1429L74.0402 56.1737ZM78.036 63.6735L77.0734 55.8027L80.2248 55.4173C80.8038 55.3465 81.2972 55.3732 81.7051 55.4976C82.113 55.6219 82.4329 55.8246 82.6649 56.1057C82.8966 56.3842 83.0366 56.7208 83.0849 57.1153C83.1225 57.4228 83.094 57.7006 82.9996 57.9488C82.9048 58.1944 82.7589 58.4047 82.5618 58.5796C82.367 58.7517 82.1363 58.8852 81.8697 58.9802L81.8791 59.0571C82.1804 59.0332 82.4713 59.0835 82.7518 59.2078C83.0348 59.3318 83.2755 59.5247 83.474 59.7865C83.6721 60.0457 83.7948 60.3687 83.8421 60.7556C83.8932 61.1732 83.835 61.5587 83.6676 61.912C83.5024 62.2625 83.2303 62.5571 82.8513 62.7959C82.4722 63.0347 81.988 63.1901 81.3987 63.2622L78.036 63.6735ZM79.5337 62.1095L80.8903 61.9435C81.354 61.8868 81.6814 61.7571 81.8725 61.5543C82.0632 61.3489 82.1404 61.0977 82.104 60.8004C82.0774 60.5827 82.0014 60.3969 81.876 60.2432C81.7505 60.0896 81.5847 59.9772 81.3784 59.9062C81.1746 59.8349 80.9395 59.8156 80.673 59.8482L79.278 60.0188L79.5337 62.1095ZM79.1403 58.8928L80.3739 58.7419C80.6019 58.714 80.7995 58.6495 80.9666 58.5485C81.1359 58.4446 81.2627 58.312 81.347 58.1509C81.4339 57.9894 81.4646 57.805 81.4392 57.5974C81.4045 57.313 81.2752 57.0961 81.0515 56.9466C80.8303 56.7969 80.5353 56.7445 80.1664 56.7896L78.902 56.9443L79.1403 58.8928ZM86.5476 62.6325L84.7644 62.8506L86.5189 54.6475L88.6633 54.3852L92.3392 61.9241L90.556 62.1422L87.8418 56.3112L87.7803 56.3187L86.5476 62.6325ZM86.0578 59.5524L90.2698 59.0372L90.4287 60.3362L86.2166 60.8514L86.0578 59.5524Z" fill="#EF9645"/>
<rect x="165.787" y="41.6321" width="52.1772" height="15.4515" rx="7.68305" transform="rotate(-6.97277 165.787 41.6321)" fill="#45B6A8"/>
<path d="M174.414 47.0383C174.357 46.7898 174.219 46.6077 174.002 46.4919C173.787 46.3758 173.521 46.3372 173.204 46.3759C172.981 46.4032 172.794 46.4602 172.643 46.547C172.492 46.6337 172.381 46.7399 172.31 46.8656C172.24 46.9912 172.213 47.1281 172.229 47.2763C172.244 47.3993 172.285 47.5025 172.352 47.586C172.42 47.6693 172.507 47.7366 172.613 47.7881C172.719 47.8376 172.834 47.8762 172.958 47.9039C173.082 47.9316 173.207 47.9524 173.331 47.9665L173.902 48.0371C174.131 48.0618 174.354 48.1057 174.57 48.1689C174.788 48.2319 174.987 48.3207 175.167 48.4352C175.349 48.5495 175.5 48.6959 175.619 48.8744C175.738 49.0529 175.814 49.2699 175.845 49.5255C175.887 49.8714 175.836 50.1868 175.691 50.4716C175.547 50.7546 175.316 50.9905 175 51.1794C174.685 51.3661 174.291 51.4883 173.819 51.5461C173.36 51.6023 172.952 51.58 172.597 51.4791C172.243 51.3781 171.954 51.2027 171.731 50.9531C171.509 50.7033 171.366 50.3833 171.303 49.9932L172.355 49.8645C172.396 50.0683 172.48 50.2315 172.608 50.3543C172.736 50.4771 172.894 50.5612 173.081 50.6066C173.27 50.6518 173.475 50.6607 173.698 50.6335C173.931 50.605 174.13 50.5455 174.297 50.455C174.465 50.3623 174.591 50.2473 174.676 50.1102C174.76 49.9712 174.793 49.817 174.774 49.6476C174.754 49.4942 174.693 49.3729 174.592 49.2837C174.491 49.1927 174.357 49.1233 174.189 49.0756C174.023 49.0257 173.831 48.9867 173.614 48.9588L172.921 48.868C172.419 48.8025 172.012 48.6603 171.698 48.4412C171.387 48.2199 171.205 47.8979 171.153 47.4752C171.111 47.1274 171.168 46.8113 171.324 46.5269C171.482 46.2423 171.716 46.008 172.025 45.8239C172.334 45.6379 172.695 45.5196 173.108 45.4691C173.527 45.4179 173.903 45.446 174.236 45.5535C174.57 45.6589 174.844 45.8292 175.056 46.0646C175.268 46.2981 175.397 46.5807 175.443 46.9124L174.414 47.0383ZM179.549 48.8648L179.235 46.2995L180.278 46.1719L180.82 50.5992L179.808 50.7229L179.712 49.936L179.666 49.9417C179.596 50.2018 179.457 50.4246 179.247 50.6101C179.04 50.7954 178.77 50.9084 178.437 50.9491C178.147 50.9845 177.883 50.9516 177.644 50.8501C177.407 50.7464 177.211 50.5783 177.056 50.3457C176.901 50.1112 176.801 49.8171 176.758 49.4635L176.413 46.6446L177.457 46.517L177.782 49.1745C177.816 49.4551 177.92 49.6686 178.094 49.815C178.268 49.9615 178.48 50.0194 178.73 49.9889C178.883 49.9701 179.028 49.9144 179.163 49.8218C179.298 49.7293 179.402 49.6034 179.476 49.4441C179.552 49.2827 179.576 49.0896 179.549 48.8648ZM183.835 50.3182C183.393 50.3723 183.001 50.3217 182.66 50.1664C182.322 50.0108 182.046 49.7725 181.833 49.4514C181.622 49.1281 181.489 48.7426 181.434 48.2949C181.379 47.8452 181.417 47.4378 181.548 47.0727C181.678 46.7057 181.89 46.4068 182.181 46.1761C182.475 45.9433 182.837 45.8004 183.27 45.7475C183.629 45.7036 183.955 45.731 184.248 45.8297C184.543 45.9263 184.787 46.0846 184.982 46.3046C185.176 46.5227 185.305 46.7898 185.367 47.1059L184.369 47.2279C184.303 47.0195 184.185 46.8535 184.016 46.7299C183.848 46.6041 183.639 46.5566 183.387 46.5874C183.174 46.6135 182.994 46.6941 182.846 46.8291C182.699 46.9622 182.593 47.1409 182.529 47.3653C182.466 47.5894 182.453 47.8504 182.49 48.1482C182.527 48.4499 182.603 48.7039 182.717 48.9102C182.832 49.1146 182.976 49.2657 183.15 49.3634C183.326 49.4589 183.522 49.4934 183.739 49.4669C183.893 49.4481 184.027 49.4025 184.141 49.33C184.257 49.2554 184.349 49.1573 184.418 49.0358C184.487 48.9142 184.527 48.7718 184.538 48.6085L185.536 48.4866C185.549 48.8028 185.491 49.0918 185.361 49.3534C185.231 49.6131 185.037 49.828 184.778 49.998C184.52 50.1661 184.205 50.2729 183.835 50.3182ZM188.519 49.7453C188.077 49.7994 187.686 49.7487 187.345 49.5934C187.006 49.4379 186.73 49.1996 186.517 48.8784C186.306 48.5552 186.173 48.1697 186.119 47.7219C186.064 47.2723 186.102 46.8649 186.232 46.4998C186.363 46.1328 186.574 45.8339 186.866 45.6032C187.159 45.3703 187.522 45.2275 187.954 45.1746C188.314 45.1306 188.64 45.158 188.933 45.2568C189.227 45.3534 189.472 45.5117 189.667 45.7317C189.861 45.9497 189.989 46.2168 190.051 46.533L189.054 46.655C188.988 46.4466 188.87 46.2806 188.701 46.157C188.533 46.0312 188.323 45.9837 188.072 46.0145C187.858 46.0406 187.678 46.1211 187.531 46.2562C187.383 46.3893 187.277 46.568 187.213 46.7923C187.151 47.0164 187.138 47.2774 187.174 47.5753C187.211 47.877 187.287 48.131 187.402 48.3373C187.517 48.5417 187.661 48.6927 187.835 48.7905C188.01 48.886 188.207 48.9205 188.424 48.894C188.578 48.8752 188.711 48.8295 188.825 48.7571C188.941 48.6825 189.033 48.5844 189.102 48.4628C189.171 48.3413 189.212 48.1989 189.223 48.0356L190.22 47.9136C190.233 48.2299 190.175 48.5189 190.045 48.7805C189.915 49.0402 189.721 49.2551 189.463 49.4251C189.205 49.5932 188.89 49.6999 188.519 49.7453ZM193.233 49.1688C192.789 49.2231 192.394 49.1778 192.049 49.0328C191.705 48.8857 191.426 48.6526 191.211 48.3336C190.997 48.0127 190.861 47.6207 190.804 47.1576C190.748 46.7022 190.786 46.292 190.917 45.9269C191.049 45.5596 191.261 45.2607 191.55 45.0303C191.84 44.7979 192.196 44.6558 192.619 44.6041C192.892 44.5708 193.154 44.5835 193.407 44.6422C193.662 44.6989 193.894 44.8071 194.102 44.9668C194.313 45.1263 194.489 45.3407 194.632 45.6101C194.773 45.8774 194.868 46.2052 194.916 46.5934L194.955 46.9133L191.326 47.3571L191.24 46.6538L193.869 46.3323C193.842 46.1327 193.777 45.9603 193.674 45.815C193.57 45.6677 193.437 45.5583 193.274 45.4865C193.113 45.4145 192.932 45.3908 192.733 45.4152C192.519 45.4413 192.338 45.5161 192.189 45.6396C192.041 45.7612 191.931 45.9111 191.861 46.0893C191.793 46.2654 191.77 46.4525 191.792 46.6506L191.867 47.2646C191.899 47.5221 191.973 47.7373 192.09 47.9102C192.206 48.0813 192.355 48.2054 192.536 48.2828C192.717 48.3582 192.921 48.382 193.148 48.3543C193.299 48.3357 193.434 48.2978 193.552 48.2404C193.67 48.1812 193.768 48.1038 193.848 48.0082C193.928 47.9126 193.984 47.7995 194.015 47.669L195.002 47.6594C194.972 47.9244 194.882 48.1635 194.733 48.3768C194.585 48.588 194.384 48.7627 194.13 48.9011C193.876 49.0375 193.577 49.1268 193.233 49.1688ZM199.174 45.0486L198.236 45.2687C198.197 45.1759 198.139 45.0914 198.061 45.0151C197.986 44.9385 197.889 44.8811 197.771 44.8428C197.653 44.8046 197.514 44.7953 197.352 44.8151C197.135 44.8416 196.958 44.911 196.822 45.0233C196.687 45.1353 196.63 45.2661 196.651 45.4158C196.664 45.5448 196.724 45.6437 196.83 45.7127C196.938 45.7814 197.108 45.828 197.339 45.8524L198.114 45.9214C198.544 45.9605 198.872 46.0656 199.1 46.2367C199.33 46.4075 199.465 46.6514 199.505 46.9682C199.538 47.247 199.486 47.503 199.351 47.736C199.217 47.9669 199.015 48.1593 198.746 48.3132C198.476 48.4671 198.156 48.5667 197.787 48.6118C197.246 48.6781 196.795 48.618 196.437 48.4317C196.079 48.2435 195.843 47.9495 195.73 47.5499L196.735 47.3275C196.806 47.5217 196.922 47.6605 197.084 47.744C197.247 47.8276 197.448 47.8546 197.688 47.8253C197.936 47.7949 198.129 47.7197 198.266 47.5995C198.406 47.4791 198.466 47.344 198.448 47.1941C198.432 47.0673 198.37 46.9685 198.262 46.8979C198.156 46.827 197.999 46.7819 197.789 46.7626L197.015 46.6965C196.579 46.66 196.247 46.5495 196.018 46.365C195.788 46.1785 195.655 45.9238 195.617 45.6007C195.582 45.3281 195.627 45.0827 195.752 44.8645C195.879 44.6442 196.071 44.4628 196.326 44.3203C196.584 44.1758 196.889 44.0818 197.243 44.0386C197.762 43.9752 198.183 44.0357 198.508 44.2203C198.835 44.4046 199.057 44.6807 199.174 45.0486ZM202.47 48.0391C202.028 48.0932 201.636 48.0425 201.296 47.8872C200.957 47.7317 200.681 47.4934 200.468 47.1723C200.257 46.849 200.124 46.4635 200.069 46.0157C200.014 45.5661 200.052 45.1587 200.183 44.7936C200.314 44.4266 200.525 44.1277 200.816 43.897C201.11 43.6642 201.473 43.5213 201.905 43.4684C202.264 43.4245 202.59 43.4519 202.883 43.5506C203.178 43.6472 203.423 43.8055 203.617 44.0255C203.812 44.2435 203.94 44.5106 204.002 44.8268L203.005 44.9488C202.938 44.7404 202.82 44.5744 202.651 44.4508C202.484 44.325 202.274 44.2775 202.022 44.3083C201.809 44.3344 201.629 44.4149 201.481 44.55C201.334 44.6831 201.228 44.8618 201.164 45.0862C201.101 45.3103 201.088 45.5712 201.125 45.8691C201.162 46.1708 201.238 46.4248 201.353 46.6311C201.467 46.8355 201.612 46.9866 201.785 47.0843C201.961 47.1798 202.157 47.2143 202.374 47.1878C202.528 47.169 202.662 47.1233 202.776 47.0509C202.892 46.9763 202.984 46.8782 203.053 46.7566C203.122 46.6351 203.162 46.4927 203.173 46.3294L204.171 46.2075C204.184 46.5237 204.126 46.8127 203.996 47.0743C203.866 47.334 203.672 47.5489 203.414 47.7189C203.155 47.887 202.841 47.9938 202.47 48.0391ZM206.914 42.9143L207.012 43.7214L204.395 44.0415L204.296 43.2344L206.914 42.9143ZM205.492 47.5817L204.9 42.7365C204.863 42.4386 204.894 42.1832 204.993 41.9703C205.094 41.7571 205.243 41.5887 205.44 41.465C205.638 41.3414 205.864 41.264 206.12 41.2327C206.301 41.2106 206.463 41.2054 206.607 41.2171C206.75 41.2288 206.857 41.242 206.927 41.2568L206.819 42.0893C206.773 42.0812 206.715 42.0746 206.646 42.0694C206.577 42.0622 206.501 42.0637 206.419 42.0738C206.225 42.0976 206.093 42.1614 206.024 42.2655C205.956 42.3673 205.933 42.5047 205.954 42.6777L206.538 47.4537L205.492 47.5817ZM210.866 45.0346L210.553 42.4693L211.596 42.3417L212.137 46.769L211.126 46.8927L211.029 46.1058L210.983 46.1115C210.914 46.3716 210.774 46.5944 210.565 46.7799C210.357 46.9652 210.087 47.0782 209.755 47.1189C209.465 47.1543 209.2 47.1214 208.962 47.0199C208.725 46.9162 208.529 46.7481 208.374 46.5155C208.218 46.281 208.119 45.9869 208.075 45.6334L207.731 42.8144L208.774 42.6868L209.099 45.3443C209.133 45.6249 209.238 45.8384 209.412 45.9848C209.585 46.1313 209.797 46.1892 210.047 46.1587C210.201 46.1399 210.345 46.0842 210.48 45.9916C210.615 45.8991 210.72 45.7732 210.794 45.6139C210.87 45.4525 210.894 45.2594 210.866 45.0346ZM213.532 40.6071L214.254 46.5101L213.21 46.6378L212.488 40.7347L213.532 40.6071Z" fill="#ECF8F6"/>
</g>
<rect x="1.26038" y="29.2112" width="236.574" height="62.9366" rx="10.9577" transform="rotate(-7 1.26038 29.2112)" stroke="#E5ECF5" stroke-width="0.561934"/>
<defs>
<clipPath id="clip0_2572_50824">
<rect x="0.947266" y="28.9666" width="237.136" height="63.4985" rx="11.2387" transform="rotate(-7 0.947266 28.9666)" fill="white"/>
</clipPath>
<clipPath id="clip1_2572_50824">
<rect width="36.5257" height="36.5257" fill="white" transform="translate(15.9756 40.7107) rotate(-7)"/>
</clipPath>
</defs>
</svg>
