<svg width="258" height="106" viewBox="0 0 258 106" fill="none" xmlns="http://www.w3.org/2000/svg">
<rect x="-27.0491" y="25.5895" width="278.31" height="79.2372" rx="10.4029" transform="rotate(-5 -27.0491 25.5895)" fill="white"/>
<rect x="-9.77051" y="40.0876" width="47.3389" height="47.3389" rx="23.6694" transform="rotate(-5 -9.77051 40.0876)" fill="#F1F7EE"/>
<rect x="-2.20605" y="46.2102" width="33.3327" height="33.3327" rx="16.6664" transform="rotate(-5 -2.20605 46.2102)" fill="#E3EFDC"/>
<rect x="5.01074" y="52.4932" width="20.0494" height="20.0494" rx="10.0247" transform="rotate(-5 5.01074 52.4932)" fill="#73B051"/>
<path d="M18.9 59.1047L14.8484 63.9332L12.6724 62.1074" stroke="#F1F7EE" stroke-width="1.02807" stroke-linecap="round" stroke-linejoin="round"/>
<path d="M55.1935 47.3423L57.6737 38.7853L58.9743 38.6715L62.879 46.6699L61.5193 46.7889L59.1909 41.9647C59.1624 41.9116 59.1034 41.7817 59.0139 41.5751C58.9322 41.3678 58.8366 41.1379 58.7271 40.8854C58.6177 40.6328 58.5182 40.4032 58.4286 40.1966C58.3383 39.9821 58.2786 39.8444 58.2495 39.7834L58.5204 39.7478C58.4848 39.8859 58.4405 40.0605 58.3875 40.2717C58.3424 40.4822 58.2904 40.7051 58.2316 40.9406C58.1806 41.1754 58.1286 41.3984 58.0756 41.6096C58.0219 41.8128 57.9773 41.9835 57.9417 42.1217L56.4941 47.2285L55.1935 47.3423ZM56.4324 45.1608L56.7977 43.8898L60.5577 43.5608L61.2092 44.7429L56.4324 45.1608ZM64.0046 46.5714L63.4615 40.3639L64.6912 40.2563L64.807 41.5806L64.5948 41.7421C64.6399 41.5317 64.7212 41.326 64.8387 41.1251C64.964 40.9235 65.119 40.7431 65.3036 40.584C65.4955 40.4163 65.7019 40.2791 65.9229 40.1724C66.1518 40.065 66.3884 40.0006 66.6328 39.9792C66.9875 39.9482 67.304 39.9801 67.5824 40.0749C67.8607 40.1697 68.097 40.3277 68.2911 40.549C68.4852 40.7703 68.6372 41.0549 68.747 41.4027L68.5537 41.372L68.6189 41.1637C68.6897 40.9748 68.7931 40.795 68.9291 40.6243C69.0723 40.4449 69.2369 40.2836 69.4229 40.1402C69.6089 39.9969 69.8092 39.8801 70.0237 39.7898C70.2382 39.6995 70.4519 39.6451 70.6647 39.6265C71.1298 39.5858 71.5204 39.6469 71.8364 39.8099C72.1604 39.9722 72.4142 40.2399 72.5977 40.6131C72.7892 40.9855 72.9101 41.4595 72.9604 42.0349L73.2863 45.7594L72.0566 45.867L71.7369 42.2134C71.7059 41.8587 71.6334 41.5751 71.5195 41.3627C71.4128 41.1417 71.264 40.9839 71.0731 40.8894C70.8821 40.7949 70.6447 40.7601 70.361 40.7849C70.1403 40.8042 69.9348 40.8619 69.7447 40.958C69.5617 41.0455 69.4051 41.1624 69.2749 41.3089C69.1448 41.4553 69.0482 41.6226 68.9853 41.8108C68.9216 41.9911 68.8991 42.1877 68.9177 42.4005L69.2425 46.1132L68.0128 46.2207L67.6911 42.5435C67.6629 42.2204 67.5918 41.9525 67.4779 41.7401C67.3633 41.5198 67.2102 41.3584 67.0185 41.2561C66.8269 41.1537 66.601 41.1139 66.3409 41.1366C66.1202 41.1559 65.9187 41.2133 65.7364 41.3087C65.5534 41.3962 65.3968 41.5131 65.2667 41.6595C65.1358 41.7981 65.0389 41.9614 64.9759 42.1496C64.9123 42.3299 64.8894 42.5226 64.9074 42.7275L65.2342 46.4638L64.0046 46.5714ZM77.7175 45.4908C77.1106 45.5439 76.5546 45.4536 76.0496 45.2198C75.5518 44.9774 75.144 44.6278 74.826 44.1711C74.5074 43.7065 74.3208 43.1629 74.2663 42.5402C74.2119 41.9175 74.3015 41.3536 74.5353 40.8486C74.7685 40.3358 75.1094 39.9207 75.5583 39.6034C76.0143 39.2776 76.5458 39.0881 77.1527 39.035C77.7518 38.9826 78.3002 39.0776 78.798 39.32C79.303 39.5538 79.7148 39.903 80.0334 40.3676C80.3514 40.8243 80.5376 41.364 80.5921 41.9867C80.6466 42.6095 80.5572 43.1772 80.3241 43.6901C80.0903 44.1951 79.7454 44.6105 79.2894 44.9363C78.8405 45.2536 78.3166 45.4384 77.7175 45.4908ZM77.6203 44.3794C77.9908 44.347 78.3139 44.2274 78.5897 44.0206C78.8648 43.8059 79.0713 43.5336 79.2093 43.2038C79.3465 42.8662 79.3936 42.4967 79.3506 42.0954C79.3226 41.6848 79.212 41.3291 79.0189 41.0283C78.8251 40.7196 78.5745 40.4873 78.2669 40.3315C77.9594 40.1757 77.6204 40.1141 77.25 40.1465C76.8795 40.1789 76.5527 40.3028 76.2698 40.5182C75.994 40.725 75.7874 40.9972 75.6502 41.3349C75.5122 41.6647 75.4648 42.0302 75.5078 42.4316C75.5351 42.8343 75.6457 43.19 75.8395 43.4987C76.0326 43.7995 76.2833 44.0317 76.5915 44.1954C76.9069 44.3505 77.2498 44.4118 77.6203 44.3794ZM84.3771 44.9082C83.9357 44.9468 83.5405 44.8781 83.1915 44.7022C82.8504 44.5255 82.5729 44.2598 82.3592 43.9052C82.1534 43.5499 82.0281 43.1161 81.9833 42.6037L81.6481 38.7728L82.8659 38.6662L83.1721 42.1661C83.2039 42.5287 83.2866 42.8392 83.4204 43.0975C83.5614 43.3473 83.7445 43.5338 83.9698 43.6571C84.2029 43.7797 84.4732 43.8275 84.7806 43.8006C85.0092 43.7806 85.215 43.7269 85.398 43.6394C85.5802 43.544 85.7325 43.4234 85.8548 43.2777C85.985 43.1313 86.0812 42.9601 86.1435 42.764C86.2057 42.5679 86.2272 42.3595 86.2079 42.1388L85.881 38.4025L87.0989 38.2959L87.642 44.5034L86.4241 44.61L86.3103 43.3094L86.5107 43.1488C86.4417 43.4488 86.3032 43.727 86.0953 43.9835C85.8952 44.2392 85.6477 44.4515 85.3527 44.6203C85.057 44.7812 84.7318 44.8772 84.3771 44.9082ZM89.3501 44.354L88.807 38.1465L90.0249 38.0399L90.1366 39.3169L89.9362 39.4774C89.9909 39.1946 90.1225 38.9289 90.3311 38.6803C90.539 38.4239 90.7944 38.2109 91.0973 38.0414C91.3995 37.8641 91.7161 37.7609 92.0472 37.7319C92.5202 37.6906 92.9226 37.7507 93.2544 37.9123C93.5856 38.066 93.8465 38.3251 94.0373 38.6897C94.2281 39.0543 94.3486 39.5243 94.3989 40.0997L94.73 43.8833L93.5121 43.9899L93.1883 40.289C93.1573 39.9343 93.0845 39.6468 92.9699 39.4264C92.8546 39.1982 92.694 39.0415 92.4879 38.9563C92.2812 38.8632 92.0327 38.8373 91.7424 38.8785C91.506 38.8992 91.2926 38.9576 91.1025 39.0537C90.9116 39.1419 90.7472 39.2595 90.6091 39.4066C90.479 39.553 90.3785 39.7207 90.3076 39.9096C90.244 40.0899 90.2211 40.2825 90.239 40.4875L90.568 44.2474L89.965 44.3002C89.8625 44.3092 89.76 44.3181 89.6575 44.3271C89.5551 44.336 89.4526 44.345 89.3501 44.354ZM97.1506 43.6715L96.4689 35.8796L97.6868 35.7731L98.3685 43.565L97.1506 43.6715ZM95.4222 38.7592L95.3187 37.5768L99.2679 37.2313L99.3713 38.4136L95.4222 38.7592Z" fill="#A5A5A5"/>
<path d="M179.585 30.6754L179.669 31.6351L169.88 32.4915L169.796 31.5318L179.585 30.6754ZM179.766 32.7484L179.85 33.7081L170.061 34.5645L169.977 33.6048L179.766 32.7484ZM178.489 27.1544L179.349 36.982L177.554 37.139L172.742 31.3272L172.665 31.3339L173.206 37.5194L171.133 37.7007L170.274 27.8732L172.092 27.714L176.88 33.5231L176.961 33.516L176.421 27.3354L178.489 27.1544ZM184.565 26.6228L185.425 36.4504L183.347 36.6322L182.66 28.7768L182.602 28.7819L180.475 30.3896L180.314 28.5469L182.612 26.7937L184.565 26.6228ZM191.633 36.1249C190.807 36.1939 190.079 36.0529 189.449 35.7018C188.822 35.3505 188.315 34.8066 187.928 34.07C187.544 33.3331 187.307 32.4271 187.216 31.3519C187.123 30.2802 187.201 29.353 187.452 28.5703C187.706 27.7874 188.111 27.1733 188.669 26.728C189.229 26.2792 189.92 26.0189 190.742 25.947C191.565 25.875 192.289 26.0115 192.915 26.3564C193.545 26.7011 194.053 27.2369 194.439 27.9639C194.825 28.6877 195.063 29.5856 195.153 30.6575C195.248 31.7356 195.168 32.671 194.915 33.4635C194.666 34.2558 194.262 34.8794 193.706 35.3343C193.149 35.7891 192.458 36.0527 191.633 36.1249ZM191.482 34.4022C192.045 34.3529 192.47 34.0305 192.756 33.4348C193.043 32.8392 193.135 31.9753 193.032 30.8431C192.967 30.0977 192.836 29.4838 192.639 29.0014C192.445 28.5187 192.198 28.1647 191.898 27.9396C191.601 27.7141 191.266 27.6177 190.891 27.6505C190.332 27.6995 189.908 28.0186 189.621 28.6078C189.334 29.197 189.238 30.05 189.333 31.1668C189.399 31.9218 189.529 32.5454 189.724 33.0377C189.921 33.5265 190.17 33.8851 190.47 34.1135C190.771 34.3387 191.108 34.4349 191.482 34.4022ZM200.936 35.3109C200.111 35.3799 199.383 35.2389 198.752 34.8879C198.125 34.5366 197.618 33.9927 197.231 33.2561C196.848 32.5192 196.611 31.6132 196.52 30.538C196.426 29.4663 196.504 28.5391 196.755 27.7564C197.009 26.9734 197.415 26.3593 197.972 25.9141C198.532 25.4653 199.224 25.205 200.046 25.133C200.868 25.0611 201.592 25.1976 202.219 25.5425C202.849 25.8871 203.356 26.4229 203.742 27.1499C204.128 27.8737 204.366 28.7716 204.457 29.8436C204.551 30.9217 204.472 31.857 204.219 32.6496C203.969 33.4419 203.566 34.0655 203.009 34.5203C202.453 34.9752 201.762 35.2387 200.936 35.3109ZM200.785 33.5882C201.349 33.539 201.773 33.2165 202.06 32.6209C202.346 32.0253 202.438 31.1614 202.336 30.0292C202.27 29.2838 202.139 28.6699 201.942 28.1874C201.749 27.7047 201.502 27.3508 201.202 27.1256C200.905 26.9002 200.569 26.8038 200.195 26.8366C199.635 26.8855 199.212 27.2046 198.925 27.7939C198.638 28.3831 198.541 29.2361 198.636 30.3528C198.702 31.1078 198.832 31.7315 199.027 32.2238C199.224 32.7126 199.473 33.0712 199.774 33.2996C200.074 33.5248 200.411 33.621 200.785 33.5882ZM208.095 33.1131L208.088 33.6456C208.084 34.0715 208.04 34.4992 207.959 34.9286C207.881 35.361 207.792 35.7539 207.694 36.1074C207.6 36.4606 207.522 36.7382 207.463 36.94L206.138 37.0559C206.17 36.863 206.212 36.5933 206.266 36.2469C206.319 35.9037 206.365 35.5194 206.402 35.0939C206.439 34.6684 206.448 34.2372 206.429 33.8005L206.406 33.2609L208.095 33.1131ZM213.539 34.2084C212.713 34.2774 211.985 34.1364 211.355 33.7853C210.728 33.434 210.221 32.8901 209.834 32.1535C209.45 31.4166 209.213 30.5106 209.122 29.4354C209.028 28.3637 209.107 27.4365 209.358 26.6538C209.611 25.8709 210.017 25.2568 210.574 24.8115C211.135 24.3627 211.826 24.1024 212.648 24.0305C213.47 23.9585 214.195 24.095 214.821 24.4399C215.451 24.7846 215.959 25.3204 216.345 26.0474C216.73 26.7712 216.969 27.6691 217.059 28.741C217.153 29.8191 217.074 30.7545 216.821 31.547C216.571 32.3393 216.168 32.9629 215.611 33.4178C215.055 33.8726 214.364 34.1362 213.539 34.2084ZM213.388 32.4857C213.951 32.4364 214.376 32.114 214.662 31.5183C214.948 30.9227 215.04 30.0588 214.938 28.9266C214.873 28.1812 214.742 27.5673 214.545 27.0849C214.351 26.6022 214.104 26.2482 213.804 26.0231C213.507 25.7976 213.171 25.7012 212.797 25.734C212.237 25.783 211.814 26.1021 211.527 26.6913C211.24 27.2805 211.144 28.1335 211.238 29.2503C211.304 30.0053 211.435 30.6289 211.629 31.1212C211.827 31.61 212.076 31.9686 212.376 32.197C212.676 32.4222 213.014 32.5184 213.388 32.4857ZM222.842 33.3944C222.016 33.4634 221.288 33.3224 220.658 32.9714C220.031 32.6201 219.524 32.0761 219.137 31.3396C218.754 30.6027 218.516 29.6967 218.426 28.6215C218.332 27.5498 218.41 26.6226 218.661 25.8399C218.915 25.0569 219.32 24.4428 219.878 23.9976C220.438 23.5488 221.129 23.2885 221.951 23.2165C222.774 23.1446 223.498 23.2811 224.125 23.626C224.754 23.9706 225.262 24.5064 225.648 25.2334C226.034 25.9572 226.272 26.8551 226.362 27.9271C226.457 29.0052 226.377 29.9405 226.124 30.7331C225.875 31.5254 225.471 32.149 224.915 32.6038C224.358 33.0587 223.667 33.3222 222.842 33.3944ZM222.691 31.6717C223.254 31.6225 223.679 31.3 223.965 30.7044C224.252 30.1088 224.344 29.2449 224.241 28.1127C224.176 27.3673 224.045 26.7534 223.848 26.2709C223.654 25.7882 223.408 25.4343 223.107 25.2091C222.81 24.9837 222.475 24.8873 222.101 24.9201C221.541 24.969 221.117 25.2881 220.83 25.8774C220.543 26.4666 220.447 27.3196 220.542 28.4363C220.608 29.1913 220.738 29.815 220.933 30.3073C221.13 30.7961 221.379 31.1547 221.68 31.3831C221.98 31.6083 222.317 31.7045 222.691 31.6717ZM232.145 32.5805C231.32 32.6495 230.592 32.5085 229.961 32.1575C229.334 31.8062 228.827 31.2622 228.441 30.5256C228.057 29.7887 227.82 28.8827 227.729 27.8076C227.635 26.7359 227.714 25.8087 227.964 25.026C228.218 24.243 228.624 23.6289 229.181 23.1836C229.741 22.7349 230.433 22.4745 231.255 22.4026C232.077 22.3307 232.801 22.4672 233.428 22.8121C234.058 23.1567 234.565 23.6925 234.951 24.4195C235.337 25.1433 235.575 26.0412 235.666 27.1132C235.76 28.1913 235.681 29.1266 235.428 29.9192C235.178 30.7114 234.775 31.335 234.218 31.7899C233.662 32.2447 232.971 32.5083 232.145 32.5805ZM231.995 30.8578C232.558 30.8085 232.982 30.4861 233.269 29.8905C233.555 29.2948 233.647 28.4309 233.545 27.2987C233.48 26.5533 233.349 25.9394 233.152 25.457C232.958 24.9743 232.711 24.6204 232.411 24.3952C232.114 24.1697 231.778 24.0734 231.404 24.1061C230.844 24.1551 230.421 24.4742 230.134 25.0634C229.847 25.6527 229.751 26.5056 229.845 27.6224C229.911 28.3774 230.041 29.001 230.236 29.4933C230.433 29.9822 230.682 30.3408 230.983 30.5691C231.283 30.7943 231.62 30.8905 231.995 30.8578Z" fill="#73B051"/>
<path d="M58.6235 76.6039L57.8994 68.3273L61.352 68.0252C61.8801 67.979 62.3324 68.0189 62.7088 68.1448C63.0852 68.2707 63.3778 68.4834 63.5867 68.7828C63.8028 69.0737 63.9305 69.4438 63.9698 69.8931C64.0091 70.3424 63.9164 70.7357 63.6917 71.0731C63.475 71.4098 63.151 71.6566 62.72 71.8134L62.6993 71.5769C63.0766 71.6234 63.4122 71.737 63.7061 71.9178C63.9992 72.0907 64.2337 72.3204 64.4097 72.6068C64.5936 72.8926 64.7024 73.2286 64.7362 73.6148C64.7707 74.0089 64.7383 74.3652 64.6391 74.6837C64.547 74.9936 64.3878 75.2617 64.1614 75.488C63.9428 75.7136 63.6689 75.8964 63.3396 76.0364C63.0096 76.1686 62.6279 76.2536 62.1943 76.2915L58.6235 76.6039ZM59.7929 75.2625L62.0158 75.0681C62.339 75.0398 62.6068 74.9687 62.8192 74.8548C63.0396 74.7402 63.2009 74.5871 63.3033 74.3954C63.4129 74.1952 63.4563 73.9651 63.4335 73.7049C63.4121 73.4606 63.3269 73.2576 63.1777 73.0959C63.0364 72.9335 62.8437 72.8193 62.5996 72.7533C62.3549 72.6794 62.0709 72.6565 61.7477 72.6848L59.584 72.8741L59.7929 75.2625ZM59.4764 71.6444L61.581 71.4603C61.8175 71.4396 62.0223 71.3741 62.1953 71.2636C62.3762 71.1525 62.5106 71.0096 62.5986 70.8351C62.6945 70.66 62.7331 70.4659 62.7145 70.2531C62.6835 69.8984 62.5414 69.6368 62.2884 69.4683C62.0354 69.2998 61.6882 69.2349 61.2467 69.2735L59.284 69.4452L59.4764 71.6444ZM69.2598 75.7925C68.6213 75.8484 68.0421 75.764 67.522 75.5395C67.0092 75.3063 66.5902 74.9657 66.265 74.5176C65.9477 74.0688 65.7622 73.5369 65.7084 72.9221C65.6657 72.4334 65.7055 71.9811 65.828 71.5653C65.9505 71.1495 66.1369 70.7837 66.3873 70.4679C66.6448 70.1436 66.9599 69.8857 67.3323 69.6942C67.7119 69.4942 68.1304 69.3742 68.5876 69.3342C68.9896 69.299 69.3709 69.3451 69.7315 69.4724C70.0914 69.5918 70.4093 69.7745 70.6849 70.0205C70.9685 70.2657 71.1935 70.5677 71.3599 70.9265C71.5335 71.2766 71.6354 71.6689 71.6654 72.1031L71.6991 72.6244L66.6267 73.0681L66.2699 72.1224L70.562 71.7469L70.4022 71.9634L70.3774 71.6796C70.331 71.4216 70.2239 71.1966 70.0562 71.0048C69.8885 70.8129 69.6852 70.6679 69.4462 70.5697C69.2073 70.4714 68.9538 70.434 68.6858 70.4575C68.2602 70.4947 67.9088 70.6089 67.6316 70.7999C67.3537 70.9831 67.1537 71.2389 67.0315 71.5673C66.9086 71.8878 66.8672 72.2766 66.9072 72.7338C66.9451 73.1674 67.0689 73.5378 67.2785 73.8451C67.4873 74.1446 67.7649 74.3665 68.1111 74.511C68.4574 74.6554 68.8473 74.7087 69.2808 74.6707C69.5882 74.6438 69.8675 74.5678 70.1187 74.4426C70.3777 74.3166 70.6492 74.1062 70.9332 73.8113L71.6236 74.6207C71.4509 74.8264 71.2329 75.0123 70.9694 75.1783C70.7138 75.3436 70.4361 75.4831 70.1363 75.5967C69.8436 75.7017 69.5515 75.767 69.2598 75.7925ZM73.2807 75.3216L72.7376 69.1141L73.9554 69.0076L74.0671 70.2845L73.8667 70.445C73.9214 70.1622 74.0531 69.8966 74.2616 69.648C74.4696 69.3915 74.725 69.1785 75.0278 69.009C75.33 68.8317 75.6467 68.7285 75.9777 68.6996C76.4507 68.6582 76.8531 68.7183 77.1849 68.8799C77.5161 69.0336 77.7771 69.2927 77.9678 69.6573C78.1586 70.0219 78.2791 70.4919 78.3295 71.0673L78.6605 74.8509L77.4426 74.9575L77.1189 71.2566C77.0878 70.9019 77.015 70.6144 76.9004 70.3941C76.7851 70.1659 76.6245 70.0092 76.4185 69.9239C76.2117 69.8308 75.9632 69.8049 75.673 69.8462C75.4365 69.8669 75.2232 69.9252 75.033 70.0213C74.8421 70.1095 74.6777 70.2271 74.5396 70.3742C74.4095 70.5207 74.309 70.6883 74.2381 70.8772C74.1745 71.0575 74.1516 71.2501 74.1696 71.4551L74.4985 75.2151L73.8955 75.2678C73.793 75.2768 73.6905 75.2857 73.5881 75.2947C73.4856 75.3037 73.3831 75.3126 73.2807 75.3216ZM83.2198 74.5712C82.5813 74.627 82.002 74.5427 81.482 74.3181C80.9691 74.085 80.5501 73.7444 80.225 73.2963C79.9077 72.8474 79.7222 72.3156 79.6684 71.7008C79.6256 71.2121 79.6655 70.7598 79.788 70.344C79.9104 69.9282 80.0969 69.5624 80.3472 69.2466C80.6048 68.9222 80.9198 68.6643 81.2923 68.4729C81.6719 68.2729 82.0903 68.1529 82.5475 68.1129C82.9495 68.0777 83.3308 68.1238 83.6915 68.2511C84.0514 68.3705 84.3692 68.5532 84.6449 68.7991C84.9285 69.0444 85.1535 69.3464 85.3199 69.7051C85.4935 70.0553 85.5953 70.4475 85.6254 70.8817L85.6591 71.403L80.5866 71.8468L80.2299 70.901L84.5219 70.5255L84.3621 70.7421L84.3373 70.4583C84.2909 70.2002 84.1839 69.9753 84.0162 69.7834C83.8485 69.5916 83.6451 69.4466 83.4062 69.3483C83.1673 69.2501 82.9138 69.2127 82.6458 69.2361C82.2201 69.2734 81.8687 69.3875 81.5915 69.5786C81.3137 69.7617 81.1137 70.0175 80.9915 70.3459C80.8686 70.6664 80.8272 71.0553 80.8672 71.5125C80.9051 71.946 81.0288 72.3165 81.2384 72.6238C81.4473 72.9232 81.7249 73.1452 82.0711 73.2896C82.4173 73.4341 82.8072 73.4873 83.2408 73.4494C83.5482 73.4225 83.8275 73.3464 84.0786 73.2212C84.3377 73.0953 84.6092 72.8849 84.8932 72.59L85.5835 73.3993C85.4109 73.6051 85.1928 73.7909 84.9294 73.957C84.6738 74.1223 84.396 74.2618 84.0962 74.3754C83.8036 74.4804 83.5114 74.5457 83.2198 74.5712ZM87.9146 74.0413L87.3105 67.1362C87.2794 66.7815 87.3307 66.4593 87.4642 66.1696C87.5977 65.8799 87.7955 65.6442 88.0576 65.4624C88.3197 65.2806 88.632 65.1739 88.9946 65.1421C89.2469 65.1201 89.4875 65.1467 89.7165 65.2219C89.9455 65.2972 90.1338 65.4078 90.2816 65.5538L89.9495 66.524C89.8388 66.4384 89.7179 66.3735 89.587 66.3294C89.4632 66.2767 89.3462 66.2551 89.2358 66.2648C89.0703 66.2793 88.9308 66.3193 88.8174 66.3848C88.7112 66.4418 88.6353 66.5278 88.5898 66.643C88.5436 66.7503 88.527 66.8788 88.5401 67.0286L89.1442 73.9337L88.5294 73.9875C88.4269 73.9965 88.3245 74.0054 88.222 74.0144C88.1195 74.0234 88.017 74.0323 87.9146 74.0413ZM86.4859 69.1504L86.3876 68.0271L90.0766 67.7044L90.1749 68.8276L86.4859 69.1504ZM92.0884 73.6761L91.5453 67.4686L92.7631 67.3621L93.3062 73.5696L92.0884 73.6761ZM92.0165 66.0454C91.7564 66.0681 91.5495 66.0187 91.3959 65.8971C91.2423 65.7755 91.1548 65.5925 91.1334 65.3482C91.1134 65.1196 91.1681 64.9281 91.2976 64.7738C91.435 64.6189 91.6298 64.5303 91.882 64.5083C92.1421 64.4855 92.349 64.5349 92.5026 64.6565C92.6562 64.7781 92.7437 64.9611 92.7651 65.2054C92.7851 65.434 92.7264 65.6258 92.5891 65.7808C92.4596 65.9351 92.2687 66.0233 92.0165 66.0454ZM97.8203 73.2938C97.2448 73.3442 96.7161 73.2474 96.2341 73.0037C95.76 72.7592 95.3675 72.4043 95.0567 71.9391C94.7539 71.4731 94.5759 70.9367 94.5228 70.3297C94.4697 69.7227 94.5518 69.1635 94.7692 68.652C94.9944 68.1399 95.3193 67.7223 95.7438 67.3992C96.1761 67.0754 96.68 66.8884 97.2554 66.838C97.8072 66.7897 98.3178 66.8602 98.7871 67.0495C99.2636 67.2302 99.6369 67.5034 99.9072 67.8689L99.3057 68.7556C99.1637 68.5853 98.9876 68.4339 98.7774 68.3014C98.5673 68.1688 98.348 68.0689 98.1197 68.0015C97.8915 67.9341 97.6748 67.9093 97.4699 67.9273C97.0915 67.9604 96.7608 68.0846 96.4779 68.3C96.2021 68.5068 95.9916 68.7794 95.8465 69.1178C95.7013 69.4561 95.6463 69.8263 95.6815 70.2283C95.7167 70.6303 95.8391 70.985 96.0486 71.2923C96.2575 71.5918 96.52 71.823 96.8361 71.9859C97.1522 72.1489 97.4915 72.2145 97.8541 72.1828C98.0669 72.1642 98.2688 72.1108 98.4596 72.0226C98.6584 71.9337 98.8461 71.8101 99.0229 71.6516C99.1997 71.4932 99.3619 71.3043 99.5095 71.0848L100.256 71.8536C100.035 72.2303 99.6975 72.5537 99.2446 72.8237C98.7995 73.093 98.3247 73.2497 97.8203 73.2938ZM101.702 72.8351L101.159 66.6276L102.377 66.521L102.92 72.7285L101.702 72.8351ZM101.63 65.2043C101.37 65.227 101.163 65.1776 101.009 65.056C100.856 64.9344 100.768 64.7515 100.747 64.5071C100.727 64.2785 100.782 64.0871 100.911 63.9328C101.048 63.7778 101.243 63.6893 101.495 63.6672C101.756 63.6444 101.962 63.6938 102.116 63.8154C102.27 63.937 102.357 64.12 102.379 64.3644C102.399 64.593 102.34 64.7847 102.202 64.9397C102.073 65.094 101.882 65.1822 101.63 65.2043ZM107.19 72.474C106.678 72.5189 106.197 72.418 105.746 72.1715C105.303 71.9243 104.935 71.5673 104.64 71.1007C104.345 70.634 104.17 70.0933 104.116 69.4784C104.062 68.8557 104.14 68.2929 104.35 67.79C104.567 67.2785 104.881 66.8659 105.29 66.5521C105.707 66.2376 106.188 66.0565 106.732 66.0089C107.055 65.9806 107.355 66.0021 107.631 66.0732C107.907 66.1444 108.152 66.258 108.364 66.4142C108.583 66.5618 108.766 66.7404 108.911 66.9501C109.065 67.1591 109.168 67.3883 109.222 67.6378L108.941 67.567L108.801 65.959L110.03 65.8514L110.573 72.0589L109.344 72.1665L109.214 70.6885L109.491 70.5809C109.462 70.7979 109.382 71.0154 109.25 71.2334C109.126 71.4429 108.956 71.6365 108.741 71.8141C108.534 71.9911 108.297 72.1389 108.029 72.2577C107.77 72.3757 107.49 72.4478 107.19 72.474ZM107.411 71.3228C107.782 71.2904 108.101 71.1712 108.369 70.965C108.637 70.7589 108.836 70.4913 108.966 70.1622C109.103 69.8245 109.154 69.4508 109.118 69.0409C109.083 68.6389 108.969 68.2874 108.776 67.9866C108.59 67.6851 108.348 67.4561 108.048 67.2997C107.749 67.1432 107.414 67.0811 107.043 67.1136C106.68 67.1453 106.365 67.2642 106.097 67.4703C105.837 67.6758 105.638 67.9434 105.5 68.2732C105.37 68.6023 105.323 68.9678 105.358 69.3698C105.394 69.7797 105.505 70.1394 105.691 70.4487C105.884 70.7496 106.126 70.9786 106.418 71.1357C106.718 71.2922 107.049 71.3546 107.411 71.3228ZM112.274 71.9101L111.731 65.7026L112.96 65.5951L113.131 67.546L112.972 67.0834C113.032 66.7763 113.154 66.4915 113.338 66.2293C113.529 65.9663 113.753 65.7521 114.008 65.5868C114.272 65.4208 114.549 65.325 114.841 65.2995C114.975 65.2878 115.102 65.2885 115.222 65.3018C115.351 65.3145 115.451 65.3334 115.525 65.3588L115.322 66.711C115.224 66.6798 115.115 66.6576 114.994 66.6443C114.881 66.6224 114.769 66.6163 114.659 66.626C114.446 66.6446 114.245 66.7059 114.056 66.8098C113.873 66.9052 113.714 67.0343 113.577 67.1972C113.448 67.3515 113.348 67.531 113.279 67.7356C113.209 67.9324 113.184 68.1451 113.204 68.3737L113.504 71.8026L112.274 71.9101ZM118.321 74.1214L119.321 71.1149L119.418 72.0834L115.707 65.3547L117.126 65.2306L119.465 69.6249C119.511 69.7003 119.569 69.8184 119.639 69.9791C119.708 70.1319 119.769 70.2854 119.822 70.4396L119.521 70.5374C119.569 70.3664 119.614 70.1957 119.655 70.0253C119.703 69.8543 119.748 69.6836 119.788 69.5132L121.016 64.8903L122.459 64.7641L120.448 71.195L119.634 74.0066L118.321 74.1214Z" fill="#A5A5A5"/>
<rect x="165.149" y="53.6199" width="73.3369" height="18.2246" rx="9.11229" transform="rotate(-5 165.149 53.6199)" fill="#45B6A8"/>
<path d="M176.656 65.6042C176.045 65.6577 175.494 65.6218 175.005 65.4965C174.517 65.3731 174.096 65.1656 173.742 64.874C173.388 64.5805 173.107 64.2104 172.897 63.7635C172.688 63.3166 172.557 62.7965 172.503 62.2031C172.454 61.6229 172.495 61.0926 172.625 60.6122C172.754 60.1298 172.969 59.7084 173.267 59.348C173.566 58.9857 173.944 58.6946 174.402 58.4748C174.86 58.2549 175.39 58.1186 175.993 58.0658C176.562 58.0161 177.073 58.0584 177.526 58.1927C177.981 58.3268 178.374 58.5348 178.703 58.8167C179.035 59.0966 179.296 59.4353 179.487 59.8329C179.68 60.2285 179.798 60.6658 179.84 61.1449C179.869 61.4766 179.871 61.793 179.846 62.0942C179.822 62.3935 179.758 62.6629 179.656 62.9024C179.556 63.1418 179.408 63.3385 179.212 63.4925C179.016 63.6444 178.763 63.7399 178.452 63.7789C178.257 63.8057 178.083 63.8023 177.932 63.7687C177.78 63.735 177.655 63.6727 177.555 63.5818C177.457 63.4887 177.39 63.3704 177.354 63.227L177.319 63.2301C177.284 63.3503 177.209 63.4644 177.094 63.5723C176.98 63.678 176.835 63.7659 176.659 63.836C176.484 63.9042 176.285 63.9431 176.063 63.9527C175.825 63.9618 175.601 63.9266 175.391 63.8473C175.182 63.7659 174.996 63.6434 174.831 63.48C174.668 63.3144 174.535 63.1091 174.431 62.8641C174.328 62.6191 174.262 62.3365 174.234 62.0165C174.207 61.7042 174.227 61.4248 174.295 61.1784C174.364 60.932 174.465 60.7179 174.6 60.5361C174.736 60.3541 174.896 60.2073 175.077 60.0956C175.259 59.982 175.449 59.9028 175.649 59.858C175.856 59.8106 176.053 59.7963 176.24 59.815C176.427 59.8338 176.585 59.8738 176.714 59.9349C176.844 59.9958 176.929 60.0675 176.967 60.1502L177.008 60.1466L176.979 59.8207L177.791 59.7497L178.034 62.5196C178.048 62.6649 178.093 62.7792 178.169 62.8625C178.247 62.9456 178.348 62.9817 178.472 62.9709C178.627 62.9573 178.747 62.8853 178.831 62.7547C178.917 62.6221 178.97 62.4259 178.991 62.1661C179.013 61.9043 179.005 61.5726 178.968 61.1713C178.941 60.8414 178.871 60.5465 178.759 60.2866C178.648 60.0246 178.503 59.7988 178.324 59.6093C178.145 59.4197 177.938 59.2668 177.701 59.1507C177.466 59.0325 177.208 58.9505 176.929 58.9046C176.649 58.8587 176.354 58.8493 176.044 58.8765C175.568 58.918 175.157 59.0274 174.809 59.2044C174.461 59.3795 174.176 59.6106 173.955 59.8977C173.736 60.1847 173.58 60.5159 173.488 60.8914C173.397 61.2649 173.371 61.6717 173.41 62.112C173.451 62.5834 173.551 62.9958 173.711 63.3492C173.873 63.7006 174.09 63.9895 174.362 64.2159C174.634 64.4422 174.96 64.6033 175.339 64.6991C175.721 64.7947 176.152 64.8215 176.633 64.7794C176.855 64.76 177.069 64.7237 177.278 64.6702C177.486 64.6168 177.673 64.5595 177.837 64.4982C178.002 64.4368 178.128 64.3847 178.216 64.3418L178.528 65.0592C178.414 65.1318 178.256 65.2062 178.055 65.2824C177.857 65.3584 177.636 65.4256 177.393 65.484C177.152 65.5423 176.906 65.5823 176.656 65.6042ZM176.231 63.0965C176.477 63.075 176.67 63.0102 176.809 62.9023C176.948 62.7924 177.041 62.6396 177.089 62.4439C177.136 62.2482 177.146 62.0089 177.12 61.7259C177.097 61.4621 177.045 61.2487 176.964 61.0857C176.883 60.9227 176.767 60.8068 176.614 60.7381C176.461 60.6694 176.265 60.6455 176.024 60.6666C175.807 60.6856 175.626 60.7512 175.482 60.8636C175.339 60.9757 175.235 61.1227 175.168 61.3044C175.104 61.4839 175.081 61.6843 175.101 61.9054C175.12 62.1266 175.17 62.3323 175.252 62.5226C175.334 62.7108 175.455 62.8595 175.613 62.9688C175.773 63.076 175.979 63.1186 176.231 63.0965ZM186.187 60.9355C186.243 61.5776 186.171 62.138 185.97 62.6168C185.772 63.0935 185.476 63.4712 185.084 63.7498C184.694 64.0282 184.239 64.1903 183.717 64.2359C183.195 64.2816 182.717 64.2012 182.283 63.9949C181.85 63.7865 181.493 63.4649 181.213 63.0301C180.934 62.5932 180.767 62.0547 180.711 61.4146C180.655 60.7726 180.726 60.2132 180.925 59.7365C181.125 59.2577 181.421 58.879 181.811 58.6006C182.203 58.322 182.659 58.1599 183.181 58.1142C183.703 58.0686 184.18 58.149 184.613 58.3555C185.047 58.5618 185.403 58.8834 185.682 59.3203C185.962 59.7551 186.131 60.2935 186.187 60.9355ZM185.102 61.0305C185.062 60.5785 184.958 60.2036 184.789 59.9056C184.622 59.6055 184.408 59.3868 184.145 59.2495C183.883 59.1102 183.59 59.0548 183.266 59.0831C182.942 59.1114 182.663 59.217 182.429 59.3997C182.194 59.5805 182.02 59.8332 181.906 60.1579C181.793 60.4804 181.757 60.8677 181.796 61.3196C181.836 61.7716 181.939 62.1476 182.106 62.4477C182.275 62.7456 182.49 62.9643 182.753 63.1035C183.015 63.2409 183.308 63.2954 183.632 63.267C183.956 63.2387 184.235 63.1341 184.469 62.9533C184.704 62.7706 184.877 62.518 184.99 62.1954C185.104 61.8707 185.141 61.4824 185.102 61.0305ZM187.422 63.8297L187.031 59.3606L188.037 59.2726L188.104 60.0319L188.156 60.0274C188.227 59.7632 188.363 59.5499 188.566 59.3875C188.769 59.2232 189.019 59.128 189.318 59.1018C189.621 59.0754 189.882 59.1268 190.103 59.256C190.325 59.3832 190.49 59.5691 190.597 59.8138L190.644 59.8097C190.721 59.5528 190.87 59.3403 191.092 59.1724C191.316 59.0023 191.59 58.9031 191.913 58.8748C192.325 58.8388 192.672 58.9394 192.954 59.1766C193.237 59.4138 193.4 59.7816 193.444 60.2801L193.706 63.2799L192.65 63.3723L192.402 60.5355C192.378 60.2581 192.286 60.0618 192.127 59.9467C191.969 59.8296 191.783 59.7804 191.569 59.7991C191.315 59.8213 191.123 59.9183 190.994 60.0899C190.866 60.2594 190.813 60.4702 190.835 60.7224L191.079 63.5097L190.046 63.6001L189.794 60.7196C189.774 60.4888 189.688 60.3106 189.536 60.1851C189.386 60.0595 189.2 60.0064 188.977 60.0259C188.826 60.0392 188.691 60.09 188.574 60.1784C188.456 60.265 188.367 60.3813 188.305 60.5274C188.244 60.6715 188.221 60.8358 188.237 61.02L188.475 63.7375L187.422 63.8297ZM196.732 63.1031C196.295 63.1413 195.909 63.0784 195.572 62.9143C195.235 62.7503 194.963 62.5034 194.756 62.1736C194.552 61.8436 194.429 61.4477 194.389 60.9861C194.348 60.5245 194.4 60.1124 194.544 59.7499C194.691 59.3873 194.915 59.0959 195.218 58.8759C195.522 58.6559 195.892 58.5268 196.328 58.4886C196.764 58.4504 197.151 58.5133 197.488 58.6773C197.825 58.8414 198.096 59.0893 198.301 59.4213C198.507 59.753 198.631 60.1497 198.672 60.6114C198.712 61.073 198.659 61.4842 198.513 61.8449C198.368 62.2055 198.144 62.4958 197.841 62.7158C197.538 62.9358 197.168 63.0649 196.732 63.1031ZM196.664 62.2588C196.9 62.2381 197.093 62.1558 197.24 62.012C197.388 61.8661 197.491 61.6793 197.549 61.4514C197.609 61.2233 197.627 60.9735 197.603 60.7019C197.58 60.4284 197.518 60.1846 197.419 59.9704C197.322 59.7541 197.188 59.587 197.018 59.469C196.847 59.351 196.644 59.3024 196.407 59.3231C196.164 59.3443 195.968 59.4279 195.819 59.5739C195.671 59.7197 195.568 59.9076 195.508 60.1377C195.449 60.3656 195.432 60.6163 195.456 60.8898C195.48 61.1613 195.54 61.4043 195.637 61.6186C195.736 61.8328 195.871 61.9989 196.041 62.1168C196.214 62.2327 196.421 62.28 196.664 62.2588ZM200.554 62.6808L198.9 58.3222L199.974 58.2283L201.034 61.3018L201.075 61.2983L201.603 58.0857L202.665 57.9928L203.741 61.0474L203.785 61.0436L204.286 57.851L205.362 57.7568L204.487 62.3366L203.391 62.4326L202.288 59.4858L202.227 59.4911L201.654 62.5845L200.554 62.6808ZM208.318 62.0895C207.881 62.1277 207.494 62.0647 207.158 61.9007C206.821 61.7367 206.549 61.4898 206.342 61.1599C206.137 60.8299 206.015 60.4341 205.974 59.9725C205.934 59.5108 205.986 59.0988 206.13 58.7363C206.276 58.3736 206.501 58.0823 206.804 57.8623C207.108 57.6422 207.477 57.5131 207.914 57.4749C208.35 57.4368 208.737 57.4997 209.074 57.6637C209.411 57.8277 209.681 58.0757 209.886 58.4077C210.093 58.7394 210.217 59.1361 210.257 59.5978C210.298 60.0594 210.245 60.4706 210.098 60.8313C209.954 61.1918 209.73 61.4821 209.427 61.7022C209.124 61.9222 208.754 62.0513 208.318 62.0895ZM208.25 61.2452C208.486 61.2245 208.678 61.1422 208.826 60.9983C208.974 60.8525 209.076 60.6657 209.135 60.4377C209.195 60.2097 209.213 59.9598 209.189 59.6883C209.165 59.4148 209.104 59.171 209.005 58.9568C208.908 58.7405 208.774 58.5734 208.604 58.4554C208.433 58.3374 208.229 58.2888 207.993 58.3095C207.75 58.3307 207.554 58.4143 207.405 58.5603C207.257 58.7061 207.154 58.894 207.094 59.124C207.035 59.3519 207.018 59.6026 207.042 59.8761C207.066 60.1477 207.126 60.3906 207.223 60.605C207.322 60.8192 207.457 60.9852 207.627 61.1032C207.8 61.2191 208.007 61.2664 208.25 61.2452ZM212.169 59.0259L212.399 61.6445L211.345 61.7366L210.954 57.2676L211.961 57.1795L212.027 57.9389L212.08 57.9343C212.161 57.6751 212.307 57.4619 212.519 57.2948C212.733 57.1276 213.007 57.0293 213.341 57.0001C213.649 56.9732 213.924 57.0156 214.164 57.1275C214.406 57.2392 214.602 57.4146 214.75 57.6538C214.899 57.8928 214.989 58.1909 215.018 58.548L215.267 61.3935L214.214 61.4856L213.979 58.803C213.953 58.5043 213.855 58.2774 213.685 58.1222C213.517 57.9669 213.297 57.9011 213.026 57.9248C212.842 57.9409 212.681 57.996 212.545 58.09C212.41 58.182 212.309 58.3071 212.241 58.4656C212.174 58.6238 212.151 58.8106 212.169 59.0259ZM219.022 59.171L218.795 56.5816L219.849 56.4894L220.24 60.9585L219.218 61.0478L219.149 60.2535L219.102 60.2576C219.023 60.5166 218.876 60.7358 218.659 60.915C218.444 61.0941 218.168 61.1983 217.833 61.2277C217.54 61.2533 217.275 61.211 217.039 61.1007C216.804 60.9883 216.613 60.8125 216.465 60.5733C216.317 60.3322 216.227 60.0332 216.196 59.6763L215.947 56.8308L217 56.7386L217.235 59.4212C217.26 59.7044 217.357 59.9226 217.527 60.0759C217.697 60.2291 217.908 60.2947 218.16 60.2726C218.315 60.2591 218.462 60.2081 218.601 60.1197C218.74 60.0313 218.849 59.9084 218.929 59.7509C219.011 59.5913 219.042 59.398 219.022 59.171ZM223.28 60.7804C222.843 60.8186 222.457 60.7557 222.12 60.5917C221.783 60.4276 221.511 60.1807 221.305 59.8509C221.1 59.5209 220.977 59.1251 220.937 58.6634C220.896 58.2018 220.948 57.7897 221.093 57.4272C221.239 57.0646 221.463 56.7733 221.767 56.5532C222.07 56.3332 222.44 56.2041 222.876 56.1659C223.313 56.1277 223.699 56.1906 224.036 56.3547C224.373 56.5187 224.644 56.7667 224.849 57.0986C225.056 57.4304 225.179 57.8271 225.22 58.2887C225.26 58.7504 225.207 59.1616 225.061 59.5223C224.916 59.8828 224.693 60.1731 224.389 60.3931C224.086 60.6132 223.716 60.7423 223.28 60.7804ZM223.212 59.9362C223.448 59.9155 223.641 59.8332 223.788 59.6893C223.936 59.5435 224.039 59.3566 224.097 59.1287C224.157 58.9006 224.175 58.6508 224.152 58.3792C224.128 58.1057 224.066 57.8619 223.967 57.6477C223.87 57.4315 223.736 57.2643 223.566 57.1464C223.395 57.0284 223.192 56.9797 222.955 57.0004C222.713 57.0217 222.517 57.1052 222.367 57.2512C222.22 57.397 222.116 57.585 222.056 57.815C221.998 58.0429 221.98 58.2936 222.004 58.5671C222.028 58.8387 222.088 59.0816 222.185 59.2959C222.284 59.5101 222.419 59.6762 222.59 59.7942C222.762 59.9101 222.969 59.9574 223.212 59.9362ZM226.84 54.3767L227.361 60.3354L226.308 60.4276L225.786 54.4688L226.84 54.3767ZM229.738 60.2184C229.455 60.2432 229.195 60.215 228.959 60.134C228.725 60.0509 228.534 59.9152 228.384 59.727C228.237 59.5386 228.15 59.2979 228.125 59.005C228.103 58.7528 228.131 58.5403 228.21 58.3672C228.288 58.1942 228.404 58.0512 228.556 57.9382C228.709 57.8252 228.883 57.7346 229.081 57.6666C229.28 57.5964 229.487 57.5401 229.702 57.4978C229.962 57.4478 230.172 57.405 230.333 57.3694C230.494 57.3318 230.609 57.2866 230.679 57.2336C230.75 57.1784 230.781 57.1005 230.773 56.9996L230.771 56.9821C230.752 56.763 230.672 56.5989 230.532 56.49C230.391 56.3811 230.199 56.3374 229.954 56.3588C229.696 56.3813 229.497 56.4555 229.355 56.5812C229.216 56.7068 229.126 56.8485 229.087 57.0063L228.092 56.9527C228.146 56.6743 228.254 56.4362 228.416 56.2383C228.579 56.0384 228.785 55.8816 229.035 55.7678C229.285 55.6521 229.566 55.5806 229.878 55.5533C230.093 55.5345 230.31 55.541 230.528 55.5727C230.745 55.6045 230.948 55.6708 231.134 55.7718C231.321 55.8708 231.476 56.0145 231.6 56.203C231.726 56.3914 231.802 56.634 231.828 56.9307L232.09 59.9217L231.077 60.0103L231.023 59.3964L230.988 59.3995C230.935 59.5292 230.855 59.6535 230.748 59.7723C230.643 59.889 230.506 59.9879 230.338 60.0692C230.17 60.1483 229.971 60.198 229.738 60.2184ZM229.944 59.4205C230.155 59.402 230.335 59.3443 230.483 59.2473C230.63 59.1484 230.74 59.0254 230.811 58.8785C230.884 58.7313 230.913 58.5753 230.899 58.4105L230.853 57.8838C230.822 57.9139 230.768 57.944 230.691 57.9743C230.615 58.0043 230.53 58.0323 230.434 58.0583C230.339 58.0842 230.244 58.1081 230.15 58.13C230.056 58.1519 229.975 58.1708 229.906 58.1866C229.751 58.2217 229.613 58.2689 229.493 58.3282C229.373 58.3876 229.281 58.464 229.217 58.5576C229.153 58.6492 229.127 58.7629 229.139 58.8987C229.156 59.0927 229.239 59.2329 229.389 59.3195C229.54 59.406 229.724 59.4397 229.944 59.4205Z" fill="#ECF8F6"/>
<rect x="-27.0491" y="25.5895" width="278.31" height="79.2372" rx="10.4029" transform="rotate(-5 -27.0491 25.5895)" stroke="#E5ECF5"/>
</svg>
