<svg width="120" height="40" viewBox="0 0 120 40" fill="none" xmlns="http://www.w3.org/2000/svg">
<path d="M31.9984 25.1255C31.7611 24.3543 31.4497 23.5682 31.0789 22.7821C31.0195 22.8711 26.6886 28.8929 16.9884 34.6329C17.0329 34.6626 17.0922 34.6922 17.1367 34.7219C17.2702 34.7961 17.3889 34.8702 17.5223 34.9296C17.6558 35.0037 17.8042 35.0779 17.9376 35.1372C18.5754 35.4635 19.2132 35.7453 19.8213 35.9826C19.9548 36.042 20.0883 36.0864 20.2218 36.1309C20.2366 36.1309 20.2514 36.1458 20.2663 36.1458C20.4146 36.2051 20.5629 36.2496 20.7112 36.2941C21.4973 36.5462 22.2834 36.7242 23.0102 36.8281C23.1585 36.8429 23.3069 36.8726 23.4552 36.8874C23.6777 36.9022 23.8705 36.917 24.0485 36.9319C24.1819 36.9319 24.3154 36.9467 24.4341 36.9467C26.2436 36.9467 27.7268 36.3979 28.7799 35.3597L31.0047 33.1349C32.7252 31.4144 33.0664 28.5666 31.9984 25.1255ZM20.2663 35.2114C20.2218 35.1965 20.1773 35.1817 20.118 35.152C19.5692 34.9444 19.1539 34.7961 18.5754 34.5143L20.6964 33.1497C20.7557 33.1794 21.2452 33.4167 21.2897 33.4463C21.3787 33.4908 21.4825 33.5205 21.5715 33.565C21.6457 33.5947 21.7198 33.6243 21.794 33.654L20.2663 35.2114ZM23.3365 35.9975C23.2624 35.9826 23.203 35.9826 23.1289 35.9678C22.5059 35.8788 21.8533 35.7305 21.1859 35.5228L22.7284 33.9803C22.8174 34.01 22.9064 34.0396 22.9954 34.0693C23.0844 34.099 23.1734 34.1286 23.2624 34.1435C23.3514 34.1731 23.4255 34.188 23.5145 34.2176H23.5293C23.6183 34.2473 23.7073 34.2621 23.7963 34.2918C23.9743 34.3363 24.1375 34.3808 24.3154 34.4104C24.3896 34.4253 24.4638 34.4401 24.5379 34.4549C24.6121 34.4698 24.6714 34.4846 24.7456 34.4994C24.7752 34.4994 24.7901 34.5143 24.8197 34.5143L23.3365 35.9975ZM28.1718 34.7367C27.3115 35.597 26.0508 36.0568 24.5082 36.0716L25.9025 34.6774C25.9321 34.6774 25.9618 34.6774 26.0063 34.6922C26.0656 34.6922 26.1398 34.7071 26.1991 34.7071C26.2881 34.7071 26.3623 34.7219 26.4513 34.7219C26.5254 34.7219 26.6144 34.7219 26.6886 34.7219C26.7182 34.7219 26.7479 34.7219 26.7924 34.7219C26.8221 34.7219 26.8666 34.7219 26.8962 34.7219H26.9259C27 34.7219 27.0594 34.7219 27.1335 34.7071C27.1484 34.7071 27.1484 34.7071 27.1632 34.7071C27.2374 34.7071 27.2967 34.6922 27.3708 34.6922C27.445 34.6922 27.5043 34.6774 27.5785 34.6774C27.5785 34.6774 27.5785 34.6774 27.5933 34.6774C27.7416 34.6626 27.8751 34.6477 28.0086 34.6181C28.068 34.6032 28.1421 34.5884 28.2014 34.5884C28.2756 34.5736 28.3349 34.5588 28.4091 34.5439L28.1718 34.7367ZM36.2404 9.86333C34.9945 8.09832 32.3693 8.08348 30.3966 8.38013C27.89 8.75093 24.7901 9.83367 21.4528 11.5245C21.438 11.5394 21.3194 11.5839 21.3045 11.5987C21.2749 11.569 21.2304 11.5542 21.2007 11.5245C19.3319 10.2638 17.4185 9.29971 15.5645 8.72126C12.1235 7.63852 9.29053 7.97966 7.58485 9.70018L5.36003 11.925C4.24763 13.0374 3.69885 14.6838 3.77301 16.6564C3.77301 16.8492 3.78784 17.0421 3.8175 17.2645C3.8175 17.2794 3.8175 17.2942 3.8175 17.2942C3.83233 17.4277 3.84717 17.5612 3.862 17.7095L3.92133 18.1248C3.99549 18.5253 4.1883 19.2817 4.32179 19.7415L4.39595 19.9788V19.9936C4.44044 20.1271 4.48494 20.2755 4.54427 20.4534C4.54427 20.4683 4.55911 20.4831 4.55911 20.4979C4.61844 20.6463 4.66293 20.7797 4.70743 20.8984C4.94474 21.5214 5.22655 22.1591 5.55286 22.7969C5.58252 22.8414 5.59735 22.9007 5.62702 22.9452C5.65668 23.0046 5.68634 23.0639 5.71601 23.1232C3.50603 25.437 1.84483 27.6915 0.91041 29.6493C-0.498638 32.5713 -0.00917386 34.2769 0.628606 35.1817C1.51853 36.4424 3.12039 36.8132 4.67776 36.8132C5.30071 36.8132 5.90882 36.7539 6.47244 36.6649C8.9494 36.2941 11.99 35.241 15.2679 33.5947C15.3124 33.565 15.3717 33.5502 15.4162 33.5205C15.4162 33.5205 15.431 33.5205 15.431 33.5057C15.4459 33.5057 15.4458 33.4908 15.4458 33.4908C15.5793 33.4167 15.7128 33.3574 15.8463 33.2832C15.9205 33.2387 16.0095 33.1942 16.0985 33.1497C16.1133 33.1349 16.1281 33.1349 16.1578 33.12C16.2023 33.0904 16.2468 33.0755 16.3061 33.0459C16.6028 32.8827 16.9142 32.7196 17.2257 32.5564C17.5965 32.3488 17.9821 32.1263 18.3678 31.9038C18.4123 31.8741 18.4568 31.8593 18.5013 31.8296C18.5161 31.8148 18.5458 31.8 18.5606 31.8C18.6792 31.7258 18.7979 31.6517 18.9166 31.5923C19.05 31.5033 19.1984 31.4292 19.3319 31.3402C19.9251 30.9842 20.5036 30.6134 21.0969 30.2278L21.3045 30.0943C21.8681 29.7235 22.4318 29.3379 22.9806 28.9374C25.2054 27.3504 27.267 25.6743 29.1359 23.939C29.7143 23.3902 30.2779 22.8414 30.8119 22.2926C30.8267 22.2778 30.8267 22.2629 30.8416 22.2629C30.8861 22.2185 30.9306 22.174 30.975 22.1295C33.2592 19.7563 34.9797 17.4425 35.9438 15.4254C37.3677 12.4738 36.8782 10.7829 36.2404 9.86333ZM13.3694 27.9881C13.4584 28.0623 13.5325 28.1513 13.6215 28.2254C13.844 28.4331 14.0665 28.6408 14.2889 28.8336C14.3928 28.9226 14.4966 29.0264 14.6004 29.1154C14.6449 29.145 14.6746 29.1895 14.7191 29.2192L13.1024 30.8359L13.0727 30.8211C12.6129 30.4206 12.1531 30.0053 11.723 29.59L13.3397 27.9733C13.3545 27.9733 13.3694 27.9881 13.3694 27.9881ZM11.5005 26.0006C11.5302 26.0303 11.545 26.06 11.5747 26.0896L11.5895 26.1193C11.6043 26.149 11.634 26.1638 11.6488 26.1786C11.6637 26.1935 11.6933 26.2231 11.7082 26.238C11.7675 26.3121 11.8417 26.3863 11.9158 26.4604C11.99 26.5346 12.0493 26.6088 12.1235 26.6829C12.1531 26.7126 12.168 26.7422 12.1976 26.7571C12.2866 26.8461 12.3756 26.9351 12.4498 27.0389C12.5536 27.1427 12.6426 27.2465 12.7464 27.3504L11.1297 28.9671C10.7144 28.5369 10.2991 28.092 9.89866 27.6173C9.89866 27.6025 9.88382 27.6025 9.88382 27.6025L11.5005 26.0006C11.4857 25.9858 11.4857 25.9858 11.5005 26.0006ZM9.92832 24.028C9.95799 24.0576 9.98765 24.1021 10.0025 24.1318C10.0766 24.2356 10.1508 24.3246 10.225 24.4284C10.2843 24.5174 10.3585 24.6064 10.4178 24.6954C10.4623 24.7547 10.5216 24.8141 10.5661 24.8882C10.6403 24.9772 10.7144 25.0811 10.7886 25.17C10.8331 25.2294 10.8776 25.2739 10.9221 25.3332L9.3202 26.9351C8.93457 26.4604 8.56377 25.971 8.22263 25.4964C8.2078 25.4815 8.19297 25.4667 8.19297 25.437L9.79483 23.8352C9.83933 23.8945 9.88383 23.9686 9.92832 24.028ZM8.45994 21.7735C8.5341 21.907 8.60826 22.0405 8.69725 22.174C8.77141 22.3074 8.86041 22.4409 8.93457 22.5744C8.9494 22.5893 8.9494 22.6041 8.96424 22.6189C8.97907 22.6338 8.97906 22.6486 8.99389 22.6634C9.00873 22.6782 9.02357 22.7079 9.0384 22.7227C9.05323 22.7376 9.06806 22.7672 9.08289 22.7821C9.15705 22.9007 9.23121 23.0046 9.30537 23.1084L7.70351 24.7102C7.54036 24.4581 7.3772 24.206 7.22888 23.9686C7.22888 23.9686 7.22888 23.9686 7.24371 23.9538L7.21404 23.9241C7.06572 23.672 6.91741 23.4199 6.78392 23.1677C6.76909 23.138 6.75426 23.1084 6.73942 23.0787L8.32645 21.4917C8.34128 21.5807 8.40061 21.6845 8.45994 21.7735ZM5.98298 12.5331L6.19064 12.3255V12.3403C6.1758 12.3996 6.16097 12.4441 6.16097 12.5034C6.14614 12.5479 6.14614 12.6073 6.1313 12.6518C6.1313 12.6666 6.1313 12.6666 6.1313 12.6814C6.11647 12.7111 6.11648 12.7556 6.11648 12.7853C6.10164 12.8298 6.10164 12.8742 6.10164 12.9187C6.10164 12.9632 6.08681 13.0077 6.08681 13.0671C6.08681 13.0967 6.07198 13.1264 6.07198 13.1709C6.05715 13.2895 6.04232 13.4082 6.04232 13.5269C6.04232 13.5714 6.04231 13.6307 6.02748 13.6752C6.01265 13.8977 6.01265 14.1201 6.02748 14.3426C6.02748 14.3871 6.02748 14.4316 6.02748 14.4761C6.02748 14.5354 6.02748 14.5799 6.04232 14.6393C6.04232 14.6986 6.05714 14.7727 6.05714 14.8469L4.66293 16.2411C4.6481 14.6689 5.10789 13.3934 5.98298 12.5331ZM4.92991 18.5549C4.90024 18.3473 4.75192 17.5019 4.72226 17.3535L6.1758 15.9C6.29446 16.5674 6.47245 17.2645 6.70976 17.9765L5.18206 19.5042C5.1079 19.2224 5.00407 18.8664 4.92991 18.5549ZM5.53802 20.5721C5.52319 20.5276 5.50836 20.4831 5.4787 20.4386L7.03607 18.8812C7.06573 18.9554 7.09539 19.0147 7.12506 19.0889C7.28821 19.5042 7.48102 19.9195 7.68867 20.3348C7.73317 20.4238 7.77767 20.5128 7.82216 20.6018C7.837 20.6314 7.85183 20.6463 7.86666 20.6759L6.27962 22.2481C5.99782 21.6993 5.74567 21.1209 5.53802 20.5721ZM1.68168 32.9124V32.8679C1.68168 32.8827 1.68168 32.8976 1.68168 32.9124ZM1.8745 31.7851C1.8745 31.7555 1.88933 31.7407 1.88933 31.711C1.88933 31.7407 1.88933 31.7555 1.8745 31.7851ZM8.62309 33.8765C8.1633 33.9358 7.67384 33.9951 7.16955 33.9951C5.90882 33.9951 4.61844 33.6985 3.89166 32.6899C3.37254 31.9631 2.98691 30.5986 4.11414 28.2403C4.6036 27.2465 5.31554 26.149 6.23513 25.0069C5.90882 25.3777 5.59735 25.7337 5.30071 26.0748C5.68635 25.6002 6.11648 25.1107 6.5911 24.6064C6.72459 24.8289 6.85808 25.0366 7.0064 25.259C7.08056 25.3777 7.16956 25.4963 7.25855 25.6298C7.25855 25.6298 7.25855 25.6298 7.25855 25.6447C7.34754 25.7633 7.42169 25.882 7.51069 26.0006C7.86666 26.5049 8.2523 27.0092 8.66759 27.5135C8.75659 27.6322 8.86041 27.736 8.9494 27.8546C9.03839 27.9733 9.14222 28.0771 9.23121 28.1958C9.64651 28.6704 10.0766 29.145 10.5068 29.59C10.6106 29.6938 10.7144 29.7976 10.8182 29.9015C10.9221 30.0053 11.0259 30.1091 11.1297 30.2129C11.5747 30.6431 12.0345 31.0732 12.5239 31.4885C12.6426 31.5923 12.7464 31.6813 12.8651 31.7703C12.9837 31.8593 13.0876 31.9631 13.2062 32.0521C13.3397 32.1708 13.488 32.2746 13.6363 32.3933C11.7823 33.1497 10.0766 33.654 8.62309 33.8765ZM16.5879 30.9842C16.5434 30.9991 16.5138 31.0287 16.4693 31.0435C16.4544 31.0584 16.4396 31.0584 16.4248 31.0732C16.3654 31.1029 16.2913 31.1474 16.232 31.177C16.1281 31.2364 16.0095 31.2809 15.9056 31.3402C15.9056 31.3402 15.8908 31.3402 15.8908 31.355C15.8908 31.355 15.876 31.355 15.876 31.3699C15.8315 31.3847 15.8018 31.4144 15.7573 31.4292C15.342 31.6368 14.9416 31.8296 14.5411 32.0076C14.289 31.8148 14.0368 31.622 13.7847 31.4292L15.4014 29.8125C15.4607 29.857 15.5052 29.9015 15.5645 29.946C15.6387 30.0053 15.7128 30.0646 15.8018 30.124C15.876 30.1833 15.9501 30.2426 16.0391 30.3019C16.0836 30.3316 16.1281 30.3761 16.1726 30.4058C16.2171 30.4354 16.2616 30.4651 16.3061 30.5096C16.3209 30.5244 16.3358 30.5393 16.3506 30.5393C16.3803 30.5541 16.4099 30.5837 16.4248 30.5986C16.4693 30.6282 16.5138 30.6579 16.5583 30.7024C16.6176 30.7469 16.6769 30.7914 16.7363 30.8359C16.7659 30.8507 16.7956 30.8804 16.8252 30.8952C16.7214 30.9101 16.6621 30.9397 16.5879 30.9842ZM32.4879 16.8196C31.9243 17.9913 31.0344 19.2817 29.8923 20.6314C29.8923 20.6166 29.8775 20.6166 29.8775 20.6018C28.7354 18.7181 27.267 16.8641 25.5613 15.1584C24.6862 14.2833 23.7815 13.4824 22.8471 12.7408C24.7456 11.9398 26.4957 11.4059 27.979 11.1834C29.5808 10.9461 31.687 10.9609 32.7104 12.37C33.2444 13.0967 33.63 14.4613 32.4879 16.8196ZM19.2874 3.27789V2.69944C20.7706 2.69944 21.9868 1.48321 21.9868 0H22.5652C22.5652 1.48321 23.7815 2.69944 25.2647 2.69944V3.27789C23.7815 3.27789 22.5652 4.49412 22.5652 5.97733H21.9868C21.9868 4.49412 20.7706 3.27789 19.2874 3.27789Z" fill="#A6B0BF"/>
<path d="M55.8778 27.8547C53.7865 27.8547 52.0066 27.4097 50.5382 26.5346C49.055 25.6595 47.9278 24.4136 47.112 22.8118C46.3111 21.2099 45.9106 19.3262 45.9106 17.1607C45.9106 14.9952 46.3111 13.1116 47.112 11.5097C47.913 9.90784 49.055 8.67678 50.5382 7.78686C52.0066 6.91176 53.8013 6.4668 55.8778 6.4668C57.9395 6.4668 59.7193 6.91176 61.2025 7.78686C62.6857 8.66195 63.8278 9.90784 64.6287 11.5097C65.4297 13.1116 65.8153 14.9952 65.8153 17.1607C65.8153 19.3262 65.4148 21.2099 64.6287 22.8118C63.8278 24.4136 62.7006 25.6447 61.2025 26.5346C59.7045 27.4245 57.9395 27.8547 55.8778 27.8547ZM55.8778 23.3605C57.0495 23.3605 58.0136 23.1826 58.7404 22.8118C59.4672 22.4558 60.016 21.818 60.3571 20.9281C60.6982 20.0233 60.8614 18.7774 60.8614 17.1607C60.8614 15.5292 60.6982 14.2685 60.3571 13.3786C60.016 12.4886 59.482 11.8657 58.7404 11.5097C58.0136 11.1537 57.0495 10.9609 55.8778 10.9609C54.6764 10.9609 53.7123 11.1389 52.9855 11.5097C52.2588 11.8657 51.71 12.4886 51.3689 13.3786C51.0277 14.2685 50.8646 15.5292 50.8646 17.1607C50.8646 18.7774 51.0277 20.0233 51.3689 20.9281C51.71 21.8328 52.2439 22.4558 52.9855 22.8118C53.7123 23.1826 54.6764 23.3605 55.8778 23.3605Z" fill="#A6B0BF"/>
<path d="M72.8457 27.5432H68.2329V11.9695H72.5342V16.4043L72.8457 16.5526V27.5432ZM72.8457 17.7985H71.9854V14.4909H72.727C73.1127 13.7048 73.6763 13.0374 74.3882 12.4886C75.1002 11.9398 76.0049 11.6729 77.1025 11.6729C78.2001 11.6729 79.0752 11.9102 79.7129 12.3996C80.3656 12.8891 80.8254 13.5417 81.122 14.3871C81.4038 15.2177 81.5521 16.167 81.5521 17.22V18.6439H76.9393V17.7985C76.9393 16.9531 76.791 16.3746 76.5092 16.0631C76.2126 15.7517 75.7083 15.6034 74.9667 15.6034C74.2696 15.6034 73.7356 15.7517 73.3945 16.0631C73.0088 16.3746 72.8457 16.9531 72.8457 17.7985Z" fill="#A6B0BF"/>
<path d="M87.7964 27.5431H83.4951V6.79297H88.1079V23.8499L87.7964 24.2503V27.5431ZM93.0618 27.8545C91.8456 27.8545 90.7925 27.632 89.9026 27.1871C89.0126 26.7421 88.36 26.1043 87.9447 25.2589H87.2921L87.5146 21.0169H88.1079C88.1079 21.6992 88.2414 22.248 88.5083 22.6781C88.7753 23.1083 89.161 23.4049 89.6653 23.6126C90.1695 23.8054 90.7925 23.9092 91.5341 23.9092C92.2015 23.9092 92.7503 23.8202 93.1953 23.657C93.6403 23.4939 93.9962 23.2417 94.2484 22.9154C94.5005 22.5891 94.6933 22.159 94.7972 21.625C94.901 21.1059 94.9455 20.483 94.9455 19.7859C94.9455 19.0888 94.901 18.4658 94.7972 17.9467C94.6933 17.4276 94.5154 16.9826 94.2484 16.6415C93.9962 16.3003 93.6403 16.0482 93.1953 15.885C92.7503 15.7219 92.2015 15.6329 91.5341 15.6329C90.7925 15.6329 90.1695 15.7367 89.6653 15.9295C89.161 16.1224 88.7753 16.4338 88.5083 16.8491C88.2414 17.2644 88.1079 17.8132 88.1079 18.5252H87.5146L87.2921 14.1645H88.2859C88.6418 13.4971 89.2203 12.9186 90.0361 12.4292C90.8518 11.9397 91.8456 11.6876 93.0173 11.6876C95.168 11.6876 96.7847 12.4143 97.8971 13.8827C98.9946 15.3511 99.5583 17.3237 99.5583 19.8007C99.5583 22.2332 99.0095 24.191 97.8971 25.6742C96.7995 27.1129 95.1828 27.8545 93.0618 27.8545Z" fill="#A6B0BF"/>
<path d="M106.218 10.2043H101.665L101.605 6.79297H106.218V10.2043ZM106.307 27.5431H101.665V11.9694H106.307V27.5431Z" fill="#A6B0BF"/>
<path d="M119.137 15.8111H107.612V11.9696H119.137V15.8111ZM116.096 27.6026C114.079 27.6026 112.566 27.2022 111.572 26.4012C110.579 25.6003 110.089 24.2802 110.089 22.4411V12.4442L111.083 8.35059H114.732V21.9071C114.732 22.5894 114.895 23.0047 115.221 23.1827C115.547 23.3458 116.215 23.4348 117.209 23.4348H119.122V27.306C118.751 27.395 118.291 27.4543 117.743 27.5285C117.209 27.573 116.66 27.6026 116.096 27.6026Z" fill="#A6B0BF"/>
<path d="M50.886 31.7729H47.3207V31.1541C47.3207 30.5549 47.7136 30.1817 48.3127 30.1817C48.4993 30.1817 48.7743 30.221 49.0199 30.2701L49.1672 29.4451C48.8038 29.3469 48.4993 29.2977 48.1948 29.2977C47.1046 29.2977 46.309 30.0049 46.309 31.1541V31.7729H45.0027V32.6274H46.309V36.3892H47.3207V32.6274H49.8744V36.3892H50.886V31.7729ZM54.8223 31.655C54.2329 31.655 53.732 31.8416 53.3293 32.1854V31.7729H52.3078V36.3892H53.3293V33.2756C53.6927 32.8238 54.174 32.5783 54.616 32.5783C55.3625 32.5783 55.8143 33.0301 55.8143 33.8748V36.3892H56.8357V33.8158C56.8357 32.48 56.0205 31.655 54.8223 31.655ZM61.7152 31.7729V32.1363C61.3224 31.8318 60.8214 31.655 60.2321 31.655C58.9356 31.655 57.8945 32.7354 57.8945 34.081C57.8945 35.4266 58.9356 36.507 60.2321 36.507C60.8214 36.507 61.3224 36.3302 61.7152 36.0257V36.3892H62.7269V31.7729H61.7152ZM60.3795 35.5838C59.5348 35.5838 58.916 34.9061 58.916 34.081C58.916 33.256 59.5348 32.5783 60.3795 32.5783C60.8902 32.5783 61.3715 32.7551 61.7152 33.2461V34.9159C61.3715 35.407 60.8902 35.5838 60.3795 35.5838ZM66.6584 31.655C66.0691 31.655 65.5682 31.8416 65.1655 32.1854V31.7729H64.144V36.3892H65.1655V33.2756C65.5289 32.8238 66.0102 32.5783 66.4522 32.5783C67.1986 32.5783 67.6504 33.0301 67.6504 33.8748V36.3892H68.6719V33.8158C68.6719 32.48 67.8567 31.655 66.6584 31.655ZM72.1665 35.5838C71.312 35.5838 70.7522 34.9159 70.7522 34.081C70.7522 33.2461 71.312 32.5783 72.1665 32.5783C72.7853 32.5783 73.2469 32.9318 73.3746 33.4524H74.4157C74.2488 32.3916 73.3255 31.655 72.1665 31.655C70.7816 31.655 69.7307 32.7158 69.7307 34.081C69.7307 35.4561 70.7816 36.507 72.1665 36.507C73.3255 36.507 74.2488 35.7704 74.4157 34.7096H73.3746C73.2469 35.2302 72.7853 35.5838 72.1665 35.5838ZM77.7571 31.655C76.3526 31.655 75.3802 32.7158 75.3802 34.081C75.3802 35.4561 76.3624 36.507 77.816 36.507C78.8179 36.507 79.6331 36.0159 79.9277 35.1811H78.808C78.6214 35.4757 78.2777 35.6132 77.8259 35.6132C76.9615 35.6132 76.5195 35.0828 76.4213 34.3855H80.0456C80.242 32.8238 79.2893 31.655 77.7571 31.655ZM77.7669 32.5193C78.4839 32.5193 78.975 32.922 79.0339 33.6783H76.441C76.5588 33.0301 77.0008 32.5193 77.7669 32.5193Z" fill="#A6B0BF"/>
</svg>
