<svg width="120" height="40" viewBox="0 0 120 40" fill="none" xmlns="http://www.w3.org/2000/svg">
<path d="M31.9984 25.4309C31.7611 24.6596 31.4497 23.8735 31.0789 23.0874C31.0195 23.1764 26.6886 29.1983 16.9884 34.9383C17.0329 34.9679 17.0922 34.9976 17.1367 35.0273C17.2702 35.1014 17.3889 35.1756 17.5223 35.2349C17.6558 35.3091 17.8042 35.3832 17.9376 35.4426C18.5754 35.7689 19.2132 36.0507 19.8213 36.288C19.9548 36.3473 20.0883 36.3918 20.2218 36.4363C20.2366 36.4363 20.2514 36.4511 20.2663 36.4511C20.4146 36.5105 20.5629 36.555 20.7112 36.5995C21.4973 36.8516 22.2834 37.0296 23.0102 37.1334C23.1585 37.1482 23.3069 37.1779 23.4552 37.1927C23.6777 37.2076 23.8705 37.2224 24.0485 37.2372C24.1819 37.2372 24.3154 37.2521 24.4341 37.2521C26.2436 37.2521 27.7268 36.7033 28.7799 35.665L31.0047 33.4402C32.7252 31.7197 33.0664 28.872 31.9984 25.4309ZM20.2663 35.5167C20.2218 35.5019 20.1773 35.4871 20.118 35.4574C19.5692 35.2497 19.1539 35.1014 18.5754 34.8196L20.6964 33.4551C20.7557 33.4847 21.2452 33.722 21.2897 33.7517C21.3787 33.7962 21.4825 33.8259 21.5715 33.8704C21.6457 33.9 21.7198 33.9297 21.794 33.9594L20.2663 35.5167ZM23.3365 36.3028C23.2624 36.288 23.203 36.288 23.1289 36.2732C22.5059 36.1842 21.8533 36.0358 21.1859 35.8282L22.7284 34.2857C22.8174 34.3153 22.9064 34.345 22.9954 34.3746C23.0844 34.4043 23.1734 34.434 23.2624 34.4488C23.3514 34.4785 23.4255 34.4933 23.5145 34.523H23.5293C23.6183 34.5526 23.7073 34.5675 23.7963 34.5971C23.9743 34.6416 24.1375 34.6861 24.3154 34.7158C24.3896 34.7306 24.4638 34.7454 24.5379 34.7603C24.6121 34.7751 24.6714 34.7899 24.7456 34.8048C24.7752 34.8048 24.7901 34.8196 24.8197 34.8196L23.3365 36.3028ZM28.1718 35.0421C27.3115 35.9024 26.0508 36.3621 24.5082 36.377L25.9025 34.9828C25.9321 34.9828 25.9618 34.9828 26.0063 34.9976C26.0656 34.9976 26.1398 35.0124 26.1991 35.0124C26.2881 35.0124 26.3623 35.0273 26.4513 35.0273C26.5254 35.0273 26.6144 35.0273 26.6886 35.0273C26.7182 35.0273 26.7479 35.0273 26.7924 35.0273C26.8221 35.0273 26.8666 35.0273 26.8962 35.0273H26.9259C27 35.0273 27.0594 35.0273 27.1335 35.0124C27.1484 35.0124 27.1484 35.0124 27.1632 35.0124C27.2374 35.0124 27.2967 34.9976 27.3708 34.9976C27.445 34.9976 27.5043 34.9828 27.5785 34.9828C27.5785 34.9828 27.5785 34.9828 27.5933 34.9828C27.7416 34.9679 27.8751 34.9531 28.0086 34.9234C28.068 34.9086 28.1421 34.8938 28.2014 34.8938C28.2756 34.8789 28.3349 34.8641 28.4091 34.8493L28.1718 35.0421ZM36.2404 10.1687C34.9945 8.40368 32.3693 8.38884 30.3966 8.68548C27.89 9.05629 24.7901 10.139 21.4528 11.8299C21.438 11.8447 21.3194 11.8892 21.3045 11.904C21.2749 11.8744 21.2304 11.8596 21.2007 11.8299C19.3319 10.5692 17.4185 9.60507 15.5645 9.02662C12.1235 7.94388 9.29053 8.28502 7.58485 10.0055L5.36003 12.2304C4.24763 13.3428 3.69885 14.9891 3.77301 16.9618C3.77301 17.1546 3.78784 17.3474 3.8175 17.5699C3.8175 17.5847 3.8175 17.5996 3.8175 17.5996C3.83233 17.733 3.84717 17.8665 3.862 18.0149L3.92133 18.4302C3.99549 18.8306 4.1883 19.5871 4.32179 20.0469L4.39595 20.2842V20.299C4.44044 20.4325 4.48494 20.5808 4.54427 20.7588C4.54427 20.7736 4.55911 20.7885 4.55911 20.8033C4.61844 20.9516 4.66293 21.0851 4.70743 21.2038C4.94474 21.8267 5.22655 22.4645 5.55286 23.1023C5.58252 23.1468 5.59735 23.2061 5.62702 23.2506C5.65668 23.3099 5.68634 23.3692 5.71601 23.4286C3.50603 25.7424 1.84483 27.9969 0.91041 29.9547C-0.498638 32.8766 -0.00917386 34.5823 0.628606 35.4871C1.51853 36.7478 3.12039 37.1186 4.67776 37.1186C5.30071 37.1186 5.90882 37.0593 6.47244 36.9703C8.9494 36.5995 11.99 35.5464 15.2679 33.9C15.3124 33.8704 15.3717 33.8555 15.4162 33.8259C15.4162 33.8259 15.431 33.8259 15.431 33.811C15.4459 33.811 15.4458 33.7962 15.4458 33.7962C15.5793 33.722 15.7128 33.6627 15.8463 33.5886C15.9205 33.5441 16.0095 33.4996 16.0985 33.4551C16.1133 33.4402 16.1281 33.4402 16.1578 33.4254C16.2023 33.3957 16.2468 33.3809 16.3061 33.3512C16.6028 33.1881 16.9142 33.0249 17.2257 32.8618C17.5965 32.6541 17.9821 32.4316 18.3678 32.2092C18.4123 32.1795 18.4568 32.1647 18.5013 32.135C18.5161 32.1202 18.5458 32.1053 18.5606 32.1053C18.6792 32.0312 18.7979 31.957 18.9166 31.8977C19.05 31.8087 19.1984 31.7345 19.3319 31.6455C19.9251 31.2896 20.5036 30.9188 21.0969 30.5331L21.3045 30.3997C21.8681 30.0289 22.4318 29.6432 22.9806 29.2427C25.2054 27.6557 27.267 25.9797 29.1359 24.2443C29.7143 23.6956 30.2779 23.1468 30.8119 22.598C30.8267 22.5831 30.8267 22.5683 30.8416 22.5683C30.8861 22.5238 30.9306 22.4793 30.975 22.4348C33.2592 20.0617 34.9797 17.7479 35.9438 15.7307C37.3677 12.7791 36.8782 11.0883 36.2404 10.1687ZM13.3694 28.2935C13.4584 28.3677 13.5325 28.4566 13.6215 28.5308C13.844 28.7385 14.0665 28.9461 14.2889 29.1389C14.3928 29.2279 14.4966 29.3317 14.6004 29.4207C14.6449 29.4504 14.6746 29.4949 14.7191 29.5246L13.1024 31.1413L13.0727 31.1264C12.6129 30.726 12.1531 30.3107 11.723 29.8954L13.3397 28.2787C13.3545 28.2787 13.3694 28.2935 13.3694 28.2935ZM11.5005 26.306C11.5302 26.3357 11.545 26.3653 11.5747 26.395L11.5895 26.4247C11.6043 26.4543 11.634 26.4692 11.6488 26.484C11.6637 26.4988 11.6933 26.5285 11.7082 26.5433C11.7675 26.6175 11.8417 26.6916 11.9158 26.7658C11.99 26.84 12.0493 26.9141 12.1235 26.9883C12.1531 27.0179 12.168 27.0476 12.1976 27.0624C12.2866 27.1514 12.3756 27.2404 12.4498 27.3442C12.5536 27.4481 12.6426 27.5519 12.7464 27.6557L11.1297 29.2724C10.7144 28.8423 10.2991 28.3973 9.89866 27.9227C9.89866 27.9079 9.88382 27.9079 9.88382 27.9079L11.5005 26.306C11.4857 26.2912 11.4857 26.2912 11.5005 26.306ZM9.92832 24.3333C9.95799 24.363 9.98765 24.4075 10.0025 24.4372C10.0766 24.541 10.1508 24.63 10.225 24.7338C10.2843 24.8228 10.3585 24.9118 10.4178 25.0008C10.4623 25.0601 10.5216 25.1194 10.5661 25.1936C10.6403 25.2826 10.7144 25.3864 10.7886 25.4754C10.8331 25.5347 10.8776 25.5792 10.9221 25.6386L9.3202 27.2404C8.93457 26.7658 8.56377 26.2763 8.22263 25.8017C8.2078 25.7869 8.19297 25.772 8.19297 25.7424L9.79483 24.1405C9.83933 24.1998 9.88383 24.274 9.92832 24.3333ZM8.45994 22.0789C8.5341 22.2123 8.60826 22.3458 8.69725 22.4793C8.77141 22.6128 8.86041 22.7463 8.93457 22.8798C8.9494 22.8946 8.9494 22.9095 8.96424 22.9243C8.97907 22.9391 8.97906 22.9539 8.99389 22.9688C9.00873 22.9836 9.02357 23.0133 9.0384 23.0281C9.05323 23.0429 9.06806 23.0726 9.08289 23.0874C9.15705 23.2061 9.23121 23.3099 9.30537 23.4137L7.70351 25.0156C7.54036 24.7635 7.3772 24.5113 7.22888 24.274C7.22888 24.274 7.22888 24.274 7.24371 24.2592L7.21404 24.2295C7.06572 23.9774 6.91741 23.7252 6.78392 23.4731C6.76909 23.4434 6.75426 23.4137 6.73942 23.3841L8.32645 21.797C8.34128 21.886 8.40061 21.9899 8.45994 22.0789ZM5.98298 12.8385L6.19064 12.6308V12.6457C6.1758 12.705 6.16097 12.7495 6.16097 12.8088C6.14614 12.8533 6.14614 12.9126 6.1313 12.9571C6.1313 12.972 6.1313 12.972 6.1313 12.9868C6.11647 13.0165 6.11648 13.061 6.11648 13.0906C6.10164 13.1351 6.10164 13.1796 6.10164 13.2241C6.10164 13.2686 6.08681 13.3131 6.08681 13.3724C6.08681 13.4021 6.07198 13.4317 6.07198 13.4762C6.05715 13.5949 6.04232 13.7136 6.04232 13.8322C6.04232 13.8767 6.04231 13.936 6.02748 13.9805C6.01265 14.203 6.01265 14.4255 6.02748 14.648C6.02748 14.6925 6.02748 14.737 6.02748 14.7815C6.02748 14.8408 6.02748 14.8853 6.04232 14.9446C6.04232 15.004 6.05714 15.0781 6.05714 15.1523L4.66293 16.5465C4.6481 14.9743 5.10789 13.6987 5.98298 12.8385ZM4.92991 18.8603C4.90024 18.6526 4.75192 17.8072 4.72226 17.6589L6.1758 16.2054C6.29446 16.8728 6.47245 17.5699 6.70976 18.2818L5.18206 19.8095C5.1079 19.5277 5.00407 19.1718 4.92991 18.8603ZM5.53802 20.8775C5.52319 20.833 5.50836 20.7885 5.4787 20.744L7.03607 19.1866C7.06573 19.2608 7.09539 19.3201 7.12506 19.3942C7.28821 19.8095 7.48102 20.2248 7.68867 20.6401C7.73317 20.7291 7.77767 20.8181 7.82216 20.9071C7.837 20.9368 7.85183 20.9516 7.86666 20.9813L6.27962 22.5535C5.99782 22.0047 5.74567 21.4262 5.53802 20.8775ZM1.68168 33.2178V33.1732C1.68168 33.1881 1.68168 33.2029 1.68168 33.2178ZM1.8745 32.0905C1.8745 32.0608 1.88933 32.046 1.88933 32.0163C1.88933 32.046 1.88933 32.0608 1.8745 32.0905ZM8.62309 34.1818C8.1633 34.2412 7.67384 34.3005 7.16955 34.3005C5.90882 34.3005 4.61844 34.0038 3.89166 32.9953C3.37254 32.2685 2.98691 30.9039 4.11414 28.5456C4.6036 27.5519 5.31554 26.4543 6.23513 25.3122C5.90882 25.683 5.59735 26.039 5.30071 26.3802C5.68635 25.9055 6.11648 25.4161 6.5911 24.9118C6.72459 25.1343 6.85808 25.3419 7.0064 25.5644C7.08056 25.683 7.16956 25.8017 7.25855 25.9352C7.25855 25.9352 7.25855 25.9352 7.25855 25.95C7.34754 26.0687 7.42169 26.1873 7.51069 26.306C7.86666 26.8103 8.2523 27.3146 8.66759 27.8189C8.75659 27.9375 8.86041 28.0413 8.9494 28.16C9.03839 28.2787 9.14222 28.3825 9.23121 28.5011C9.64651 28.9758 10.0766 29.4504 10.5068 29.8954C10.6106 29.9992 10.7144 30.103 10.8182 30.2068C10.9221 30.3107 11.0259 30.4145 11.1297 30.5183C11.5747 30.9484 12.0345 31.3786 12.5239 31.7939C12.6426 31.8977 12.7464 31.9867 12.8651 32.0757C12.9837 32.1647 13.0876 32.2685 13.2062 32.3575C13.3397 32.4761 13.488 32.58 13.6363 32.6986C11.7823 33.4551 10.0766 33.9594 8.62309 34.1818ZM16.5879 31.2896C16.5434 31.3044 16.5138 31.3341 16.4693 31.3489C16.4544 31.3637 16.4396 31.3637 16.4248 31.3786C16.3654 31.4082 16.2913 31.4527 16.232 31.4824C16.1281 31.5417 16.0095 31.5862 15.9056 31.6455C15.9056 31.6455 15.8908 31.6455 15.8908 31.6604C15.8908 31.6604 15.876 31.6604 15.876 31.6752C15.8315 31.69 15.8018 31.7197 15.7573 31.7345C15.342 31.9422 14.9416 32.135 14.5411 32.313C14.289 32.1202 14.0368 31.9274 13.7847 31.7345L15.4014 30.1178C15.4607 30.1623 15.5052 30.2068 15.5645 30.2513C15.6387 30.3107 15.7128 30.37 15.8018 30.4293C15.876 30.4886 15.9501 30.548 16.0391 30.6073C16.0836 30.637 16.1281 30.6815 16.1726 30.7111C16.2171 30.7408 16.2616 30.7705 16.3061 30.815C16.3209 30.8298 16.3358 30.8446 16.3506 30.8446C16.3803 30.8594 16.4099 30.8891 16.4248 30.9039C16.4693 30.9336 16.5138 30.9633 16.5583 31.0078C16.6176 31.0523 16.6769 31.0968 16.7363 31.1413C16.7659 31.1561 16.7956 31.1857 16.8252 31.2006C16.7214 31.2154 16.6621 31.2451 16.5879 31.2896ZM32.4879 17.1249C31.9243 18.2967 31.0344 19.5871 29.8923 20.9368C29.8923 20.9219 29.8775 20.922 29.8775 20.9071C28.7354 19.0234 27.267 17.1694 25.5613 15.4637C24.6862 14.5887 23.7815 13.7877 22.8471 13.0461C24.7456 12.2452 26.4957 11.7112 27.979 11.4888C29.5808 11.2514 31.687 11.2663 32.7104 12.6753C33.2444 13.4021 33.63 14.7666 32.4879 17.1249ZM19.2874 3.58325V3.0048C20.7706 3.0048 21.9868 1.78857 21.9868 0.305359H22.5652C22.5652 1.78857 23.7815 3.0048 25.2647 3.0048V3.58325C23.7815 3.58325 22.5652 4.79948 22.5652 6.28269H21.9868C21.9868 4.79948 20.7706 3.58325 19.2874 3.58325Z" fill="#00FF91"/>
<path d="M55.8778 28.16C53.7865 28.16 52.0066 27.715 50.5382 26.8399C49.055 25.9648 47.9278 24.7189 47.112 23.1171C46.3111 21.5152 45.9106 19.6315 45.9106 17.4661C45.9106 15.3006 46.3111 13.4169 47.112 11.815C47.913 10.2132 49.055 8.98211 50.5382 8.09218C52.0066 7.21709 53.8013 6.77213 55.8778 6.77213C57.9395 6.77213 59.7193 7.21709 61.2025 8.09218C62.6857 8.96728 63.8278 10.2132 64.6287 11.815C65.4297 13.4169 65.8153 15.3006 65.8153 17.4661C65.8153 19.6315 65.4148 21.5152 64.6287 23.1171C63.8278 24.7189 62.7006 25.95 61.2025 26.8399C59.7045 27.7299 57.9395 28.16 55.8778 28.16ZM55.8778 23.6659C57.0495 23.6659 58.0136 23.4879 58.7404 23.1171C59.4672 22.7611 60.016 22.1233 60.3571 21.2334C60.6982 20.3286 60.8614 19.0828 60.8614 17.4661C60.8614 15.8345 60.6982 14.5738 60.3571 13.6839C60.016 12.794 59.482 12.171 58.7404 11.815C58.0136 11.4591 57.0495 11.2663 55.8778 11.2663C54.6764 11.2663 53.7123 11.4442 52.9855 11.815C52.2588 12.171 51.71 12.794 51.3689 13.6839C51.0277 14.5738 50.8646 15.8345 50.8646 17.4661C50.8646 19.0828 51.0277 20.3286 51.3689 21.2334C51.71 22.1382 52.2439 22.7611 52.9855 23.1171C53.7123 23.4879 54.6764 23.6659 55.8778 23.6659Z" fill="white"/>
<path d="M72.8457 27.8485H68.2329V12.2748H72.5342V16.7096L72.8457 16.8579V27.8485ZM72.8457 18.1038H71.9854V14.7963H72.727C73.1127 14.0102 73.6763 13.3427 74.3882 12.7939C75.1002 12.2452 76.0049 11.9782 77.1025 11.9782C78.2001 11.9782 79.0752 12.2155 79.7129 12.7049C80.3656 13.1944 80.8254 13.847 81.122 14.6924C81.4038 15.523 81.5521 16.4723 81.5521 17.5254V18.9493H76.9393V18.1038C76.9393 17.2584 76.791 16.6799 76.5092 16.3685C76.2126 16.057 75.7083 15.9087 74.9667 15.9087C74.2696 15.9087 73.7356 16.057 73.3945 16.3685C73.0088 16.6799 72.8457 17.2584 72.8457 18.1038Z" fill="white"/>
<path d="M87.7964 27.8485H83.4951V7.09842H88.1079V24.1553L87.7964 24.5558V27.8485ZM93.0618 28.16C91.8456 28.16 90.7925 27.9375 89.9026 27.4925C89.0126 27.0476 88.36 26.4098 87.9447 25.5644H87.2921L87.5146 21.3224H88.1079C88.1079 22.0047 88.2414 22.5535 88.5083 22.9836C88.7753 23.4137 89.161 23.7104 89.6653 23.918C90.1695 24.1108 90.7925 24.2146 91.5341 24.2146C92.2015 24.2146 92.7503 24.1257 93.1953 23.9625C93.6403 23.7993 93.9962 23.5472 94.2484 23.2209C94.5005 22.8946 94.6933 22.4645 94.7972 21.9305C94.901 21.4114 94.9455 20.7884 94.9455 20.0913C94.9455 19.3942 94.901 18.7713 94.7972 18.2521C94.6933 17.733 94.5154 17.2881 94.2484 16.9469C93.9962 16.6058 93.6403 16.3536 93.1953 16.1905C92.7503 16.0273 92.2015 15.9383 91.5341 15.9383C90.7925 15.9383 90.1695 16.0422 89.6653 16.235C89.161 16.4278 88.7753 16.7393 88.5083 17.1546C88.2414 17.5699 88.1079 18.1187 88.1079 18.8306H87.5146L87.2921 14.47H88.2859C88.6418 13.8025 89.2203 13.2241 90.0361 12.7346C90.8518 12.2452 91.8456 11.993 93.0173 11.993C95.168 11.993 96.7847 12.7198 97.8971 14.1882C98.9946 15.6565 99.5583 17.6292 99.5583 20.1062C99.5583 22.5386 99.0095 24.4964 97.8971 25.9797C96.7995 27.4184 95.1828 28.16 93.0618 28.16Z" fill="white"/>
<path d="M106.218 10.5098H101.665L101.605 7.09842H106.218V10.5098ZM106.307 27.8485H101.665V12.2748H106.307V27.8485Z" fill="white"/>
<path d="M119.137 16.1163H107.612V12.2748H119.137V16.1163ZM116.096 27.9078C114.079 27.9078 112.566 27.5074 111.572 26.7064C110.579 25.9055 110.089 24.5854 110.089 22.7463V12.7495L111.083 8.65579H114.732V22.2123C114.732 22.8946 114.895 23.3099 115.221 23.4879C115.547 23.651 116.215 23.74 117.209 23.74H119.122V27.6112C118.751 27.7002 118.291 27.7595 117.743 27.8337C117.209 27.8782 116.66 27.9078 116.096 27.9078Z" fill="white"/>
<path d="M50.886 32.0783H47.3207V31.4595C47.3207 30.8604 47.7136 30.4871 48.3127 30.4871C48.4993 30.4871 48.7743 30.5264 49.0199 30.5755L49.1672 29.7505C48.8038 29.6523 48.4993 29.6032 48.1948 29.6032C47.1046 29.6032 46.309 30.3103 46.309 31.4595V32.0783H45.0027V32.9328H46.309V36.6946H47.3207V32.9328H49.8744V36.6946H50.886V32.0783ZM54.8223 31.9604C54.2329 31.9604 53.732 32.147 53.3293 32.4908V32.0783H52.3078V36.6946H53.3293V33.581C53.6927 33.1292 54.174 32.8837 54.616 32.8837C55.3625 32.8837 55.8143 33.3355 55.8143 34.1802V36.6946H56.8357V34.1212C56.8357 32.7855 56.0205 31.9604 54.8223 31.9604ZM61.7152 32.0783V32.4417C61.3224 32.1372 60.8214 31.9604 60.2321 31.9604C58.9356 31.9604 57.8945 33.0408 57.8945 34.3864C57.8945 35.732 58.9356 36.8124 60.2321 36.8124C60.8214 36.8124 61.3224 36.6356 61.7152 36.3312V36.6946H62.7269V32.0783H61.7152ZM60.3795 35.8892C59.5348 35.8892 58.916 35.2115 58.916 34.3864C58.916 33.5614 59.5348 32.8837 60.3795 32.8837C60.8902 32.8837 61.3715 33.0605 61.7152 33.5516V35.2213C61.3715 35.7124 60.8902 35.8892 60.3795 35.8892ZM66.6584 31.9604C66.0691 31.9604 65.5682 32.147 65.1655 32.4908V32.0783H64.144V36.6946H65.1655V33.581C65.5289 33.1292 66.0102 32.8837 66.4522 32.8837C67.1986 32.8837 67.6504 33.3355 67.6504 34.1802V36.6946H68.6719V34.1212C68.6719 32.7855 67.8567 31.9604 66.6584 31.9604ZM72.1665 35.8892C71.312 35.8892 70.7522 35.2213 70.7522 34.3864C70.7522 33.5516 71.312 32.8837 72.1665 32.8837C72.7853 32.8837 73.2469 33.2373 73.3746 33.7578H74.4157C74.2488 32.6971 73.3255 31.9604 72.1665 31.9604C70.7816 31.9604 69.7307 33.0212 69.7307 34.3864C69.7307 35.7615 70.7816 36.8124 72.1665 36.8124C73.3255 36.8124 74.2488 36.0758 74.4157 35.015H73.3746C73.2469 35.5356 72.7853 35.8892 72.1665 35.8892ZM77.7571 31.9604C76.3526 31.9604 75.3802 33.0212 75.3802 34.3864C75.3802 35.7615 76.3624 36.8124 77.816 36.8124C78.8179 36.8124 79.6331 36.3213 79.9277 35.4865H78.808C78.6214 35.7811 78.2777 35.9186 77.8259 35.9186C76.9615 35.9186 76.5195 35.3883 76.4213 34.6909H80.0456C80.242 33.1292 79.2893 31.9604 77.7571 31.9604ZM77.7669 32.8247C78.4839 32.8247 78.975 33.2274 79.0339 33.9837H76.441C76.5588 33.3355 77.0008 32.8247 77.7669 32.8247Z" fill="white"/>
</svg>
